<svg xmlns="http://www.w3.org/2000/svg" viewBox="0 0 51.03 57.87"><defs><style>.cls-1{fill:#dfcfe0;fill-rule:evenodd;}</style></defs><title>contact</title><g id="Layer_2" data-name="Layer 2"><g id="Слой_1" data-name="Слой 1"><path class="cls-1" d="M28.47,43.67c1.32,3.84,4,6.55,6.79,9.4A8.12,8.12,0,0,1,36,51.51a8.81,8.81,0,0,1,1.89-2c.91-.6,1.7-.12,1.89,1,.38,2.17.38,2.17-.81,5.58,1,1.1,1,1.1,1.22,1.83-1.31.06-1.31.06-8.58-6.3a5,5,0,0,1-2.92,2.12,14.2,14.2,0,0,1-2.32.28,2.77,2.77,0,0,1-2-1.59,1.37,1.37,0,0,1,.38-.95,6.3,6.3,0,0,1,3.54-2.17,3.77,3.77,0,0,0,.78-.28L24,37a1.77,1.77,0,0,0-.49,0,4.21,4.21,0,0,1-5.75-2.73c-.41-1.11-.24-1.38.89-1.6a6.39,6.39,0,0,1,4.25.88L22.1,26a10.79,10.79,0,0,0-1.46.16c-4.19,1-7.65-.42-10.9-3A17.76,17.76,0,0,1,4.25,16C3.53,14.38,2.6,12.86.6,12.46c-.18,0-.32-.24-.6-.46C2.52,8.21,6.19,7.14,10.5,7.36a12.89,12.89,0,0,0,.34-4.71c-.09-.61-.21-1.15.42-1.5A1.53,1.53,0,0,1,13,1.39c2.17,1.45,4.38,2.85,6.57,4.26a2.54,2.54,0,0,0,.48.14,24.3,24.3,0,0,0,2.34-4.29A4.17,4.17,0,0,0,22.48,1c.14-.53.37-1.11,1-1A1.87,1.87,0,0,1,24.7.76c1.43,2.36,2.79,4.78,4.16,7.18.2.35.37.73.51,1,.16.06.22.1.26.09l9.64-2.09A1.67,1.67,0,0,0,40,6.67c1-.83,1.71-.37,2.55.33l-3.07,6.08a15,15,0,0,1,6.74,2c2,1.21,3.28,3,4.81,4.73-.18.8-.7,1.21-1.46,1-2.45-.72-4.5.38-6.56,1.37a30,30,0,0,0-3.05,1.92,18.7,18.7,0,0,1-11.56,2.68,17.92,17.92,0,0,1-2.3-.47c-.7-.14-1.4-.25-2.09-.37-.68,2.73,1.16,10.79,2.62,13.35.42-.25.85-.49,1.27-.76a5.81,5.81,0,0,1,3.08-1,1,1,0,0,1,1.16,1,3,3,0,0,1-1,3.09C30.26,42.21,29.41,42.9,28.47,43.67ZM20.71,14.74c1.08.2.94.92,1,1.52a8.61,8.61,0,0,0,1.09,4.26,8.26,8.26,0,0,0,.81-3.58,6.58,6.58,0,0,1,0-1.41c.05-.25.32-.61.52-.64a1,1,0,0,1,.75.42,1.62,1.62,0,0,1,.26.89,10.21,10.21,0,0,1-.07,2.33c-.27,1.28-.71,2.52-1.07,3.78A31.38,31.38,0,0,0,26.76,19,6.31,6.31,0,0,0,28,15.82c.51-4-.81-7.42-2.77-10.72-.41-.7-.9-1.35-1.49-2.23-2.36,4-4.8,7.66-5.68,12.06a6,6,0,0,0,.47,3.68,3.28,3.28,0,0,0,2.28,2C20.64,18.69,19.24,16.76,20.71,14.74Zm27,4.13c-2.2-2.61-4.55-4.23-7.82-4.15a1.59,1.59,0,0,0-1.62.93c-1.48,3-4,5-6.78,6.77-1.35.86-2.8,1.54-4.33,2.37a3.38,3.38,0,0,0,2.41.57c3.22-.13,6.35-.58,9.09-2.48.47-.33,1-.59,1.46-.91a16.56,16.56,0,0,1,6.55-2.86C46.9,19.07,47.14,19,47.7,18.87ZM39.33,8.59c-3.33.52-6.52.79-9.4,2.29,0,1,0,1.81,0,2.64a9.66,9.66,0,0,1-2.3,7.11,29.7,29.7,0,0,0-1.74,2.44C27.49,23,30,21.62,32.25,20,36.15,17.2,37.65,13,39.33,8.59ZM19,24.7c-.76-.39-1.29-.71-1.84-1A9,9,0,0,1,12,17.62c-.77-2.68-1.87-5.32-1.66-8.12A6.12,6.12,0,0,0,3,11.37a9.32,9.32,0,0,1,3.14,4,22.82,22.82,0,0,0,1.75,3.13,16.44,16.44,0,0,0,8.21,6.23A4.6,4.6,0,0,0,19,24.7Zm1.18-1.91c-.48-.39-.94-.8-1.43-1.17a6.42,6.42,0,0,1-2.41-6.69,28.72,28.72,0,0,1,1.36-4.32,19.58,19.58,0,0,1,1-2.13,1.09,1.09,0,0,0-.18-1.41,16.62,16.62,0,0,0-5.48-3.59c-.1.32-.17.51-.22.7a21.16,21.16,0,0,0,1,13.07C15,20.16,16.82,22.39,20.2,22.79ZM29.5,50.9a2.78,2.78,0,0,0-2.63,1.33A2.45,2.45,0,0,0,29.5,50.9ZM22.28,35.72a2.55,2.55,0,0,0-2.34-1.35A2.22,2.22,0,0,0,22.28,35.72Zm7.94,4L30,39.43a2.63,2.63,0,0,0-2.14,2.4ZM38.14,52.2l-.43-.12a1.74,1.74,0,0,0,0,1.92Z"/></g></g></svg>