<svg xmlns="http://www.w3.org/2000/svg" viewBox="0 0 37.94 48.95"><defs><style>.cls-1{fill:#98669b;fill-rule:evenodd;}</style></defs><title>style-title-left</title><g id="Layer_2" data-name="Layer 2"><g id="Слой_1" data-name="Слой 1"><path class="cls-1" d="M32.25,3.75A3.31,3.31,0,0,1,35.41,6a5.38,5.38,0,0,1,.35,1.64,4.38,4.38,0,0,0,.9,2.38A4.61,4.61,0,0,1,37,15.6c-.17.3-.34.61-.52.9a20.47,20.47,0,0,1-6.55,6.17,5.52,5.52,0,0,1-3.95,1,.86.86,0,0,0-.68.2C24.16,25.24,22.53,26,21.09,27a4.24,4.24,0,0,1-3.18.79l-1.76-.23a4.72,4.72,0,0,0,2.28,3.81,21.92,21.92,0,0,0,3.21,1.68A60.33,60.33,0,0,1,29,36.23c1,.56,1.89,1.15,2.83,1.71a18,18,0,0,1,.31-3.37c.65-2.27,1.48-4.49,2.26-6.72a1.11,1.11,0,0,1,1.16-.62c.48.2.32.63.35,1a11.11,11.11,0,0,0,.29,2,22.91,22.91,0,0,0,1,2.81,8.92,8.92,0,0,1-.14,7.41,4.09,4.09,0,0,1-1.65,1.94c-1.14.69-1.29.66-2.1-.37a6.35,6.35,0,0,0-.91-.92,11.72,11.72,0,0,0-5.24-2.22c-.12.13-.2.19-.23.26a4.61,4.61,0,0,0-.22.61,7.07,7.07,0,0,1-4.22,4.78c-.87.39-1.76.72-2.64,1.09-1.65.68-3.29,1.38-4,3.32l-1.17-.43c.25-1.23.43-2.34.7-3.41A6.08,6.08,0,0,1,16,43.43a11.3,11.3,0,0,1,6.68-5c.29-.09.58-.22.87-.33L17,35.26a16.56,16.56,0,0,1-1.93,1.58A8.88,8.88,0,0,1,10,38.12a8.4,8.4,0,0,0-5.52,1.49c-.31.23-.63.46-.93.7s-.61.47-.9.13c-.14-.17-.08-.54,0-.82a10.49,10.49,0,0,0,.29-1.09,6.44,6.44,0,0,1,2.95-5.08,9.62,9.62,0,0,1,6.34-1.86c.4,0,.81,0,1.41.06a9.48,9.48,0,0,1-.49-.87,1.77,1.77,0,0,0-1.91-1.16A5.65,5.65,0,0,1,9,29a16.24,16.24,0,0,1-2.1-1.27,4.85,4.85,0,0,0-3.9-1,1.82,1.82,0,0,1-.64.07.45.45,0,0,1-.32-.76,2.92,2.92,0,0,1,.83-.57c.3-.16.66-.21.95-.38a6.65,6.65,0,0,1,5.74-.61c.33.11.67.15,1.16.26A9,9,0,0,0,6.87,21.2a7.33,7.33,0,0,1-3.41-3.77,12.93,12.93,0,0,1-1.1-3.17A15,15,0,0,0,.53,9.19a3.23,3.23,0,0,1,.87-4.4,3.82,3.82,0,0,1,3.34-1A2.78,2.78,0,0,0,7.25,3,7.19,7.19,0,0,1,8.92,1.83C10.54,1.06,12.2.51,14,1.29a2.33,2.33,0,0,0,1.37,0,8.39,8.39,0,0,1,3.33-.22A7.15,7.15,0,0,0,21.12.83C22.05.64,22.95.31,23.87.1a3.9,3.9,0,0,1,3,.54,5.31,5.31,0,0,1,2.58,3.17C30.45,3.79,31.35,3.75,32.25,3.75Zm-16.48,14c.12-1.82.25-3.74.37-5.67,0-.52,0-1.07.87-1.23.49,2,.15,4.06.12,6.15L18.85,17c.11-.38.23-.74.33-1.1.5-1.74,1-3.48,1.5-5.23.16-.59.44-.91,1-.9.47.43.17.83.06,1.23-.51,1.83-1,3.65-1.52,5.48-.12.43-.39,1,.16,1.28a2.77,2.77,0,0,0,1.48.08,2.35,2.35,0,0,0,.86-.55c.31-.23.58-.62.92-.7,1.27-.32,1.57-1.44,2.17-2.35A36.85,36.85,0,0,1,28.36,11a3.61,3.61,0,0,1,1-.6c.4.66,0,.93-.27,1.27q-1.12,1.5-2.22,3c-.18.24-.34.5-.6.89l1.42.4c.93-.94,1.69-2,3.21-2.09.13.73-.33,1-.78,1.23-1.1.51-1.47,1.6-2.2,2.42.19.12.28.22.32.2,1.33-.5,2.66-1,4-1.54a6.8,6.8,0,0,0,3.21-2.73,2.37,2.37,0,0,0,0-2.8,5.59,5.59,0,0,1-1-2.9c-.2-1.91-1-2.61-2.91-2.76C28.92,4.75,27.24,6,26.15,8.31c-.3.62-.52,1.29-1.33,1.42-.47-.4-.29-.82-.06-1.18,1-1.53,1.8-3.16,3.37-4.21,0-1-.67-1.57-1.31-2.12a2.94,2.94,0,0,0-2.43-1,16.33,16.33,0,0,0-2.51.6,10.83,10.83,0,0,1-4.2.57A7.13,7.13,0,0,0,15,2.77a2.45,2.45,0,0,0-1.58,2.06,4.47,4.47,0,0,0,.43,2.9,3.6,3.6,0,0,1-.18,3.81,9.27,9.27,0,0,0-1.21,3.8,3.79,3.79,0,0,0,.5,2.74A3.06,3.06,0,0,0,15.77,17.78Zm10.37,3.46A5.12,5.12,0,0,0,27,18c-.07-.85-.46-1.24-1.28-1a6,6,0,0,0-2.17,1c-1.75,1.39-2.8,1.58-4.71.55a1.89,1.89,0,0,0-2,0,6.39,6.39,0,0,1-4.47.87,1.8,1.8,0,0,0-1.64,3.07c2.12,3,5.22,3.78,8.61,4a1.23,1.23,0,0,0,.38-.06c.16-.05.32-.12.48-.19A12.34,12.34,0,0,0,26.14,21.24ZM12.55,8.5a5,5,0,0,1,.22-5.3,7,7,0,0,0,.39-.78A5,5,0,0,0,8.33,3.6,5.49,5.49,0,0,1,3.85,5.07c-2-.17-3.1,1.51-2.29,3.36a4.34,4.34,0,0,0,.43.8,6.58,6.58,0,0,1,1.2,3.11A2.12,2.12,0,0,0,4.6,14.16c1.06.46,2.08,1,3.25,1.6a6.35,6.35,0,0,0-1.13-3.24,11.91,11.91,0,0,0-.9-1.27c-.29-.38-.46-.78,0-1.12s.72,0,1,.33A9.17,9.17,0,0,1,9,14.94a6.19,6.19,0,0,0,2,3.46,2.75,2.75,0,0,0,.22-.71,10,10,0,0,1-.08-1.8c.45-2.55-.53-4.63-2-6.57-.33-.43-1-.88-.28-1.39s1,.25,1.3.66c.51.69.93,1.45,1.39,2.18.17.28.33.57.51.88A2.57,2.57,0,0,0,12.55,8.5ZM9.33,33.23C7,34,5,35.14,4.39,37.86a30.55,30.55,0,0,1,3.55-1c1.18-.19,2.41-.05,3.61-.18a5.66,5.66,0,0,0,3.35-1.2,12.09,12.09,0,0,0,1-1.1C14.55,33,11.39,32.51,9.33,33.23ZM16.9,45.36c.07,0,.15.12.2.1,1.82-.77,3.66-1.52,5.45-2.36a4.64,4.64,0,0,0,2.71-3.94C21,39.63,17.26,42.45,16.9,45.36Zm11.82-7.88q-2.53-1.16-5.06-2.29c-1.85-.82-3.76-1.53-5.56-2.44A6.54,6.54,0,0,1,14.61,28c-.08-.41-.06-1-.67-.88s-.46.65-.38,1.08a3.16,3.16,0,0,0,.27.86,12.67,12.67,0,0,0,4.83,5.43,32.29,32.29,0,0,0,8,2.92c.85.24,1.72.43,2.58.65l.08-.18A3.51,3.51,0,0,0,28.72,37.48ZM34.81,41c2.1-1.47,2.07-6-.12-9.7C32.61,34,33,39.16,34.81,41ZM29.95,21.49a18.35,18.35,0,0,0,5.39-5.14A4.32,4.32,0,0,0,36,14.63c-.27.23-.55.45-.8.7a9.16,9.16,0,0,1-3.69,2.3,8.46,8.46,0,0,0-3,1.49,7.69,7.69,0,0,0-1.79,3.19A4,4,0,0,0,29.95,21.49ZM9.82,19c-1.36-1.8-3.48-2.39-5.43-3.28.5,2.48,2.12,4,4.39,5Zm2,8.29A6.45,6.45,0,0,0,6.39,25.7c1.84.81,3.2,2.62,5.65,2.64C12,27.91,12,27.49,11.82,27.34Z"/></g></g></svg>