<svg xmlns="http://www.w3.org/2000/svg" viewBox="0 0 37.94 48.95"><defs><style>.cls-1{fill:#98669b;fill-rule:evenodd;}</style></defs><title>style-title-right</title><g id="Layer_2" data-name="Layer 2"><g id="Слой_1" data-name="Слой 1"><path class="cls-1" d="M8.5,3.81A5.31,5.31,0,0,1,11.08.64a3.9,3.9,0,0,1,3-.54c.92.21,1.82.54,2.75.73a7.16,7.16,0,0,0,2.41.24,8.38,8.38,0,0,1,3.32.22,2.33,2.33,0,0,0,1.37,0c1.82-.77,3.48-.22,5.1.55A7.22,7.22,0,0,1,30.69,3a2.78,2.78,0,0,0,2.51.73,3.81,3.81,0,0,1,3.34,1,3.23,3.23,0,0,1,.87,4.4,14.93,14.93,0,0,0-1.84,5.07,13,13,0,0,1-1.1,3.17,7.33,7.33,0,0,1-3.41,3.77,9,9,0,0,0-3.87,3.59c.48-.11.83-.15,1.16-.26a6.64,6.64,0,0,1,5.74.61c.29.17.65.23.95.38a2.92,2.92,0,0,1,.84.57.45.45,0,0,1-.32.76,1.83,1.83,0,0,1-.64-.07,4.85,4.85,0,0,0-3.9,1A16.38,16.38,0,0,1,28.91,29a5.67,5.67,0,0,1-2.21.6,1.78,1.78,0,0,0-1.91,1.16,9.59,9.59,0,0,1-.48.87c.6,0,1,0,1.4-.06a9.62,9.62,0,0,1,6.34,1.86A6.44,6.44,0,0,1,35,38.54a10.5,10.5,0,0,0,.29,1.09c0,.27.1.65,0,.82-.28.34-.61.1-.89-.13s-.62-.47-.93-.7a8.4,8.4,0,0,0-5.52-1.49,8.88,8.88,0,0,1-5.08-1.28,16.56,16.56,0,0,1-1.93-1.58l-6.51,2.83c.29.11.57.24.87.33a11.3,11.3,0,0,1,6.68,5,6,6,0,0,1,.66,1.67c.27,1.08.45,2.18.7,3.41l-1.17.43c-.75-1.94-2.39-2.64-4-3.32-.88-.36-1.77-.7-2.64-1.09a7.07,7.07,0,0,1-4.22-4.78,4.78,4.78,0,0,0-.22-.61c0-.07-.11-.13-.23-.26a11.73,11.73,0,0,0-5.24,2.22,6.4,6.4,0,0,0-.91.92c-.8,1-1,1.07-2.1.37A4.1,4.1,0,0,1,.88,40.47a8.93,8.93,0,0,1-.14-7.41,23.09,23.09,0,0,0,1-2.81,11.29,11.29,0,0,0,.29-2c0-.38-.13-.8.35-1a1.11,1.11,0,0,1,1.16.62c.78,2.23,1.61,4.45,2.26,6.72a17.81,17.81,0,0,1,.31,3.37C7,37.37,8,36.79,8.91,36.23a60.49,60.49,0,0,1,7.38-3.15,21.73,21.73,0,0,0,3.21-1.68,4.72,4.72,0,0,0,2.28-3.81L20,27.82A4.24,4.24,0,0,1,16.84,27c-1.44-1-3.06-1.79-4.23-3.19a.86.86,0,0,0-.68-.2,5.52,5.52,0,0,1-3.95-1,20.48,20.48,0,0,1-6.55-6.17c-.18-.29-.35-.6-.52-.9A4.61,4.61,0,0,1,1.27,10a4.38,4.38,0,0,0,.9-2.38A5.38,5.38,0,0,1,2.52,6,3.31,3.31,0,0,1,5.68,3.75C6.59,3.75,7.49,3.79,8.5,3.81ZM25,18.09a3.8,3.8,0,0,0,.5-2.74,9.28,9.28,0,0,0-1.21-3.8,3.6,3.6,0,0,1-.18-3.81,4.48,4.48,0,0,0,.43-2.9,2.45,2.45,0,0,0-1.58-2.06,7.13,7.13,0,0,0-2.66-.38,10.82,10.82,0,0,1-4.2-.57,16.38,16.38,0,0,0-2.51-.6,2.94,2.94,0,0,0-2.43,1c-.64.55-1.36,1.1-1.31,2.12,1.57,1,2.41,2.68,3.37,4.21.22.36.41.78-.06,1.18-.81-.13-1-.8-1.33-1.42C10.69,6,9,4.75,6.35,5c-1.87.15-2.71.85-2.91,2.76a5.58,5.58,0,0,1-1,2.9,2.37,2.37,0,0,0,0,2.8,6.81,6.81,0,0,0,3.21,2.73c1.3.55,2.64,1,4,1.54,0,0,.13-.08.32-.2-.74-.82-1.11-1.91-2.2-2.42-.46-.21-.91-.51-.78-1.23,1.52,0,2.28,1.14,3.21,2.09l1.42-.4c-.26-.39-.42-.65-.6-.89q-1.1-1.51-2.22-3c-.25-.34-.67-.61-.27-1.27a3.57,3.57,0,0,1,1,.6,37.06,37.06,0,0,1,2.52,3.27c.6.91.9,2,2.17,2.35.35.09.61.47.92.7a2.37,2.37,0,0,0,.86.55,2.76,2.76,0,0,0,1.48-.08c.55-.25.28-.85.16-1.28-.48-1.83-1-3.66-1.52-5.48-.11-.4-.41-.8.06-1.23.59,0,.87.31,1,.9.47,1.75,1,3.49,1.5,5.23.11.36.22.72.33,1.1L20.8,17c0-2.09-.37-4.12.13-6.15.89.16.83.72.87,1.23.12,1.93.25,3.85.37,5.67A3.06,3.06,0,0,0,25,18.09Zm-7.24,8.17c.16.06.32.13.48.19a1.23,1.23,0,0,0,.38.06c3.39-.2,6.49-1,8.61-4a1.8,1.8,0,0,0-1.64-3.07,6.39,6.39,0,0,1-4.47-.87,1.89,1.89,0,0,0-2,0c-1.91,1-3,.84-4.71-.55a6,6,0,0,0-2.17-1c-.81-.21-1.21.18-1.28,1a5.12,5.12,0,0,0,.83,3.21A12.34,12.34,0,0,0,17.73,26.26Zm8.13-14.62c.18-.31.34-.6.51-.88.46-.73.87-1.49,1.38-2.18.3-.4.65-1.15,1.3-.66s0,1-.28,1.39c-1.49,1.94-2.47,4-2,6.57a10,10,0,0,1-.08,1.8,2.67,2.67,0,0,0,.22.71,6.2,6.2,0,0,0,2-3.46,9.14,9.14,0,0,1,2.23-4.47c.24-.29.52-.67,1-.33s.29.74,0,1.12a11.91,11.91,0,0,0-.9,1.27,6.33,6.33,0,0,0-1.13,3.24c1.18-.58,2.2-1.14,3.25-1.6a2.12,2.12,0,0,0,1.41-1.83,6.59,6.59,0,0,1,1.2-3.11,4.41,4.41,0,0,0,.43-.8c.81-1.85-.27-3.53-2.29-3.36A5.49,5.49,0,0,1,29.6,3.6a5,5,0,0,0-4.83-1.18,7.15,7.15,0,0,0,.39.78,5,5,0,0,1,.22,5.3A2.57,2.57,0,0,0,25.85,11.64ZM22.07,34.39a12.23,12.23,0,0,0,1,1.1,5.66,5.66,0,0,0,3.35,1.2c1.2.13,2.43,0,3.61.18a30.48,30.48,0,0,1,3.55,1c-.64-2.72-2.65-3.83-4.94-4.63C26.55,32.51,23.38,33,22.07,34.39Zm-9.38,4.78a4.64,4.64,0,0,0,2.71,3.94c1.79.84,3.63,1.58,5.45,2.36,0,0,.13-.06.2-.1C20.68,42.45,16.93,39.63,12.69,39.17ZM8.64,37.89l.08.18c.86-.22,1.73-.41,2.58-.65a32.28,32.28,0,0,0,8-2.92,12.67,12.67,0,0,0,4.83-5.43,3.12,3.12,0,0,0,.27-.86c.08-.43.17-1-.38-1.08s-.58.48-.67.88a6.53,6.53,0,0,1-3.49,4.73c-1.8.92-3.71,1.63-5.56,2.44q-2.54,1.13-5.06,2.29A3.68,3.68,0,0,0,8.64,37.89ZM3.25,31.33C1.06,35,1,39.56,3.13,41,4.93,39.16,5.33,34,3.25,31.33Zm7.94-9A7.69,7.69,0,0,0,9.4,19.12a8.45,8.45,0,0,0-3-1.49,9.15,9.15,0,0,1-3.69-2.3c-.25-.25-.54-.47-.8-.7a4.34,4.34,0,0,0,.67,1.72A18.35,18.35,0,0,0,8,21.49,4,4,0,0,0,11.19,22.32Zm18-1.51c2.28-1.08,3.89-2.56,4.39-5-2,.88-4.07,1.48-5.44,3.28Zm-3.27,7.53c2.45,0,3.81-1.83,5.65-2.64a6.44,6.44,0,0,0-5.43,1.64C25.93,27.49,26,27.91,25.89,28.34Z"/></g></g></svg>