<?xml version="1.0" encoding="utf-8"?>
<!-- Generator: Adobe Illustrator 20.0.0, SVG Export Plug-In . SVG Version: 6.00 Build 0)  -->
<svg version="1.0" id="Layer_1" xmlns="http://www.w3.org/2000/svg" xmlns:xlink="http://www.w3.org/1999/xlink" x="0px" y="0px"
	 viewBox="0 0 680 145" enable-background="new 0 0 680 145" xml:space="preserve">
<g>
	<path fill="#98669B" d="M102.1,138.9c-2.9,0.1-4.6,0.2-5,0.2c-2.2,0-6.2-0.1-12-0.3c-5.8-0.2-17.9-0.3-36.2-0.3H26
		c-0.8,0-3.9,0.1-9.2,0.4c-5.3,0.3-8.5,0.4-9.6,0.4c-4.6,0-6.8-0.6-6.8-1.8c0-1,0.9-1.5,2.7-1.5c5.8-0.4,9.8-1.6,12.1-3.7
		c2.3-2.1,3.8-5.2,4.7-9.2c0.8-4,1.3-14.7,1.3-32.3l0.1-32.1c0-10.4-0.5-17.7-1.4-21.8c-0.9-4.1-2.8-7.3-5.7-9.5
		c-2.9-2.2-6.2-3.4-9.8-3.7c-1.9-0.2-2.9-0.8-2.9-1.9c0-1.1,0.9-1.7,2.6-1.7c0.4,0,1.2,0,2.3,0.1c9.5,0.6,20.6,0.9,33.4,0.9
		l15.8-0.3c1.6,0,2.4,0.6,2.4,1.8c0,1.1-0.9,1.6-2.6,1.6c-4.2,0-7.8,0.8-10.6,2.5c-2.8,1.7-4.7,3.6-5.7,5.8
		c-0.9,2.2-1.4,6.4-1.4,12.8l-0.7,42.4l0.2,23.7c0,7.4,0.3,12.1,0.9,14.4c0.6,2.2,1.9,4.2,3.9,6c2,1.8,5.6,2.6,10.8,2.6
		c0.4,0,5.8-0.2,16.1-0.5c8.2-1.1,15.6-5.1,22.1-12c6.5-6.9,10.9-13,13-18.5c0.7-1.6,1.5-2.3,2.4-2.3c1,0,1.5,0.7,1.5,2.2
		c0,1.7-0.9,7.7-2.6,18C103.6,131.5,102.5,137.4,102.1,138.9"/>
	<path fill="#98669B" d="M138.6,91.9c7.8,0.4,15.3,0.5,22.7,0.5l4.8-0.3c3.6-0.1,6.4-0.8,8.3-2.1c1.9-1.3,2.9-3.5,2.9-6.8
		c0-5-1.7-9.4-5.2-13.1c-3.4-3.7-7.5-5.6-12.2-5.6c-4.3,0-8.6,2.1-12.9,6.4C142.6,75.2,139.9,82.2,138.6,91.9 M138.6,96.6
		c-0.2,3-0.4,5.5-0.4,7.3c0,8.5,2.5,15.7,7.5,21.5c5,5.9,11.2,8.8,18.6,8.8c7.2,0,13.9-2.9,20.1-8.6c1.8-1.6,2.9-2.4,3.4-2.4
		c1,0,1.5,0.8,1.5,2.3c-2.3,4.2-6.2,7.7-11.7,10.6c-5.5,2.9-11.6,4.3-18.4,4.3c-9.9,0-18.3-3.6-25.2-10.7
		c-6.9-7.1-10.3-16.2-10.3-27.1c0-11.7,3.8-21.5,11.4-29.3c7.6-7.8,15.7-11.8,24.3-11.8c8.1,0,15.4,3.1,21.9,9.2
		c6.5,6.1,9.8,13.3,9.8,21.6c0,1.3-0.2,2.2-0.6,2.8c-0.4,0.6-2.7,0.9-6.9,0.9L138.6,96.6z"/>
	<path fill="#98669B" d="M236.1,107.8c0,7.9,0.5,13.5,1.6,16.9c1,3.4,3.3,6.2,6.7,8.3c3.4,2.2,9,3.3,16.6,3.3
		c10.9,0,19.7-2.6,26.5-7.7c6.8-5.1,12-12,15.8-20.5c3.8-8.6,5.7-17.6,5.7-27.3c0-14.2-4.3-27.1-13-38.7
		c-8.7-11.5-22.2-17.3-40.5-17.3c-8.1,0-12.9,0.3-14.2,0.8c-1.3,0.5-2,2.1-2,4.8c0,2.3-0.2,6.5-0.6,12.5c-0.6,8.7-1,15.6-1.2,20.5
		L236.6,88C236.2,99.5,236.1,106.1,236.1,107.8 M239.2,21.1l18.5-0.4c23.4,0,41.1,5.7,53,17c12,11.4,17.9,25.7,17.9,43
		c0,12.3-2.9,22.9-8.6,32c-5.7,9.1-12.9,15.9-21.5,20.5c-8.6,4.6-20.1,6.9-34.5,6.9c-3.2,0-7.3-0.2-12.3-0.5
		c-8.9-0.7-13.8-1.1-14.9-1.1c-19.6,0-31.2,0.2-34.6,0.6c-2,0-3-0.5-3-1.5c0-0.7,0.4-1.2,1.1-1.4c0.7-0.2,2.9-0.6,6.6-1
		c4.8-0.7,8.2-2.6,10.1-5.7c1.9-3.2,3.2-13,3.6-29.6l1.4-47.5c0-5.5-0.4-10.8-1.1-15.9c-0.7-5.1-1.9-8.4-3.5-9.9
		c-1.6-1.5-4.1-2.5-7.6-3c-2.5-0.4-3.8-1-3.8-2.1c0-1.3,0.6-1.9,1.9-1.9c1.2,0,4.9,0.3,11,0.8C225.2,20.9,231.9,21.1,239.2,21.1"/>
	<path fill="#98669B" d="M359.6,91.9c7.8,0.4,15.3,0.5,22.7,0.5l4.8-0.3c3.6-0.1,6.4-0.8,8.3-2.1c1.9-1.3,2.9-3.5,2.9-6.8
		c0-5-1.7-9.4-5.2-13.1c-3.4-3.7-7.5-5.6-12.2-5.6c-4.3,0-8.6,2.1-12.9,6.4C363.6,75.2,360.8,82.2,359.6,91.9 M359.6,96.6
		c-0.2,3-0.4,5.5-0.4,7.3c0,8.5,2.5,15.7,7.5,21.5c5,5.9,11.2,8.8,18.6,8.8c7.2,0,13.9-2.9,20.1-8.6c1.8-1.6,2.9-2.4,3.4-2.4
		c1,0,1.5,0.8,1.5,2.3c-2.3,4.2-6.2,7.7-11.7,10.6c-5.5,2.9-11.6,4.3-18.4,4.3c-9.9,0-18.3-3.6-25.2-10.7
		c-6.9-7.1-10.3-16.2-10.3-27.1c0-11.7,3.8-21.5,11.3-29.3c7.6-7.8,15.7-11.8,24.3-11.8c8.1,0,15.4,3.1,21.9,9.2
		c6.5,6.1,9.8,13.3,9.8,21.6c0,1.3-0.2,2.2-0.6,2.8c-0.4,0.6-2.7,0.9-6.9,0.9L359.6,96.6z"/>
	<path fill="#98669B" d="M427,102.3c0-11,3.5-20.5,10.5-28.7c7-8.2,15.6-12.3,25.7-12.3c6.5,0,12.8,1.6,18.8,4.8c6,3.2,9,7.2,9,12
		c0,1.9-0.6,3.5-1.7,4.9c-1.1,1.4-2.5,2.1-3.9,2.1c-3.3,0-5.9-2.7-7.7-8.1c-2.8-8.3-7.6-12.4-14.4-12.4c-6.8,0-12,3-15.6,8.8
		c-3.6,5.9-5.3,13.6-5.3,23.2c0,11.3,2.5,20.5,7.4,27.6c5,7.1,10.9,10.7,17.9,10.7c4.6,0,9.1-1.8,13.4-5.4c4.2-3.5,6.7-7.8,7.4-12.9
		c0.3-1.7,1-2.6,2-2.6c1.1,0,1.6,0.5,1.6,1.6c0,5.9-2.7,11.4-8.1,16.5c-5.4,5.1-12.7,7.7-21.8,7.7c-9.9,0-18.3-3.8-25-11.3
		C430.4,120.9,427,112.2,427,102.3"/>
	<path fill="#98669B" d="M518.9,100.5c0,10.3,2.4,18.8,7.1,25.6c4.8,6.8,10.6,10.2,17.6,10.2c6.4,0,12-3.2,16.9-9.6
		c4.9-6.4,7.3-14.9,7.3-25.4c0-9.4-2.3-17.8-7-25.2c-4.7-7.4-10.8-11.1-18.3-11.1c-6.9,0-12.6,3.4-17,10.1
		C521.2,81.8,518.9,90.3,518.9,100.5 M504.4,101c0-10.5,3.8-19.8,11.4-27.8c7.6-8,16.9-12,28-12c10.4,0,19.4,3.6,26.9,10.8
		c7.5,7.2,11.3,16.1,11.3,26.9c0,10.9-3.9,20.4-11.8,28.6c-7.9,8.2-17.1,12.3-27.6,12.3c-10.4,0-19.3-3.8-26.8-11.3
		C508.2,120.9,504.4,111.8,504.4,101"/>
	<path fill="#98669B" d="M615.5,81.8c3.8-6.7,7.8-11.7,12.1-15.1c4.3-3.4,8.8-5,13.5-5c3.3,0,6.1,1.2,8.5,3.5c2.4,2.4,3.6,5,3.6,8
		c0,5.7-2.4,8.5-7.3,8.5c-2.3,0-4.2-1.6-5.7-4.8c-1.9-4-4.5-6-7.6-6c-3,0-6.1,1.7-9.2,5c-3.2,3.4-5.3,7-6.4,11
		c-1.1,4-1.6,12.3-1.6,25c0,11.6,0.5,18.3,1.4,20c1,1.7,3.4,2.8,7.4,3.3c1.1,0.1,1.6,0.5,1.6,1.3c0,1.3-1.4,1.9-4.2,1.9h-28.6
		c-2,0-3.1-0.5-3.1-1.5c0-1,1.3-1.5,4-1.6c3.8-0.2,6.1-1.4,7-3.5c0.9-2.1,1.3-9.8,1.3-23.2c0-19.6-0.4-31.4-1.2-35.3
		c-0.8-4-3.8-6-9-6.3c-2.2-0.1-3.2-0.7-3.2-1.7c0-0.5,0.2-0.9,0.7-1.2c0.4-0.3,3.2-0.6,8.2-0.9l16.5-0.9
		C614.5,65.6,615,72.1,615.5,81.8"/>
	<path fill="#98669B" d="M224.5,44.9c0-0.3,0-0.6,0-0.9c-0.1-1.8-0.4-3.7-0.3-5.5c0-1.1,0.1-1.9-1-2.4c0,0-0.1-0.1-0.1-0.2
		c-0.6-0.8-1.2-1.6-1.7-2.5c-0.5-0.9-0.9-1.8-1.2-2.7c-0.3-0.9-0.3-1.9-0.4-2.9c-0.4-0.2-0.8-0.4-1.1-0.5c-0.6-0.1-1.2,0-1.7,0
		c-0.9,0-1.1,0.1-1,1.1c0.1,1,0.1,1.9,0.4,2.9c0.4,1.6,0.9,3.3,1.4,4.8c0.4,1.1,1,2,1.5,3c0.8,1.7,1.8,3.2,3.2,4.5
		c0.6,0.6,1.4,1,2,1.5C224.3,45,224.4,45,224.5,44.9 M231.3,134.2c0-0.6-0.2-1.1-0.7-1.5c-0.2-0.1-0.3-0.3-0.4-0.4
		c-0.4-0.7-1-1.2-1.7-1.5c-1.3-0.5-2.6-1-3.9-1.5c-0.4-0.2-0.9-0.4-1.3-0.4c-0.9-0.1-1.9,0-2.8-0.2c-1.9-0.4-3.4,0.2-5,1.3
		c0.6,0.7,1.2,1.3,1.7,2c1.2,1.8,2.5,3.4,4.1,4.8c0.8,0.7,1.6,1.5,2.7,1.7c0.3,0.1,0.5,0.4,0.8,0.6c0.4,0.1,0.8,0.3,1.3,0.5
		c0.2,0.1,0.4,0.1,0.5,0.1c0.7,0,1.5,0,2.3,0c1.3-0.1,2.1-0.9,2.2-2.3C231.2,136.5,231.3,135.4,231.3,134.2 M230.4,82.6
		c0-0.2-0.1-0.4-0.2-0.6c-0.6,0-1.2-0.1-1.9-0.1c0,0.1,0,0.2,0,0.3c0.1,0.4,1.5,1.1,1.8,0.9C230.3,83,230.4,82.7,230.4,82.6
		 M230.8,79.3c-0.1-0.4,0.4-0.9-0.1-1.3c-1.6-1.2-2.5-2.8-3.2-4.7c-0.6-1.6-1.3-3.2-2.3-4.6c-0.3-0.4-0.5-0.8-0.8-1.2
		c-1-2.1-2.1-4.3-3.1-6.4c-1.1-2.3-2.1-4.7-3.1-7c-0.1,0.1-0.1,0.3-0.2,0.4c-0.2,1.6-0.4,3.2-0.6,4.9c-0.2,1.8,0,3.6,0.5,5.4
		c0.2,0.9,0.4,1.8,0.6,2.7c0.2,0.9,0.3,2,0.7,2.8c0.4,0.8,0.8,1.6,0.8,2.5c0,0.2,0.2,0.3,0.2,0.5c0.5,0.8,1.1,1.5,1.5,2.4
		c0.5,1,1.1,1.6,2,2.2c2,1.1,4.1,1.8,6.3,1.9C230.4,79.6,230.9,79.4,230.8,79.3 M232.8,107.3c0.4-0.8,0.3-1.6,0.2-2.4
		c-0.2-1.5-0.7-2.7-1.8-3.7c-0.1-0.1-0.3-0.2-0.4-0.2c-0.8,0.3-1.7,0.4-2.3,0.9c-1,0.9-1.5,2.2-1.8,3.6c-0.6,2.6,0.7,3.6,2.7,3.8
		c0.5-0.1,1.1-0.2,1.6-0.4C231.7,108.5,232.4,108.1,232.8,107.3 M233.6,128.1c0.1-0.3,0.1-0.8-0.1-1c-1.1-1.3-2.3-2.4-3.4-3.7
		c-1.4-1.6-2.7-3.2-4-4.9c-0.7-1-1.3-2-2-3c-1.3-1.9-2.6-3.8-3.8-5.7c-0.6-0.9-1.2-1.9-1.9-2.8c-0.5-0.7-1.1-1.4-1.6-2.2
		c-0.5-0.8-1-1.5-1.6-2.3c-0.1-0.2-0.4-0.2-0.7-0.4c0,1.1-0.2,2.1-0.1,3c0.2,1.6,0.4,3.1,0.7,4.6c0.5,2.5,1.1,5,1.8,7.4
		c0.8,2.6,2.3,4.8,4.3,6.5c1.9,1.6,3.8,3.1,6.1,4.1c1.3,0.5,2.5,1.1,3.5,2.2c0.3,0.3,0.6,0.5,0.9,0.8c0.3,0.3,0.5,0.3,0.7-0.2
		C232.8,129.8,233.3,129,233.6,128.1 M232.3,60.8c-0.1-0.9,0.8-1.5,0.4-2.5c-0.3-0.8-0.6-1.4-1.3-1.6c-0.4-0.1-0.8-0.1-1.2-0.1
		c0,0,0,0,0,0.1c-0.3,0-0.7,0-1,0c-0.6,0.1-1.1,0.2-1.5,0.8c-0.7,1.2-0.8,2.5-0.1,3.7c0.4,0.7,1,1.2,1.9,1.3
		C230.8,62.7,231.4,61.6,232.3,60.8 M234.3,68.8c0.2-0.6,0.8-1.3,0.4-1.9c-0.5-0.9-1.1-1.7-2-2.2c-0.4-0.2-0.7-0.4-1-0.5
		c0.1-0.1,0.2-0.2,0.3-0.4c-0.5,0.2-1.1,0.4-1.6,0.6c-0.7,0.3-1.4,0.4-2,0.1c-0.5-0.2-1-0.5-1.4-0.8c-0.2-0.1-0.4-0.2-0.5-0.4
		c-0.5-1-1.1-1.9-1.3-3.1c-0.1-1-0.3-1.9,0.1-2.7c0.3-0.7,0.2-1.1-0.4-1.5c-1.3-1-2.6-1.9-4.1-2.5c-0.1,0-0.3,0-0.4,0
		c0,0.2,0,0.3,0,0.5c0.1,0.4,0.3,0.8,0.5,1.3c1,2.5,2,5.1,3.6,7.3c0.6,0.9,1.1,1.9,1.6,2.8c1.4,2.7,2.8,5.5,4.3,8.2
		c0.3,0.7,0.8,1.2,1.3,2c0.9-2.3,1.6-4.4,2.4-6.4C234.2,68.9,234.3,68.9,234.3,68.8 M236.5,121.7c0.1,0,0.1,0,0.2,0
		c-0.3-1.4-0.7-2.8-1-4.3c-0.4-2.1-1.7-3.9-2.6-5.8c-0.2-0.5-0.7-0.9-1.4-0.7c-0.4,0.1-0.9,0.1-1.4,0.3c-1.3,0.3-2.5,0.1-3.7-0.6
		c-0.8-0.5-1.5-1-1.9-2c-0.6-1.4-0.4-2.7-0.1-4.1c0.1-0.4,0.6-1.2-0.5-1c-0.1,0-0.1-0.1-0.2-0.2c-0.4-0.3-0.8-0.5-1.2-0.8
		c-0.9-0.4-1.7-0.8-2.6-1.2c-0.9-0.4-1.8-0.7-2.6-1c-0.2,0-0.6,0.3-0.6,0.5c0.1,0.5,0.2,1,0.5,1.4c1.1,1.6,2.2,3.2,3.4,4.8
		c1.2,1.6,2.4,3.1,3.5,4.7c0.8,1.1,1.6,2.3,2.4,3.5c1,1.5,2,3,3.3,4.2c0.6,0.5,1.1,1.1,1.6,1.7c0.9,1.2,1.8,2.5,2.7,3.7
		c0.3,0.4,0.6,0.4,0.9,0C236.1,124.1,236.8,123.1,236.5,121.7 M234.8,35.2c0.1-1.9,0-3.7-0.8-5.5c-0.7-1.5-1.3-3.1-2.1-4.7
		c-0.1-0.2-0.5-0.4-0.7-0.5c-0.8-0.1-1.4-0.5-1.8-1.1c-0.4-0.5-0.5-1.2-0.9-1.8c-0.1-0.2-0.2-0.4-0.3-0.5c-0.4-0.9-0.2-1.8,0.3-2.6
		c0.8-1.3,0.1-2.3-0.4-3.2c-0.7-1.2-1.6-2.3-2.5-3.4c-1-1.2-2.1-2.2-3.6-2.7c-0.5-0.2-0.7,0-0.8,0.4c-0.2,0.7-0.4,1.4-0.4,2.1
		c-0.1,1.3-0.1,2.7,0,4c0,1.3,0.1,2.7,0.2,4c0.1,1.4,0.2,2.8,0.4,4.2c0.2,1.4,0.5,2.9,0.8,4.3c0.4,1.5,0.9,2.9,1.3,4.4
		c0.2,0.7,0.7,1,1.4,0.9c0.6,0,1.2,0.1,1.8,0.3c0.6,0.1,1.2,0.3,1.9,0.5c-0.1-0.6-0.2-1.1-0.3-1.6c-0.6-1.9-1.2-3.7-1.8-5.6
		c-0.6-1.7-1.2-3.5-1.8-5.2c-0.2-0.6-0.4-1.2-0.5-1.8c0-0.4,0.2-1,0.5-1.2c0.4-0.3,0.9,0,1.3,0.5c0.1,0.1,0.1,0.2,0.2,0.2
		c0.2,0.5,0.5,1,0.8,1.5c0.2,0.3,0.3,0.6,0.4,1c0.6,1.9,1.2,3.8,1.7,5.7c0.7,2.4,1.4,4.7,1.6,7.3c0,0.4,0.1,0.8,0.2,1.1
		c0.7,1,1.4,1.9,2.5,2.4c0.3,0.2,0.6,0.2,0.9-0.3C234.6,37.4,234.8,36.3,234.8,35.2 M237.2,98.8c0.1-0.1,0.2-0.5,0.1-0.7
		c-0.4-0.5-0.7-1-1.1-1.5c-0.8-1.4-1.1-2.7-0.6-4.2c0.2-0.7,0.5-1.6-0.2-2.3c-0.1-0.1-0.3-0.3-0.4-0.4c-1.1-1.2-2.2-2.3-3.7-2.9
		c-0.2-0.1-0.3-0.3-0.5-0.5c-0.2-0.2-0.3-0.4-0.5-0.6c-0.9-0.5-1.8-0.9-2.7-1.4c-2.1-1.1-4.2-1.9-6.6-2c-1,0-1.9-0.1-2.9-0.1
		c-0.5,0-0.9-0.1-1.4-0.1c-0.4,0-0.6,0.2-0.6,0.6c0.1,0.8,0.2,1.6,0.4,2.4c0.3,1.3,0.7,2.6,1.2,3.9c0.9,2.2,1.8,4.5,2.9,6.6
		c1.2,2.4,3,4.2,5,5.9c0.1,0.1,0.5,0,0.6-0.1c0.3-0.2,0.5-0.6,0.7-0.7c1.3-0.7,2.5-1.4,3.8-2.1c-0.1-0.2-0.3-0.5-0.5-0.8
		c-1.5-1.9-3-3.7-4.5-5.6c-0.8-0.9-1.6-1.9-2.4-2.8c-0.5-0.5-1.2-0.7-1.7-1.2c-0.2-0.1-0.4-0.5-0.3-0.8c0-0.2,0.3-0.5,0.5-0.5
		c0.9,0,1.8-0.2,2.7,0.5c1.7,1.2,2.9,2.9,4.3,4.4c2.4,2.6,4.6,5.2,5.8,8.6C235.4,100,236.3,99.4,237.2,98.8 M235.6,20.8
		c0.1-1-0.2-2-1-2.7c-0.5-0.5-1-0.9-1.7-0.7c-1.1,0.3-2.3,0.4-2.6,2c-0.1,0.7,0.2,1.9,0.6,2.5c0.6,0.9,1.5,0.8,2.4,0.8
		c0.1,0,0.2,0,0.3,0C234.7,22.5,235.5,21.9,235.6,20.8 M236.7,65.4c0.1-0.1,0.2-0.2,0.3-0.4c-0.2-0.1-0.4-0.1-0.5-0.2
		c0.5-0.8,1.1-1.7,1.6-2.6c-1.3-0.3-2.4-0.7-3.5-0.9c-0.5-0.1-0.9,0-1.1,0.6c-0.1,0.5-0.2,0.8,0.3,1.1c0.4,0.4,0.9,0.8,1.1,1.4
		C235.3,65.4,235.9,65.5,236.7,65.4 M240.3,59c0.1-0.5,0.2-1.1,0.2-1.6c0-1.3-0.1-2.5-0.2-3.8c0-0.1,0-0.1,0-0.2
		c-0.8-3-1.8-5.9-3.7-8.3c-1-1.2-2.1-2.3-3.2-3.5c-0.7-0.7-1.5-1.4-2.2-2.1c-1.1-1-2.3-2.1-3.5-3c-0.3-0.2-0.7-0.2-1.1-0.2
		c-0.1,0-0.3,0.5-0.3,0.7c0.1,1.7,0.1,3.4,0.3,5.1c0.1,1.4,0.3,2.7,0.5,4.1c0.2,0.9,0.6,1.7,0.8,2.6c0.5,1.9,0.9,3.8,2.3,5.2
		c0.3,0.3,0.7,0.4,1,0.6c0.7,0.5,1.6,0.9,2.2,1.6c0.5,0.7,0.7,1.6,1.1,2.4c0.1,0.3,0.4,0.7,0.7,0.8c0.8,0.4,1.7,0.6,2.6,0.9
		c0.1,0,0.4-0.3,0.4-0.4c-0.4-1.7-0.6-3.4-1.6-4.8c-0.5-0.7-1-1.4-1.5-2.2c-1.2-1.7-2.4-3.5-3.5-5.2c-0.2-0.3-0.3-0.9-0.2-1.3
		c0-0.8,0.7-1.1,1.3-0.6c0.3,0.2,0.6,0.6,0.8,1c1.4,2.1,2.8,4.2,4.2,6.2c1,1.4,1.7,3,2.1,4.6c0.1,0.5,0.3,0.9,0.4,1.4H240.3z
		 M243.6,94.5c0.2-1.2,0.1-2.4-0.4-3.6c-0.3-0.6-1.5-1.4-2.1-1.4c-0.9,0-1.6,0.5-2.2,1c-0.9,0.9-1.8,1.9-1.7,3.3
		c-0.1,0-0.1,0-0.2,0.1c0.3,0.9,0.6,1.8,1.1,2.6c0.4,0.6,1.1,0.7,1.8,0.9c0.9,0.2,1.6,0,2.2-0.5C243,96.4,243.5,95.4,243.6,94.5
		 M242.7,26.8c0.1-1.3,0.2-2.5,0.1-3.8c0-1-0.3-2-0.5-3c0-0.1,0-0.2,0-0.3c-0.1-0.6-0.1-1.2-0.3-1.8c-0.3-0.9-0.6-1.9-1-2.8
		c-0.6-1.5-1.1-3-1.7-4.5c-0.6-1.4-1.4-2.8-2.1-4.1c-0.3-0.6-0.7-1.1-1.1-1.7c-0.3-0.4-0.5-0.3-0.7,0.1c-0.2,0.3-0.3,0.6-0.5,0.9
		c-1.2,2.4-2.6,4.7-3.2,7.3c-0.1,0.6-0.2,1.2-0.9,1.5c-0.1,0.1-0.2,0.4-0.1,0.6c0,0.1,0.3,0.3,0.4,0.3c0.9,0.1,1.8,0.1,2.8,0.2
		c1.1,0.1,2.1,0.4,2.7,1.5c0.3,0.5,0.5,1,0.8,1.4c0.2,0.5,0.3,0.9,0.4,1.4c0.3,2-0.9,3.7-3,4.4c0.2,0.6,0.3,1.2,0.5,1.7
		c0.3,1,0.6,1.9,0.9,2.9c0.3,0.9,0.4,1.9,0.7,2.9c0,0.2,0.2,0.5,0.4,0.5c0.2,0,0.4-0.1,0.5-0.3c0.5-0.6,1-1.3,1.6-1.9
		c0.9-0.9,1.9-1.7,2.8-2.6C242.4,27.4,242.7,27.1,242.7,26.8 M248.8,116.5c-0.1-0.1-0.1-0.2-0.2-0.3c-0.7,0.3-1.5,0.5-2.2,1
		c-1.1,0.7-2.2,1.5-3.3,2.4c-0.8,0.7-1.7,1.3-2.4,2.1c-0.8,0.9-1.4,1.9-2,2.9c-1.3,2.2-2.8,4.4-3.6,7c-0.6,1.8-1.3,3.6-1,5.8
		c0.3-0.2,0.5-0.4,0.7-0.6c0.8-1,1.6-2,2.5-3c0.3-0.3,0.6-0.6,0.8-1c1.1-1.7,2.2-3.4,3.3-5.1c1.3-2.1,2.6-4.1,3.9-6.2
		c0.8-1.3,1.4-2.7,2.6-3.7C248.2,117.5,248.5,116.9,248.8,116.5 M247.1,39.5c0.3-1.1,0.4-2.2-0.2-3.2c-0.1-0.2-0.4-0.5-0.6-0.5
		c-2.2-0.5-4.8,0.5-4.5,3.5c0,0.2,0,0.5,0,0.7c0.2,1.2,0.9,2.3,2.3,2.3C245.6,42.1,246.6,41.1,247.1,39.5 M248.3,26.3
		c0-0.4-0.2-0.7-0.6-0.4c-1.1,0.9-2.6,1.2-3.6,2.4c-0.4,0.4-0.9,0.7-1.4,1c-0.4,0.3-1,0.5-1.3,0.9c-1,1.1-1.9,2.2-2.8,3.3
		c-0.6,0.7-1.1,1.5-1.5,2.3c-0.2,0.4-0.2,0.9-0.4,1.4c-0.4,1-0.9,1.9-1.3,2.9c-0.1,0.2-0.1,0.6,0.1,0.8c0.3,0.4,0.7,0.7,1,1.1
		c1.6,1.9,3,3.8,4.2,6c0.4,0.7,0.9,0.9,1.4,0.2c0.5-0.5,1-1.2,1.3-1.8c0.4-0.7,0.7-1.4,1-2.2c-0.1-0.1-0.1-0.2-0.2-0.3
		c-0.5,0-1,0-1.5-0.1c-1.6-0.4-2.2-1.8-2.7-3.2c-0.6-1.7,0.1-3.1,0.9-4.5c0.4-0.6,0.9-1.2,1.4-1.7c0.5-0.4,1.1-0.9,1.8-1
		c0.9-0.1,1.9,0.2,2.8,0.2c0.3,0,0.7-0.2,0.8-0.4c0.2-0.5,0.4-1,0.5-1.5C248.1,29.9,248.2,28.1,248.3,26.3 M251.4,120.7
		c0.2-1.4,0.4-2.8,0.5-4.2c-0.1-0.1-0.2-0.1-0.2-0.1c-0.2,0.1-0.5,0.2-0.6,0.4c-0.3,0.4-0.6,0.8-0.9,1.1c-1.4,1.1-2.2,2.7-3.2,4.2
		c-1.3,1.9-2.5,3.8-3.7,5.8c-1.1,1.7-2.1,3.4-3.3,5.1c-1,1.5-2.1,2.9-3.2,4.4c-0.4,0.5-1,0.9-0.8,1.7c0.2-0.1,0.4-0.1,0.5-0.1
		c1.4-0.9,2.9-1.8,4.2-2.8c1.1-0.8,2-1.8,3-2.8c1-1,2-2,2.8-3.1c1.1-1.5,2.1-3.1,2.9-4.8C250.2,123.8,251.2,122.4,251.4,120.7
		 M251.5,98c0.1-0.3,0-0.7-0.1-1.1c-0.2,0.1-0.3,0.2-0.5,0.3c-0.3-0.7,0.4-0.5,0.7-0.8c-0.3-0.1-0.4-0.3-0.6-0.3
		c-0.6,0-1.3-0.1-1.9,0c-1.5,0.3-3,0.7-4.5,1c-0.2,0-0.4,0.1-0.4,0.2c0,0.6-0.6,0.5-0.9,0.7c-0.2,0.1-0.3,0.3-0.4,0.5
		c-0.1,0.3-0.4,0.4-0.7,0.5c-0.6,0.2-1.3,0.4-1.9,0.3c-0.7-0.1-1.2,0.2-1.8,0.5c-0.3,0.2-0.5,0.4-0.8,0.6c-0.9,0.6-1.8,1.2-2.6,1.9
		c-0.2,0.1-0.3,0.5-0.2,0.7c0.1,0.7,0.5,1.4,0.5,2c-0.1,1.1-0.4,2.1-0.6,3.1c-0.1,0.4-0.3,0.9-0.2,1.2c0.3,0.7,0.8,1.3,1.2,2
		c0.9-1.6,1.6-3.2,2.5-4.7c0.7-1.2,1.8-2.2,2.6-3.3c0.5-0.7,1.2-1,1.9-1.1c0.3,0,0.7,0.1,0.9,0.4c0.4,0.5,0,0.9-0.4,1.3
		c-0.6,0.5-1.2,1.1-1.7,1.6c-1.7,2-2.7,4.4-3.7,6.9c-0.4,1-0.7,2.1-0.5,3.2c0.2,1.1,0.6,2.1,0.9,3.3c0.2-0.1,0.5-0.1,0.7-0.3
		c0.6-0.7,1.2-1.4,1.8-2.1c0.5-0.6,0.9-1.3,1.4-1.8c0.4-0.5,1.1-0.7,1.5-1.3c0.8-1.3,1.5-2.7,2.3-4c0.6-1.1,1.3-2.1,1.8-3.2
		c0.7-1.3,1.3-2.6,1.9-3.9C250.3,100.9,250.9,99.5,251.5,98 M250.6,55.3c0-1-0.3-1.2-1.3-0.9c-1.3,0.4-2.3,1.4-3.2,2.3
		c-1,1-2.3,1.8-3.2,3c-0.8,1.2-1.9,2.2-2.8,3.3c-0.7,0.8-1.2,1.8-1.9,2.7c-0.9,1.2-1.7,2.5-2.2,3.9c-0.7,1.8-1.6,3.6-2,5.5
		c-0.2,1-0.6,1.9-0.8,2.9c-0.2,1.6-0.4,3.2-0.5,4.8c-0.1,1.2,0,2.3,1,3.1c0.4,0.3,0.8,0.5,1.3,0.9c0.1-0.4,0.1-0.7,0.2-1
		c0.2-1.4,0.3-2.8,0.6-4.2c0.6-3,2-5.8,3.3-8.5c1.4-3,3-5.8,4.5-8.7c0.2-0.3,0.4-0.6,0.6-0.8c0.3-0.3,0.6-0.5,1-0.2
		c0.4,0.3,0.3,0.7,0.2,1c-0.4,0.8-0.8,1.6-1.1,2.4c-1.4,3.1-2.9,6.1-4.2,9.2c-0.6,1.3-1.2,2.5-1.5,3.8c-0.5,1.8-0.8,3.7-1.1,5.6
		c-0.2,1.3-0.3,2.6-0.4,4c0.8-0.1,1.1-0.4,0.8-1.1c-0.1-0.2-0.1-0.5,0-0.7c0.1-0.7,0.3-1.4,0.5-2c0.4-1.1,0.7-2.2,1.4-3.1
		c1.2-1.5,2.6-2.8,4-4.2c0.3-0.3,0.6-0.5,0.6-1.1c0-0.4,0.1-0.8,0.3-1.1c0.3-0.5,0.7-0.9,1.1-1.4c0.6-0.9,1.1-1.8,1.6-2.8
		c0.5-0.8,0.9-1.6,1.3-2.4c0.3-0.7,0.4-1.6,0.6-2.4c0.5-1.9,1-3.8,1.3-5.8C250.6,59.3,250.5,57.3,250.6,55.3 M252.6,78.6
		c0.3-1.6,0.3-1.6-1.1-1.6c-0.1,0-0.2,0-0.3,0.1c-1.6,0.5-3.2,0.6-4.6,1.5c-1.1,0.8-2.3,1.5-3.2,2.5c-1,1-1.8,2.2-2.5,3.4
		c-0.5,0.8-0.9,1.7-0.8,2.5c1,0.3,1.9,0.6,2.8,0.9c0.3-0.6,0.6-1.4,1-2c0.9-1.4,1.8-2.8,2.7-4.2c0.4-0.7,1-0.8,1.4-0.5
		c0.6,0.5,0.3,1,0,1.5c-0.4,0.7-0.9,1.4-1.2,2.1c-0.7,1.6-1.4,3.2-2,4.8c-0.1,0.2,0,0.5,0.1,0.8c0.5,0.9,0.5,1.9,0.5,2.8
		c0,0.5,0,0.9,0,1.6c0.3-0.2,0.5-0.4,0.7-0.5c0.4-0.4,0.8-0.9,1.1-1.4c0.6-0.9,1.2-1.7,1.7-2.6c0.8-1.6,1.5-3.2,2.2-4.8
		c0.4-1.1,0.7-2.2,0.9-3.3C252.3,81,252.4,79.8,252.6,78.6 M252.3,53.5c0.8-1.4,2.3-8.3,2.1-9.3c-0.1,0-0.2-0.1-0.3,0
		c-2.5,0.7-4.9,1.4-7.3,2.1c-1.2,0.4-1.9,1.3-2.6,2.2c-0.6,0.8-0.7,2.3-2.5,1.7c0.2,0.8,0.4,1.4,0.4,2c0.2,1.4,0.3,2.7,0.4,4.1
		c0,0.4,0.2,0.6,0.6,0.3c0.3-0.2,0.5-0.4,0.7-0.6c0.8-0.6,1.5-1.1,2.2-1.8c0.5-0.4,0.8-1,1.2-1.4c0.6-0.6,1-1.5,2-1.7
		c0.9-0.2,1.7,0.1,2.5,0.4c0.6,0.2,0.8,0.6,0.4,1.2C252.2,52.9,252.3,53.1,252.3,53.5 M257.1,43.1c0.1,2.8,0.1,5.7-1.1,8.3
		c-0.7,1.7-1.9,3.2-2.7,4.8c-0.3,0.6-0.3,1.3-0.4,2c-0.2,1.7-0.4,3.4-0.7,5c-0.2,1.5-0.5,3-0.8,4.4c-0.1,0.4-0.3,0.8-0.5,1.2
		c-0.3,0.6-0.5,1.3-0.8,1.9c-0.1,0.3-0.2,0.6-0.4,0.8c-0.7,1.3-1.5,2.5-2.2,3.8c-0.1,0.1,0,0.3,0,0.6c0.8-0.2,1.5-0.4,2.2-0.6
		c0.9-0.3,1.8-0.6,2.6-0.9c0.9-0.3,1.7,0,2.5,0.4c0.3,0.1,0.5,0.7,0.4,1c0,0.7-0.2,1.3-0.3,2c-0.1,0.4-0.2,0.9-0.3,1.3
		c-0.2,1.3-0.3,2.7-0.5,4c-0.5,3.2-2,6-3.6,8.8c-0.4,0.7-0.7,1.4-1.2,2.4c1.1-0.1,1.9-0.2,2.7-0.2c0.7,0,1.3-0.1,1.9,0.3
		c0.8,0.6,1.1,1.1,0.8,1.9c-0.8,2.4-1.5,4.8-2.9,6.8c-0.2,0.3-0.2,0.6-0.3,0.9c-0.6,1.4-1.2,2.8-2.2,4c-0.6,0.8-1,1.7-1.5,2.6
		c-0.6,1-1.2,2-1.8,3c-0.1,0.2-0.1,0.5-0.2,0.9c0.5-0.2,0.8-0.3,1.1-0.5c1.5-0.8,3-1.5,4.5-2.3c0.8-0.4,2.4,0.2,2.5,0.9
		c0.1,1,0.1,2.1,0.2,3.2c0,0.6,0,1.3,0.1,1.9c0.1,1.8-0.3,3.5-1,5.1c-0.8,1.9-1.5,3.8-2.6,5.6c-1.2,2-2.5,4-4.1,5.7
		c-1.6,1.8-3.5,3.3-5.3,4.7c-1.4,1.1-2.9,2.2-4.6,2.7c-1.3,0.4-2.6,0.9-4,0.5c-0.2-0.1-0.4-0.2-0.6-0.2c-0.2-0.1-0.3-0.2-0.5-0.2
		c-0.8,0.2-1.6,0.5-2.4,0.6c-0.9,0.1-1.9,0.2-2.8,0c-1.3-0.3-2.6-0.7-3.9-1.3c-0.9-0.4-1.8-1.1-2.5-1.8c-1.6-1.7-3.1-3.4-4.7-5.2
		c-0.7-0.8-1.5-1.6-2.2-2.4c-0.4-0.4-0.8-0.7-1.1-1.1c-0.6-0.6-0.4-1.7,0.5-2c0.8-0.3,1.7-0.6,2.3-1.3c0.2-0.2,0.6-0.2,1-0.2
		c1.5-0.1,2.9-0.2,4.4-0.3c0.1,0,0.2-0.1,0.4-0.1c-1.7-1.1-2.9-2.5-4-4.1c-1.9-2.8-2.8-5.9-3.6-9.1c-1-3.8-1.3-7.6-1.2-11.5
		c0-0.7,0.1-1.3-0.2-1.9c-0.5-1.1,0.8-2.4,1.7-2.5c1.8-0.1,3.5,0.4,5.1,0.9c0.4,0.1,0.8,0.2,1.2,0.3c0-0.1,0.1-0.1,0.1-0.2
		c-0.1-0.3-0.2-0.7-0.4-1c-0.9-1.5-2-3-2.7-4.6c-0.9-1.9-1.4-3.9-2.1-5.9c-0.5-1.6-0.8-3.2-1.2-4.7c-0.3-1.2,0.6-2.4,1.8-2.3
		c1.7,0.1,3.3,0.1,5,0.2c1.2,0.1,2.5,0.5,3.7,0.7c0.1,0,0.1,0,0.4-0.1c-0.4-0.4-0.8-0.8-1.1-1c-1.4-0.9-2.3-2.1-3.2-3.4
		c-0.9-1.3-1.8-2.6-2.6-4c-0.3-0.5-0.6-1.2-0.4-1.9c0-0.1,0-0.1,0-0.2c-0.4-1.2-0.5-2.6-0.9-3.8c-0.4-1.4-0.4-2.9-0.7-4.4
		c-0.4-2.2,0.3-4.3,0.2-6.5c0-0.5,0.3-1,0.4-1.5c0.1-0.6,0-1.3-0.1-1.9c-0.1-0.6,0-1.8,0.4-2c0.6-0.3,1.1-0.5,1.8-0.1
		c1,0.6,2.1,1,3.1,1.5c1.9,1.1,3.7,2.2,5.6,3.3c0.3,0.1,0.8,0.2,1,0c0.2-0.3,0.1-0.6-0.2-1c-0.6-1-1-2.2-1.5-3.4
		c-0.2-0.4-0.2-0.9-0.4-1.3c-0.1-0.2-0.4-0.4-0.5-0.4c-1.5,0-2.6-0.9-3.5-2c-0.7-0.8-1.3-1.7-2-2.6c-0.8-1-1.6-2-2.3-3.1
		c-0.7-1.1-1.4-2.1-1.7-3.4c-0.6-2-1.4-3.9-2-5.9c-0.4-1.3-0.6-2.7-0.9-4c-0.1-0.3-0.2-0.7-0.3-1c-0.2-0.4-0.3-0.7,0.2-1
		c0.5-0.3,0.8-0.8,1.3-1c0.9-0.4,1.8-0.2,2.7,0.1c0.7,0.2,1.4,0.4,2.1,0.6c0.4,0.1,0.6,0,0.6-0.5c-0.1-0.5-0.3-1-0.3-1.5
		c-0.1-1.1-0.3-2.1-0.4-3.2c-0.2-2.1-0.5-4.2-0.6-6.3c0-1.5,0.3-2.9,0.4-4.4c0.1-0.9,0.1-1.8,0.1-2.7c0-0.8,0.5-1.5,1.2-1.8
		c1.1-0.3,2.1-0.3,3,0.7c1,1,2.2,1.9,3.2,2.9c1,1,2,2.1,3,3.1c0.1,0.1,0.3,0.2,0.5,0.3c0.1-0.2,0.2-0.3,0.2-0.5
		c0.6-1.4,1.1-2.7,1.7-4.1c0.4-0.9,0.8-1.7,1.3-2.6c0.2-0.3,0.3-0.6,0.5-0.9c0.1-0.1,0.2-0.2,0.2-0.3c0.2-0.7,0.4-1.4,0.7-2
		c0.3-0.8,1.5-1.1,2.3-1c1,0.3,1.2,1.1,1.5,1.9c0.7,1.4,1.4,2.7,2.1,4.1c0.8,1.7,2,3.3,2.3,5.2c0.1,0.9,0.6,1.8,1,2.7
		c0.3,1,0.7,1.9,1,2.9c0.3,1,0.7,2.1,0.9,3.1c0.2,1.1,0.2,2.3,0.3,3.4c0,0.3,0.1,0.5,0.2,0.9c0.8-0.7,1.5-1.3,2.2-1.9
		c0.1-0.1,0.1-0.1,0.2-0.1c0.9-0.1,1.9-0.2,3-0.3c-0.1,0.7-0.2,1.2-0.1,1.8c0.4,3.1-0.4,5.9-1.4,8.8c-0.3,1-0.3,2,0,3
		c0.3,1,0.6,2,0,3c-0.6,1-1.3,1.9-2,2.9c-0.2,0.3-0.3,0.6-0.5,0.9c1.3-0.4,2.5-0.8,3.7-1c0.8-0.2,1.7,0,2.5-0.2
		c1.2-0.4,2.4-0.2,3.5,0.3C256.7,42.5,257.1,42.9,257.1,43.1"/>
	<path fill="#FFFFFF" d="M254.4,44.2c0.2,1-1.3,8-2.1,9.3c0-0.3-0.1-0.6,0-0.7c0.4-0.6,0.1-1-0.4-1.2c-0.8-0.3-1.5-0.6-2.5-0.4
		c-1.1,0.2-1.4,1.1-2,1.7c-0.4,0.4-0.8,1-1.2,1.4c-0.7,0.6-1.5,1.2-2.2,1.8c-0.3,0.2-0.5,0.4-0.7,0.6c-0.4,0.2-0.6,0.1-0.6-0.3
		c-0.1-1.4-0.2-2.7-0.4-4.1c-0.1-0.6-0.3-1.2-0.4-2c1.7,0.5,1.9-0.9,2.5-1.7c0.7-1,1.4-1.9,2.6-2.2c2.4-0.7,4.9-1.4,7.3-2.1
		C254.2,44.1,254.3,44.1,254.4,44.2"/>
	<path fill="#FFFFFF" d="M251.5,77c1.4,0,1.4,0,1.1,1.6c-0.2,1.2-0.2,2.5-0.5,3.7c-0.2,1.1-0.5,2.3-0.9,3.3
		c-0.6,1.6-1.4,3.2-2.2,4.8c-0.5,0.9-1.1,1.8-1.7,2.6c-0.3,0.5-0.7,0.9-1.1,1.4c-0.1,0.2-0.4,0.3-0.7,0.5c0-0.7,0-1.1,0-1.6
		c0-1,0-1.9-0.5-2.8c-0.1-0.2-0.2-0.6-0.1-0.8c0.6-1.6,1.3-3.2,2-4.8c0.3-0.7,0.8-1.4,1.2-2.1c0.3-0.5,0.6-1,0-1.5
		c-0.4-0.3-1-0.2-1.4,0.5c-0.9,1.4-1.8,2.8-2.7,4.2c-0.4,0.6-0.7,1.4-1,2c-1-0.3-1.8-0.6-2.8-0.9c-0.2-0.8,0.3-1.7,0.8-2.5
		c0.7-1.2,1.5-2.4,2.5-3.4c0.9-1,2.1-1.8,3.2-2.5c1.4-0.9,3-1.1,4.6-1.5C251.3,77,251.4,77,251.5,77"/>
	<path fill="#FFFFFF" d="M249.3,54.3c0.9-0.3,1.3-0.1,1.3,0.9c0,2,0,4-0.2,6c-0.3,1.9-0.8,3.8-1.3,5.8c-0.2,0.8-0.3,1.6-0.6,2.4
		c-0.3,0.8-0.8,1.6-1.3,2.4c-0.5,0.9-1.1,1.9-1.6,2.8c-0.3,0.5-0.8,0.9-1.1,1.4c-0.2,0.3-0.3,0.8-0.3,1.1c0,0.5-0.3,0.7-0.6,1.1
		c-1.4,1.4-2.8,2.7-4,4.2c-0.7,0.9-1,2-1.4,3.1c-0.2,0.6-0.4,1.3-0.5,2c0,0.2,0,0.5,0,0.7c0.3,0.7,0,1-0.8,1.1
		c0.1-1.4,0.2-2.7,0.4-4c0.3-1.9,0.6-3.8,1.1-5.6c0.4-1.3,0.9-2.6,1.5-3.8c1.4-3.1,2.8-6.2,4.2-9.2c0.4-0.8,0.8-1.6,1.1-2.4
		c0.2-0.4,0.2-0.7-0.2-1c-0.4-0.3-0.7-0.1-1,0.2c-0.2,0.3-0.5,0.5-0.6,0.8c-1.5,2.9-3.1,5.7-4.5,8.7c-1.3,2.8-2.7,5.5-3.3,8.5
		c-0.3,1.4-0.4,2.8-0.6,4.2c0,0.3-0.1,0.6-0.2,1c-0.5-0.3-0.9-0.6-1.3-0.9c-1-0.8-1.1-1.9-1-3.1c0.1-1.6,0.2-3.2,0.5-4.8
		c0.1-1,0.6-1.9,0.8-2.9c0.4-2,1.3-3.7,2-5.5c0.6-1.4,1.3-2.7,2.2-3.9c0.7-0.9,1.2-1.9,1.9-2.7c0.9-1.1,2-2.1,2.8-3.3
		c0.9-1.3,2.2-2,3.2-3C247,55.7,248,54.7,249.3,54.3"/>
	<path fill="#FFFFFF" d="M251.4,97c0,0.4,0.2,0.8,0.1,1.1c-0.6,1.5-1.2,2.9-1.8,4.3c-0.6,1.3-1.2,2.6-1.9,3.9
		c-0.6,1.1-1.2,2.1-1.8,3.2c-0.7,1.3-1.4,2.7-2.3,4c-0.3,0.5-1,0.8-1.5,1.3c-0.5,0.6-0.9,1.2-1.4,1.8c-0.6,0.7-1.1,1.4-1.8,2.1
		c-0.2,0.2-0.5,0.2-0.7,0.3c-0.3-1.2-0.6-2.2-0.9-3.3c-0.2-1.1,0.1-2.2,0.5-3.2c1-2.4,2-4.8,3.7-6.9c0.5-0.6,1.1-1.1,1.7-1.6
		c0.4-0.4,0.7-0.8,0.4-1.3c-0.2-0.2-0.6-0.4-0.9-0.4c-0.8,0.1-1.4,0.5-1.9,1.1c-0.9,1.1-1.9,2.1-2.6,3.3c-0.9,1.4-1.7,3-2.5,4.7
		c-0.4-0.7-0.9-1.3-1.2-2c-0.1-0.3,0.1-0.8,0.2-1.2c0.2-1,0.6-2.1,0.6-3.1c0-0.7-0.3-1.3-0.5-2c0-0.2,0.1-0.6,0.2-0.7
		c0.8-0.7,1.7-1.2,2.6-1.9c0.3-0.2,0.5-0.4,0.8-0.6c0.5-0.3,1-0.6,1.8-0.5c0.6,0.1,1.3-0.2,1.9-0.3c0.3-0.1,0.5-0.2,0.7-0.5
		c0.1-0.2,0.2-0.4,0.4-0.5c0.3-0.2,0.8-0.1,0.9-0.7c0-0.1,0.3-0.2,0.4-0.2c1.5-0.4,3-0.7,4.5-1c0.6-0.1,1.2-0.1,1.9,0
		c0.2,0,0.3,0.2,0.6,0.3c-0.4,0.3-1.1,0-0.7,0.8C251,97.2,251.2,97.1,251.4,97"/>
	<path fill="#FFFFFF" d="M251.9,116.5c-0.2,1.4-0.4,2.8-0.5,4.2c-0.2,1.7-1.2,3.1-2,4.6c-0.9,1.7-1.8,3.3-2.9,4.8
		c-0.8,1.2-1.8,2.1-2.8,3.1c-1,1-1.9,2-3,2.8c-1.3,1-2.8,1.9-4.2,2.8c-0.1,0.1-0.3,0.1-0.5,0.1c-0.1-0.8,0.5-1.2,0.8-1.7
		c1-1.5,2.2-2.9,3.2-4.4c1.1-1.7,2.2-3.4,3.3-5.1c1.2-1.9,2.4-3.9,3.7-5.8c1-1.4,1.7-3.1,3.2-4.2c0.4-0.3,0.6-0.8,0.9-1.1
		c0.2-0.2,0.4-0.2,0.6-0.4C251.8,116.4,251.8,116.4,251.9,116.5"/>
	<path fill="#FFFFFF" d="M247.7,25.9c0.4-0.3,0.6-0.1,0.6,0.4c-0.1,1.8-0.2,3.6-0.4,5.4c0,0.5-0.2,1.1-0.5,1.5
		c-0.1,0.2-0.5,0.4-0.8,0.4c-0.9,0-1.9-0.3-2.8-0.2c-0.6,0.1-1.3,0.5-1.8,1c-0.5,0.5-1,1.1-1.4,1.7c-0.8,1.4-1.6,2.8-0.9,4.5
		c0.5,1.4,1.1,2.8,2.7,3.2c0.5,0.1,1,0.1,1.5,0.1c0.1,0.1,0.1,0.2,0.2,0.3c-0.3,0.7-0.6,1.5-1,2.2c-0.4,0.6-0.8,1.2-1.3,1.8
		c-0.6,0.6-1,0.5-1.4-0.2c-1.2-2.2-2.6-4.1-4.2-6c-0.3-0.4-0.7-0.7-1-1.1c-0.1-0.2-0.2-0.6-0.1-0.8c0.4-1,0.9-1.9,1.3-2.9
		c0.2-0.4,0.2-1,0.4-1.4c0.4-0.8,1-1.6,1.5-2.3c0.9-1.1,1.8-2.3,2.8-3.3c0.4-0.4,0.9-0.6,1.3-0.9c0.5-0.3,1-0.6,1.4-1
		C245,27.1,246.5,26.8,247.7,25.9"/>
	<path fill="#ED1D24" d="M246.9,36.2c0.6,1,0.5,2.1,0.2,3.2c-0.4,1.7-1.4,2.7-3,2.7c-1.5,0-2.1-1.1-2.3-2.3c0-0.2,0-0.5,0-0.7
		c-0.3-2.9,2.3-4,4.5-3.5C246.5,35.8,246.8,36,246.9,36.2"/>
	<path fill="#FFFFFF" d="M248.6,116.2c0.1,0.1,0.1,0.2,0.2,0.3c-0.3,0.4-0.6,1-1,1.3c-1.2,1-1.8,2.4-2.6,3.7
		c-1.3,2.1-2.6,4.1-3.9,6.2c-1.1,1.7-2.2,3.4-3.3,5.1c-0.2,0.3-0.5,0.6-0.8,1c-0.8,1-1.6,2-2.5,3c-0.2,0.2-0.4,0.4-0.7,0.6
		c-0.3-2.2,0.4-3.9,1-5.8c0.8-2.5,2.3-4.7,3.6-7c0.6-1,1.3-2,2.1-2.9c0.7-0.8,1.5-1.5,2.4-2.1c1.1-0.8,2.2-1.7,3.3-2.4
		C247.1,116.7,247.9,116.5,248.6,116.2"/>
	<path fill="#FFFFFF" d="M242.8,23.1c0.1,1.3,0,2.5-0.1,3.8c0,0.3-0.3,0.6-0.5,0.8c-0.9,0.9-1.9,1.7-2.8,2.6c-0.6,0.6-1,1.3-1.6,1.9
		c-0.1,0.2-0.4,0.3-0.5,0.3c-0.2,0-0.3-0.3-0.4-0.5c-0.3-0.9-0.4-1.9-0.7-2.9c-0.3-1-0.6-1.9-0.9-2.9c-0.2-0.6-0.3-1.1-0.5-1.7
		c2.1-0.6,3.3-2.4,3-4.4l4.5-0.3c0,0.1,0,0.2,0,0.3C242.5,21.1,242.7,22.1,242.8,23.1"/>
	<path fill="#FFFFFF" d="M242.3,19.8l-4.5,0.3c-0.1-0.4-0.2-0.9-0.4-1.4c-0.2-0.5-0.5-1-0.8-1.4c-0.6-1.1-1.6-1.4-2.7-1.5
		c-0.9-0.1-1.8-0.1-2.8-0.2c-0.2,0-0.4-0.2-0.4-0.3c0-0.2,0-0.5,0.1-0.6c0.6-0.3,0.7-0.9,0.9-1.5c0.6-2.7,2-5,3.2-7.3
		c0.1-0.3,0.3-0.6,0.5-0.9c0.2-0.4,0.5-0.4,0.7-0.1c0.4,0.6,0.8,1.1,1.1,1.7c0.7,1.4,1.5,2.7,2.1,4.1c0.6,1.5,1.1,3,1.7,4.5
		c0.3,0.9,0.7,1.8,1,2.8C242.2,18.6,242.2,19.2,242.3,19.8"/>
	<path fill="#ED1D24" d="M243.2,90.9c0.5,1.2,0.6,2.4,0.4,3.6c-0.1,0.9-0.6,1.8-1.4,2.5c-0.7,0.5-1.4,0.7-2.2,0.5
		c-0.7-0.1-1.5-0.3-1.8-0.9c-0.5-0.8-0.7-1.7-1.1-2.6c0.1,0,0.1-0.1,0.2-0.1c-0.2-1.5,0.7-2.4,1.7-3.3c0.6-0.6,1.3-1,2.2-1
		C241.7,89.6,243,90.3,243.2,90.9"/>
	<path fill="#FFFFFF" d="M240.5,57.4c0,0.5-0.1,1.1-0.2,1.6h-0.1c-0.1-0.4-0.3-0.9-0.4-1.4c-0.4-1.7-1.1-3.2-2.1-4.6
		c-1.4-2.1-2.8-4.2-4.2-6.2c-0.2-0.4-0.5-0.7-0.8-1c-0.6-0.5-1.3-0.2-1.3,0.6c0,0.4,0,0.9,0.3,1.3c1.1,1.8,2.3,3.5,3.5,5.2
		c0.5,0.7,1,1.4,1.5,2.2c1,1.4,1.2,3.2,1.6,4.8c0,0.1-0.3,0.4-0.4,0.4c-0.9-0.3-1.7-0.5-2.6-0.9c-0.3-0.1-0.6-0.5-0.7-0.8
		c-0.4-0.8-0.6-1.8-1.1-2.4c-0.6-0.7-1.5-1.1-2.2-1.6c-0.3-0.2-0.7-0.4-1-0.6c-1.4-1.4-1.9-3.3-2.3-5.2c-0.2-0.9-0.6-1.7-0.8-2.6
		c-0.2-1.4-0.4-2.7-0.5-4.1c-0.1-1.7-0.2-3.4-0.3-5.1c0-0.2,0.2-0.7,0.3-0.7c0.3-0.1,0.8,0,1.1,0.2c1.2,1,2.3,2,3.5,3
		c0.8,0.7,1.5,1.4,2.2,2.1c1.1,1.1,2.2,2.2,3.2,3.5c1.9,2.4,2.9,5.3,3.7,8.3c0,0.1,0,0.1,0,0.2C240.3,54.9,240.4,56.1,240.5,57.4"/>
	<path fill="#FFFFFF" d="M237,65.1c-0.1,0.1-0.2,0.2-0.3,0.4c-0.8,0.1-1.4,0-1.8-0.9c-0.2-0.5-0.6-1-1.1-1.4
		c-0.4-0.4-0.4-0.7-0.3-1.1c0.2-0.6,0.6-0.8,1.1-0.6c1.1,0.3,2.2,0.6,3.5,0.9c-0.6,0.9-1.1,1.8-1.6,2.6
		C236.6,64.9,236.8,65,237,65.1"/>
	<path fill="#ED1D24" d="M234.6,18c0.8,0.7,1,1.7,1,2.7c-0.1,1.1-0.9,1.8-2.1,1.9c-0.1,0-0.2,0-0.3,0c-0.9,0-1.7,0.1-2.4-0.8
		c-0.4-0.5-0.7-1.8-0.6-2.5c0.3-1.6,1.5-1.7,2.6-2C233.6,17.2,234.2,17.6,234.6,18"/>
	<path fill="#FFFFFF" d="M237.2,98.1c0.1,0.1,0.1,0.6-0.1,0.7c-0.8,0.6-1.7,1.2-2.7,1.9c-1.2-3.5-3.5-6.1-5.8-8.6
		c-1.4-1.5-2.7-3.2-4.3-4.4c-0.9-0.6-1.8-0.5-2.7-0.5c-0.2,0-0.5,0.3-0.5,0.5c0,0.3,0.1,0.6,0.3,0.8c0.6,0.4,1.3,0.7,1.7,1.2
		c0.9,0.9,1.6,1.8,2.4,2.8c1.5,1.9,3,3.7,4.5,5.6c0.2,0.3,0.4,0.6,0.5,0.8c-1.3,0.7-2.6,1.4-3.8,2.1c-0.3,0.2-0.5,0.5-0.7,0.7
		c-0.2,0.1-0.5,0.2-0.6,0.1c-2-1.7-3.8-3.5-5-5.9c-1.1-2.1-2-4.4-2.9-6.6c-0.5-1.3-0.9-2.6-1.2-3.9c-0.2-0.8-0.2-1.6-0.4-2.4
		c-0.1-0.5,0.2-0.6,0.6-0.6c0.5,0,0.9,0,1.4,0.1c1,0,1.9,0,2.9,0.1c2.3,0.1,4.5,0.9,6.6,2c0.9,0.5,1.8,0.9,2.7,1.4
		c0.2,0.1,0.3,0.4,0.5,0.6c0.2,0.2,0.3,0.4,0.5,0.5c1.5,0.7,2.6,1.7,3.7,2.9c0.1,0.2,0.3,0.3,0.4,0.4c0.7,0.7,0.4,1.5,0.2,2.3
		c-0.5,1.5-0.2,2.8,0.6,4.2C236.5,97.1,236.8,97.6,237.2,98.1"/>
	<path fill="#FFFFFF" d="M234,29.8c0.8,1.8,0.9,3.6,0.8,5.5c-0.1,1.1-0.2,2.1-0.7,3.2c-0.2,0.5-0.5,0.5-0.9,0.3
		c-1.1-0.5-1.8-1.4-2.5-2.4c-0.2-0.3-0.2-0.7-0.2-1.1c-0.1-2.5-0.9-4.9-1.6-7.3c-0.6-1.9-1.1-3.8-1.7-5.7c-0.1-0.3-0.3-0.7-0.4-1
		l1.3-0.1c0.1,0.2,0.2,0.4,0.3,0.5c0.4,0.5,0.5,1.3,0.9,1.8c0.4,0.6,1.1,1,1.8,1.1c0.3,0,0.6,0.3,0.7,0.5
		C232.7,26.6,233.3,28.2,234,29.8"/>
	<path fill="#FFFFFF" d="M236.7,121.7c-0.1,0-0.1,0-0.2,0c0.3,1.4-0.4,2.3-1.1,3.3c-0.3,0.4-0.6,0.4-0.9,0c-0.9-1.3-1.8-2.5-2.7-3.7
		c-0.5-0.6-1-1.1-1.6-1.7c-1.3-1.2-2.3-2.7-3.3-4.2c-0.8-1.2-1.6-2.3-2.4-3.5c-1.2-1.6-2.4-3.1-3.5-4.7c-1.2-1.6-2.3-3.2-3.4-4.8
		c-0.3-0.4-0.4-0.9-0.5-1.4c0-0.1,0.4-0.5,0.6-0.5c0.9,0.3,1.8,0.6,2.6,1c0.9,0.4,1.7,0.7,2.6,1.2c0.4,0.2,0.8,0.5,1.2,0.8
		c0.1,0,0.2,0.2,0.2,0.2c1.1-0.2,0.6,0.6,0.5,1c-0.3,1.4-0.5,2.7,0.1,4.1c0.4,0.9,1.1,1.5,1.9,2c1.1,0.7,2.4,0.9,3.7,0.6
		c0.4-0.1,0.9-0.1,1.4-0.3c0.7-0.2,1.2,0.2,1.4,0.7c0.9,1.9,2.2,3.6,2.6,5.8C236,118.9,236.4,120.3,236.7,121.7"/>
	<path fill="#FFFFFF" d="M234.7,66.9c0.4,0.7-0.2,1.3-0.4,1.9c0,0.1-0.1,0.1-0.2,0.2c-0.8,2.1-1.6,4.1-2.4,6.4c-0.5-0.7-1-1.3-1.3-2
		c-1.5-2.7-2.9-5.5-4.3-8.2c-0.5-1-1-2-1.6-2.8c-1.6-2.2-2.6-4.8-3.6-7.3c-0.2-0.4-0.3-0.8-0.5-1.3c0-0.1,0-0.3,0-0.5
		c0.1,0,0.3,0,0.4,0c1.5,0.6,2.8,1.5,4.1,2.5c0.6,0.5,0.7,0.8,0.4,1.5c-0.4,0.8-0.3,1.8-0.1,2.7c0.2,1.2,0.8,2.1,1.3,3.1
		c0.1,0.2,0.3,0.3,0.5,0.4c0.5,0.3,0.9,0.5,1.4,0.8c0.7,0.3,1.4,0.2,2-0.1c0.5-0.2,1.1-0.4,1.6-0.6c-0.1,0.1-0.2,0.3-0.3,0.4
		c0.3,0.2,0.7,0.4,1,0.5C233.6,65.2,234.2,66,234.7,66.9"/>
	<path fill="#ED1D24" d="M232.7,58.3c0.4,1-0.6,1.6-0.4,2.5c-0.8,0.8-1.5,1.8-2.8,1.7c-0.9-0.1-1.4-0.6-1.9-1.3
		c-0.7-1.3-0.6-2.5,0.1-3.7c0.4-0.6,0.9-0.7,1.5-0.8c0.3,0,0.7,0,1,0c0,0,0,0,0-0.1c0.4,0,0.8,0,1.2,0.1
		C232.1,56.9,232.4,57.5,232.7,58.3"/>
	<path fill="#FFFFFF" d="M233.5,127.2c0.2,0.2,0.2,0.7,0.1,1c-0.3,0.9-0.7,1.7-1.1,2.5c-0.2,0.5-0.4,0.5-0.7,0.2
		c-0.3-0.3-0.6-0.5-0.9-0.8c-1-1-2.2-1.6-3.5-2.2c-2.3-1-4.2-2.5-6.1-4.1c-2.1-1.7-3.5-3.9-4.3-6.5c-0.8-2.4-1.3-4.9-1.8-7.4
		c-0.3-1.5-0.6-3.1-0.7-4.6c-0.1-0.9,0-1.9,0.1-3c0.3,0.1,0.6,0.2,0.7,0.4c0.6,0.7,1.1,1.5,1.6,2.3c0.5,0.7,1.1,1.4,1.6,2.2
		c0.6,0.9,1.2,1.9,1.9,2.8c1.3,1.9,2.6,3.8,3.8,5.7c0.7,1,1.3,2.1,2,3c1.3,1.7,2.6,3.3,4,4.9C231.2,124.7,232.4,125.9,233.5,127.2"
		/>
	<path fill="#ED1D24" d="M233,104.9c0.1,0.8,0.1,1.6-0.2,2.4c-0.4,0.8-1.1,1.2-1.8,1.6c-0.5,0.3-1.1,0.3-1.6,0.4
		c-2-0.1-3.2-1.2-2.7-3.8c0.3-1.4,0.8-2.7,1.8-3.6c0.6-0.5,1.5-0.7,2.3-0.9c0.1,0,0.3,0.1,0.4,0.2
		C232.4,102.1,232.9,103.4,233,104.9"/>
	<path fill="#FFFFFF" d="M230.7,78c0.5,0.4,0.1,0.9,0.1,1.3c0,0.1-0.4,0.3-0.7,0.3c-2.3-0.1-4.4-0.7-6.3-1.9c-0.9-0.5-1.5-1.2-2-2.2
		c-0.4-0.8-1-1.6-1.5-2.4c-0.1-0.2-0.2-0.3-0.2-0.5c0-0.9-0.4-1.7-0.9-2.5c-0.4-0.8-0.5-1.9-0.7-2.8c-0.2-0.9-0.4-1.8-0.6-2.7
		c-0.4-1.8-0.7-3.5-0.5-5.4c0.2-1.6,0.4-3.3,0.6-4.9c0-0.2,0.1-0.3,0.2-0.4c1.1,2.4,2.1,4.7,3.1,7c1,2.2,2.1,4.3,3.1,6.4
		c0.2,0.4,0.5,0.8,0.8,1.2c1,1.4,1.7,2.9,2.3,4.6C228.2,75.2,229.1,76.8,230.7,78"/>
	<path fill="#FFFFFF" d="M230.2,82c0.1,0.2,0.2,0.4,0.2,0.6c0,0.2-0.1,0.4-0.2,0.5c-0.4,0.2-1.7-0.5-1.8-0.9c0-0.1,0-0.2,0-0.3
		C228.9,81.9,229.6,81.9,230.2,82"/>
	<path fill="#FFFFFF" d="M230.6,132.7c0.5,0.4,0.8,0.9,0.7,1.5c-0.1,1.1-0.2,2.3-0.3,3.4c-0.1,1.3-0.9,2.1-2.2,2.3
		c-0.7,0.1-1.5,0-2.3,0c-0.2,0-0.4-0.1-0.5-0.1c-0.5-0.2-0.9-0.3-1.3-0.5c-0.3-0.2-0.5-0.6-0.8-0.6c-1.1-0.2-1.9-1-2.7-1.7
		c-1.5-1.4-2.9-3-4.1-4.8c-0.5-0.7-1.1-1.3-1.7-2c1.5-1.1,3.1-1.7,5-1.3c0.9,0.2,1.9,0.1,2.8,0.2c0.4,0.1,0.9,0.3,1.3,0.4
		c1.3,0.5,2.6,0.9,3.9,1.5c0.7,0.3,1.3,0.8,1.7,1.5C230.3,132.5,230.5,132.6,230.6,132.7"/>
	<path fill="#FFFFFF" d="M228.1,15.4c0.5,0.9,1.2,1.9,0.4,3.2c-0.4,0.7-0.6,1.6-0.3,2.6l-1.3,0.1c-0.2-0.5-0.5-1-0.8-1.5
		c0-0.1-0.1-0.2-0.2-0.2c-0.3-0.5-0.8-0.7-1.3-0.5c-0.3,0.2-0.5,0.8-0.5,1.2c0,0.6,0.3,1.2,0.5,1.8c0.6,1.7,1.2,3.5,1.8,5.2
		c0.6,1.8,1.3,3.7,1.8,5.6c0.2,0.5,0.2,1,0.3,1.6c-0.7-0.2-1.3-0.4-1.9-0.5c-0.6-0.1-1.2-0.3-1.8-0.3c-0.8,0.1-1.2-0.2-1.4-0.9
		c-0.5-1.5-1-2.9-1.3-4.4c-0.3-1.4-0.6-2.9-0.8-4.3c-0.2-1.4-0.3-2.8-0.4-4.2c-0.1-1.3-0.2-2.6-0.2-4c0-1.3,0-2.7,0-4
		c0-0.7,0.2-1.4,0.4-2.1c0.1-0.4,0.4-0.6,0.8-0.4c1.5,0.5,2.6,1.5,3.6,2.7C226.5,13.1,227.4,14.2,228.1,15.4"/>
	<path fill="#FFFFFF" d="M224.4,44c0,0.3,0,0.6,0,0.9c-0.1,0.1-0.1,0.1-0.2,0.2c-0.7-0.5-1.4-0.9-2-1.5c-1.4-1.3-2.4-2.8-3.2-4.5
		c-0.5-1-1.1-2-1.5-3c-0.6-1.6-1-3.2-1.4-4.8c-0.2-0.9-0.3-1.9-0.4-2.9c0-0.9,0.1-1.1,1-1.1c0.6,0,1.2,0,1.7,0
		c0.4,0.1,0.7,0.3,1.1,0.5c0.1,0.9,0.1,1.9,0.4,2.9c0.3,0.9,0.7,1.9,1.2,2.7c0.5,0.9,1.1,1.6,1.7,2.5c0,0.1,0.1,0.2,0.1,0.2
		c1.1,0.5,1,1.3,1,2.4C224,40.3,224.3,42.1,224.4,44"/>
	<path fill="#98669B" d="M23.7,101.5c0.2-0.8,0.4-1.6-0.3-2.3c-0.3-0.3-0.5-0.7-0.6-1.1c-0.4-1.1-0.7-2.2-1.2-3.2
		c-0.6-1.2-1.3-2.4-2-3.6c-0.5-0.9-1-1.8-1.6-2.7c-0.5-0.8-1-1.6-1.5-2.4c-0.3-0.4-0.3-1-1-1.2c-0.3,1.6,0,4.4,0.7,6.5
		c0.1,0.2,0.1,0.3,0.1,0.5c0.4,1.3,0.7,2.6,1.3,3.8c0.5,1.1,1.1,2.1,1.7,3.1c0.8,1.2,1.8,2.4,2.7,3.6c0.3,0.3,0.8,0.5,1.1,0.8
		C23.4,102.4,23.6,102,23.7,101.5 M26,93.3c0.1-0.2,0-0.5-0.1-0.7c-0.3-0.7-0.9-1.4-1.1-2.1c-0.3-1.3-1.1-2-2.2-2.6
		c-1.2-0.7-2.1-1.7-2.8-2.9c-0.3-0.6-0.4-1.4-1.2-1.6c-0.3-0.1-0.5-0.3-0.8-0.4c-0.1-0.1-0.3-0.1-0.4,0c-0.1,0.1-0.1,0.3-0.1,0.4
		c0.6,1.3,1.2,2.7,1.8,3.9c0.6,1.1,1.4,2.2,2,3.3c1,1.7,1.9,3.5,2.9,5.2c0.1,0.2,0.4,0.4,0.7,0.6C25.3,95.3,25.7,94.3,26,93.3
		 M25.3,126.7c0.6-0.1,0.6-0.4,0.4-0.8c-0.5-1.1-1-2.2-1.5-3.3c-0.7-1.5-1.4-2.9-2.1-4.4c-0.5-1.1-1.2-2.1-1.7-3.1
		c-0.5-1-0.9-2-1.4-3c-0.1-0.2-0.3-0.3-0.5-0.5c-0.1,0.1-0.2,0.1-0.3,0.2c0.2,1,0.3,2,0.5,2.9c0.2,0.8,0.4,1.6,0.6,2.4
		c0.4,1.8,0.8,3.7,1.3,5.5c0.5,1.8,1.3,3.6,1.9,5.4c0.1,0.2,0.2,0.3,0.3,0.5c0.2-0.1,0.4-0.2,0.5-0.4
		C23.8,127.4,24.5,126.9,25.3,126.7 M25.7,86.3c1.8-0.6,2.7-1.9,2.7-4.1c0-1.8-1.4-3.3-3.2-3.4c0-0.1-0.1-0.1-0.1-0.2
		c-0.6,0.2-1.4,0.3-1.8,0.8c-1.3,1.2-2,2.6-1.6,4.5C22,85.7,24.2,86.8,25.7,86.3 M28.6,98.2c0.3-2,0.5-4,0.8-6
		c-0.1,0-0.1-0.1-0.2-0.2c-0.2,0.1-0.5,0.2-0.6,0.4c-0.3,0.4-0.5,0.9-0.6,1.3c-0.5,1.9-1.1,3.8-1.6,5.7c-0.6,2.1-0.7,4.2-0.4,6.4
		c0.2,1.1,0.2,2.3,0.3,3.4c0.1,0.8,0.7,1.5,1.6,1.8c0-0.5,0.1-1.1,0.1-1.6c0-1.1-0.2-2.1-0.1-3.2c0.1-1.7,0.3-3.4,0.5-5.1
		C28.5,100.1,28.5,99.1,28.6,98.2 M31.8,27.9c0.7-0.7,0.9-1.7,1-2.7c0-0.4,0-0.9-0.1-1.3c-0.3-1.2-1.1-2.3-2.5-2.1
		c-1.2,0.1-2.4,1.4-2.5,2.5c0,0.3-0.2,0.6-0.4,0.9c-0.1,0.3-0.4,0.6-0.4,0.9c0.1,1.2,0.5,2,1.7,2.5C29.8,29.1,31,28.8,31.8,27.9
		 M33.6,20.3c0-0.4,0-0.9,0.1-1.3h0c0-0.4,0.1-0.8,0.1-1.2c0-1.4-0.3-2.8-1-4.1c-0.6-1-1.3-2.1-2-3c-0.9-1.2-1.8-2.4-3.2-3.2
		c-0.6-0.4-1.3-0.7-1.9-1.2c-0.5-0.4-0.6-0.2-0.9,0.2c-0.3,0.5-0.4,1-0.4,1.6c0,1.7-0.3,3.5-0.2,5.2c0.1,1.5,0.4,3.1,0.8,4.6
		c0.1,0.7,0.4,1.4,0.8,2.1c0.3,0.6,1,0.4,1.3-0.2c0.5-1,2.1-1.5,3.1-0.9c0.9,0.6,1.8,1.1,2.7,1.7C33.2,20.9,33.5,20.8,33.6,20.3
		 M32.7,36.1c0.6-1,0.3-1.9-0.1-2.7c-0.3-0.6-0.6-1.2-0.9-1.8c-0.2-0.6-0.5-0.7-1.1-0.6c-0.6,0.1-1.3,0.1-1.8-0.1
		c-1-0.4-2-0.9-2.8-1.6c-0.6-0.6-1.4-1.2-1.5-2.1c-0.3-1.4-0.4-2.7,0-4c0.1-0.2,0.1-0.7-0.1-0.8c-0.6-0.7-1.2-1.6-2.2-2.1
		c-0.9-0.4-1.8-1-2.7-1.5c-0.7-0.4-1.4-0.7-2.2-1c-0.6-0.2-1.3-0.5-2-0.5c-0.6,0-0.9,0.6-1.1,1.1c-0.1,0.1-0.1,0.2-0.2,0.3
		c-0.1,0.2-0.2,0.5-0.2,0.7c0,0.3,0,0.7,0,1c0.1,1.2,0.2,2.4,0.3,3.6c0.1,0.8,0.3,1.5,0.4,2.3c0.1,0.6,0,1.2,0.2,1.7
		c0.4,1.1,0.9,2.1,1.4,3.2c0.4,1,0.8,1.9,1.2,2.9c0.4,0.9,0.8,1.7,1.3,2.5c0.8,1.4,1.6,2.8,2.5,4.3c0.2-0.3,0.3-0.5,0.3-0.6
		c0.1-1,0.2-2,0.3-3c0.1-0.8,0.1-1.6,0.2-2.4c0.1-0.7,0.2-1.4,0.3-2.1c0-0.1-0.2-0.4-0.3-0.4c-0.9-0.5-1.6-1.3-2.2-2.2
		c-0.9-1.2-1.9-2.2-2.5-3.6c-0.3-0.7-0.6-1.3-0.8-2c-0.1-0.2,0-0.6,0.2-0.7c0.3-0.2,0.7-0.1,0.9,0.3c1.1,2.4,3,4.1,4.7,6.1
		c0.3,0.3,0.4,0.3,0.8,0.1c0.9-0.5,1.8-0.7,2.6,0.2c0.2,0.2,0.4,0.3,0.6,0.4c1,0.7,2,1.5,3.1,2.1c0.8,0.5,1.1,1.7,2.2,1.9
		c0.1,0,0.1,0.2,0.1,0.3C31.8,35.6,32.2,36,32.7,36.1 M32.6,57.2c0.3-0.5,0.3-1,0-1.5c-0.4-0.8-0.6-1.7-0.8-2.6
		c-0.1-0.6,0.1-1.4-0.2-1.9c-0.3-0.8-0.9-1.6-1.4-2.4c-0.6-1-1.4-2-1.9-3.1c-0.8-1.9-1.7-3.7-2.3-5.7c-0.4-1.5-1.2-2.9-1.4-4.5
		c0-0.3-0.3-0.5-0.4-0.7c-0.1,0-0.1,0-0.2,0c-0.2,1.4-0.5,2.9-0.6,4.3c-0.1,1.1,0.2,2.2,0.1,3.3c-0.2,2.4,0.2,4.7,0.8,6.9
		c0.5,2,1.3,3.9,2.2,5.8c0.8,1.5,1.4,3.1,2.7,4.3c0.4,0.4,0.8,0.9,1.3,1.5c0.1-0.2,0.1-0.3,0.1-0.3C31.3,59.4,32,58.3,32.6,57.2
		 M31.5,70.1c0.4-0.6,1-1.2,0.7-2.1c-0.3-0.8-0.5-1.5-0.8-2.3c-0.6-1.4-2-2.3-2.4-3.8c0,0-0.1,0-0.2-0.1c-0.2-0.2-0.5-0.4-0.7-0.6
		c-0.6-0.8-1.1-1.6-1.8-2.3c-0.7-0.9-1.5-1.7-2.4-2.4c-1.3-0.9-2.7-1.7-4-2.6c-0.7-0.4-1.3-0.8-2-1.1c-0.2-0.1-0.7,0-0.8,0.1
		c-0.7,1.2-0.9,2.5-1,3.9c0,0.9,0,1.8,0,2.8c0,0.6,0.1,1.1,0.2,1.7c0.2,1.5,0.5,3,0.9,4.4c0.3,1.3,0.7,2.6,1.2,3.9
		c0.4,1.1,0.7,2.2,1.2,3.2c0.6,1.2,1.5,2.2,2.3,3.3c0.6,0.9,0.9,1.1,2,0.8c1-0.3,2-0.5,2.9,0.2c0.4-0.7,0.7-1.2,1-1.8
		c0.8-1.3,0.7-1.5-0.2-2.4c-1.2-1.1-2.3-2.4-3.3-3.6c-0.8-0.9-1.5-1.8-2.1-2.9c-1.2-2-2.3-4.2-3.5-6.2c-0.1-0.2-0.2-0.4-0.2-0.5
		c-0.1-0.6,0.3-1.1,0.9-1.1c0.5,0,1.5,0.6,1.7,1.1c0.2,0.6,0.5,1.2,0.8,1.8c0.8,1.5,1.6,3.1,2.6,4.5c1,1.4,2.1,2.7,3.2,4
		c0.5,0.6,1.3,1.1,1.9,1.6c0.3,0.3,0.7,0.4,1-0.1C30.9,70.8,31.3,70.5,31.5,70.1 M30.3,132.3c-0.1-0.5-0.2-0.8-0.3-1.1
		c-0.1-0.4-0.4-0.7-0.5-1.1c-0.2-0.8-1.1-1.5-2-1.4c-1.4,0.1-2.5,1.4-2.7,2.5c-0.1,0.6-0.4,1.2,0.3,1.8c0.7,0.6,1.3,1.2,2,1.8
		c0.7,0.6,2.1,0.4,2.5-0.4C30,133.7,30.1,132.9,30.3,132.3 M30.2,139.7c0.4-0.3,0.4-0.8-0.1-0.9c-0.8-0.2-1.6-0.4-2.5-0.4
		c-0.9,0-1.7,0.1-2.6-0.3c-0.2-0.1-0.5-0.1-0.7,0c-1.2,0.6-2.4,0.5-3.6,0.4c-1.4-0.1-2.8-0.5-4.2-0.8c-0.5-0.1-1-0.2-1.4-0.4
		c-0.4-0.3-1.1-0.5-1-1.2c0.1-0.7,0.7-0.9,1.3-0.8c0.6,0,1.3,0.1,1.9,0.3c1.6,0.4,3.2,0.8,5,0.7c-0.1-0.3-0.1-0.5-0.2-0.6
		c-0.2-0.8-0.5-1.7-0.6-2.5c-0.2-2-1.2-3-3.1-2.4c-1.4,0.4-2.8,0.8-4.2,1.4c-1.4,0.6-2.7,1.4-4.1,2c-0.7,0.3-0.7,0.7-0.5,1.2
		c0.7,1.8,2.1,2.9,3.5,4c1,0.8,2.1,1.3,3.1,1.9c1.5,0.8,3,1.4,4.7,1.6c2.4,0.2,4.6-0.4,6.7-1.4C28.7,140.8,29.5,140.3,30.2,139.7
		 M34.5,46.7c0.5-0.7,1.6-1.3,0.7-2.5c-0.2-0.2-0.3-0.5-0.4-0.8c-0.7-2.3-2.1-4.2-3.6-5.9c-0.6-0.7-1.2-1.3-1.8-1.9
		c-0.9-0.8-1.7-1.7-2.7-2.5c-0.2-0.2-0.5-0.2-1-0.4c0.3,1.2,0.4,2.2,0.7,3.2c0.5,1.6,1,3.2,1.6,4.8c0.6,1.5,1.4,3,2.1,4.4
		c0.2,0.5,0.5,0.9,0.8,1.3c0.4,0.7,0.8,1.4,1.2,2c0.2,0.3,0.5,0.5,0.8,0.1C33.5,48.1,34,47.4,34.5,46.7 M35.8,69.8
		c-0.1-0.1-0.2-0.1-0.2-0.2c-0.7,0.5-1.4,1-2,1.6c-0.8,0.9-1.4,1.9-2.2,2.8c-1.1,1.2-1.5,2.8-2.3,4.2c-0.1,0.2,0,0.7,0.2,0.9
		c0.3,0.5,0.7,1,1,1.5c0.9,1.6,0.6,3.2-0.1,4.8c-0.4,1-1.2,1.6-2.1,2.1c-0.6,0.4-1.2,0.8-1.7,1.2c-0.4,0.3-0.3,1.3,0.1,1.7
		c0.5,0.5,0.9,0.3,1.3-0.1c0.2-0.2,0.3-0.3,0.5-0.5c1-0.8,2.1-1.1,3.4-0.7c0.7,0.2,1.1-0.2,1.4-0.6c0.5-0.9,1-1.8,1.3-2.7
		c0.7-2.1,0.7-4.2,0.7-6.4c0-0.2,0-0.4,0-0.5c-0.2-1.1-0.6-2.2-0.3-3.4c0.3-1,0.4-2,0.6-3C35.5,71.6,35.6,70.7,35.8,69.8 M34,135.7
		c1-2.2,0.9-4.5,0.3-6.7c-0.6-2.4-1.3-4.7-2.8-6.7c-0.1-0.2-0.2-0.5-0.3-0.7c-0.6-1.3-1.1-2.6-1.8-3.9c-0.8-1.5-1.6-2.9-2.8-4.1
		c-1.3-1.3-2.6-2.6-4.3-3.6c-0.7-0.4-1.4-0.8-2.1-1.1c-0.1,0.1-0.1,0.1-0.2,0.2c0.2,0.4,0.3,0.9,0.5,1.3c0.6,1.1,1.2,2.3,1.8,3.4
		c0.5,0.9,0.9,1.8,1.4,2.7c0.4,0.7,0.9,1.5,1.3,2.2c0.3,0.7,0.5,1.4,0.8,2.1c0.7,1.5,1.5,3,2.3,4.5c0.2,0.4,0.3,0.8,0.4,1.1
		c0.1,0.2,0.3,0.3,0.4,0.4c1,0.3,2,0.7,2.5,1.6c0.8,1.3,1.4,2.8,1.3,4.5c-0.1,0.9-0.4,1.8-0.7,2.6c-0.2,0.6,0,0.9,0.4,1.2
		c0.4,0.3,0.8,0.1,1.1-0.2C33.7,136.3,33.9,136,34,135.7 M35.7,112c0.4-1.5,0.4-2.9,0-4.4c-0.1-0.6-0.5-1.1-0.5-1.7
		c0-0.6-0.4-0.9-0.7-1.3c-0.1-0.2-0.4-0.3-0.5-0.5c-0.6-0.9-1.1-1.9-1.8-2.8c-0.6-0.8-0.6-1.8-0.6-2.7c0.1-0.7,0.6-1.4,0.9-2.1
		c0.2-0.5,0.7-1,0.6-1.5c-0.1-0.8-0.5-1.7-0.9-2.5c-0.1-0.2-0.3-0.3-0.5-0.4c-0.1,0.1-0.2,0.1-0.3,0.2c-0.1,1.4-0.1,2.8-0.2,4.1
		c0,0.3,0,0.7-0.1,1c-0.5,1.9-0.8,3.9-0.9,5.9c-0.2,3.4-0.2,6.8,0.2,10.2c0,0.1,0.1,0.3,0.2,0.4c0.5,0.9,1.1,1.9,1.6,2.9
		c0.3,0.6,0.5,1.3,0.7,1.9c0.1,0.4,0.4,0.3,0.5,0.1c0.2-0.4,0.5-0.8,0.7-1.3C34.7,115.8,35.2,113.9,35.7,112 M38.7,55.5
		c2.1-0.9,3.2-3.2,2.5-5.5c-0.3-1.1-0.8-2.3-2.1-2.3c-1,0-2.1,0.4-3.1,0.6c-0.1,0-0.1,0.2-0.2,0.2c-1.4,1.2-1.4,2.9-1.5,4.5
		c0,0.2,0.1,0.5,0.3,0.7c0.2,0.3,0.5,0.6,0.8,0.9c0.6,0.7,1.2,1.1,2.2,1.1C38,55.7,38.4,55.7,38.7,55.5 M43.4,17.7
		c0.4-1.2,0.6-2.5,0.4-3.8c-0.3-2.1-0.5-4.2-0.7-6.3c0-0.3-0.1-0.6-0.1-0.9c-2.1,1.2-3.5,3-4.7,4.8c-0.9,1.4-1.4,3.1-2,4.6
		c-0.1,0.2-0.1,0.5,0,0.7c0.3,1.6-0.1,3.1-0.6,4.6c-0.2,0.5-0.2,1-0.5,1.4c-0.4,0.7-0.4,1.4-0.2,2.1c0.6,0.1,1.2,0.1,1.8-0.3
		c0.6-0.4,1.3-0.7,1.9-1.1c0.3-0.2,0.5-0.3,0.7-0.6c0.3-0.3,0.6-0.7,0.9-0.9C42,21,42.8,19.4,43.4,17.7 M41.1,82.7
		c0.1-0.9,0.3-1.9,0.2-2.8c-0.1-1.4-0.3-2.8-0.5-4.2c-0.2-1.6-0.5-3.3-0.8-4.9c-0.2-1-0.4-2.1-0.7-3.1c-0.1-0.2-0.3-0.3-0.6-0.5
		c-0.4,1.5-0.8,2.8-1.1,4.1c-0.3,1.6-0.9,3.1-0.3,4.8c0.4,1.2,0.2,2.6,0.2,3.9c-0.1,1.5-0.1,3-0.4,4.4c-0.4,1.7-1.2,3.3-1.8,4.9
		c-0.2,0.5-0.6,0.9-0.9,1.4c-0.1,0.2-0.1,0.6,0,0.9c0.3,0.8,0.8,1.4,1.1,2.2c0.2,0.5,0.4,0.5,0.7,0.2c0.5-0.5,1.1-0.9,1.5-1.4
		c0.5-0.6,1.1-1.1,1.5-1.8c0.5-1,0.7-2,1-3.1c0.3-1.2,0.6-2.4,0.8-3.7C41.1,83.7,41.1,83.2,41.1,82.7 M39.6,103
		c1.1-0.5,1.2-1.6,1.3-2.7c0-0.4,0-0.8-0.1-1.2c-0.1-0.8-0.8-1.3-1.4-1.8c-1.3-1.1-2.1-1.3-3.5-0.5c-1.6,1-2.2,2.4-1.9,4
		C34.6,103.2,37.6,104,39.6,103 M47,24.1c0.2-0.6,0.4-1.2,0.6-2c-0.4,0.1-0.7,0-0.9,0.1c-0.6,0.3-1.1,0.6-1.7,0.9
		c-1.8,0.9-3.4,2.2-4.8,3.6c-1,0.9-1.8,2-2.5,3.2c-0.8,1.4-1.4,3-2,4.5c-0.4,1.1-0.4,2.3-0.8,3.4c-0.2,0.6-0.1,1.2,0.1,1.8
		c0.3,0.6,0.6,1.1,1.1,1.9c0.2-0.3,0.4-0.5,0.6-0.7c0.6-0.9,1.2-1.8,1.9-2.6c0.5-0.6,1-1.1,1.4-1.8c1.1-1.5,2.1-3.1,3.1-4.7
		c0.7-1,1.3-2.1,1.9-3.2C45.7,27.1,46.3,25.6,47,24.1 M48.8,26.1c0.1-0.5-0.1-0.7-0.6-0.8c-0.4,0.8-0.7,1.7-1,2.5
		c-0.3,0.6-0.4,1.3-0.7,1.9c-0.4,0.8-0.9,1.6-1.3,2.4c-0.5,0.9-1.1,1.8-1.7,2.7c-1,1.4-2,2.8-3,4.1c-0.5,0.6-0.9,1.3-1.3,1.9
		c-0.5,0.7-1.1,1.3-1.6,2c-0.1,0.2-0.3,0.5-0.2,0.7c0.2,0.8,0.4,1.6,0.6,2.3c1,0.1,1.9,0.1,2.8,0.3c0.9,0.2,1.2,0.2,1.7-0.6
		c0.8-1.3,1.5-2.7,2.2-4.1c0.9-2,1.8-4,2.6-6c0.9-2.3,1.5-4.7,1.5-7.2C48.6,27.5,48.7,26.8,48.8,26.1 M48,75.3
		c-0.3-0.1-0.3-0.1-0.4-0.1c-1.3,0.2-2.7,0.3-4.1,0.6c-0.2,0-0.5,0.3-0.5,0.5c0,0.6,0.1,1.2,0.2,1.9c0.3-0.1,0.5-0.1,0.7-0.2
		c0.6-0.3,1.2-0.6,1.7-0.9c0.5-0.3,1-0.5,1.5-0.8C47.5,75.9,47.7,75.6,48,75.3 M49.3,92.3c0-0.4-0.1-1-0.1-1.6
		c0-0.5-0.4-0.5-0.7-0.4c-0.4,0.1-0.8,0.3-1.1,0.5c-1.5,0.7-3,1.3-4.5,2c-0.6,0.3-1.1,0.6-1.7,0.9c-0.3,0.2-0.6,0.4-0.9,0.6
		c-0.4,0.2-0.5,0.7-0.1,1c0.8,0.6,1.6,1.2,2.3,2c0.5,0.6,0.8,1.3,0.8,2.1c0,0.6,0.1,1.1,0,1.6c-0.2,0.8-0.1,1.7-0.8,2.3
		c-0.4,0.3-0.7,0.7-0.9,1.1c-0.3,0.6-0.8,0.8-1.3,0.9c-0.8,0.2-1.1,0.7-1,1.5c0,0.2,0.1,0.5,0,0.6c-0.5,0.5,0.2,0.8,0.1,1.2
		c0.3,0,0.6,0,0.9-0.2c1.6-0.8,2.8-2.2,4.2-3.3c0.1-0.1,0.1-0.2,0.2-0.3c1.2-1.7,2.2-3.5,3-5.5C48.6,97.1,49,94.8,49.3,92.3
		 M50.1,77.5c0.1-0.1,0-0.3,0-0.6c-0.3,0.1-0.5,0.1-0.6,0.2c-0.8,0.5-1.5,0.9-2.2,1.4c-0.5,0.4-1,0.7-1.4,1.2
		c-0.4,0.5-0.9,1.3-1.9,1.2c-0.2,0-0.5,0.2-0.5,0.3c-0.1,0.9-0.1,1.8,0,2.8c0,0.1,0.4,0.3,0.5,0.3c0.7-0.5,1.5-1.1,2.2-1.7
		c1-0.9,1.9-1.8,2.5-3c0,0,0.1,0,0.1-0.1C49.1,78.8,49.6,78.1,50.1,77.5 M51.9,49c0.1-1.5,0.2-3-0.6-4.4c-0.2,0-0.5,0-0.7,0.1
		c-0.5,0.2-0.9,0.5-1.4,0.8c-1.2,0.8-2.4,1.6-3.6,2.4c-0.6,0.4-1,1.1-1.6,1.6c-0.7,0.5-0.9,1.1-0.7,1.9c0.1,0.3,0,0.7-0.1,1
		c-0.4,2-1.7,3.4-3.2,4.6c-0.8,0.7-1.7,0.9-2.8,0.6c-0.5-0.1-1.1-0.5-1.7,0c-0.8,0.9-1.7,1.7-2,2.9c-0.2,0.7-0.6,1.4-0.8,2.1
		c-0.1,0.5-0.3,1-0.2,1.4c0.2,0.7,0.8,1.2,1.1,1.8c0.3,0.7,0.6,1,1.2,0.9c0.3-0.3,0.5-0.6,0.7-0.9c0.5-0.8,1.3-1.3,1.5-2.2
		c0.2-0.7,0.8-1,1.5-0.9c0.4,0.1,0.9,0.2,1.3,0.4c0.4,0.2,0.8,0.3,1.1-0.2c0.5-0.8,1.2-1.5,1.5-2.3c1-2.3,2.2-4.5,3.6-6.5
		c0.2-0.2,0.5-0.5,0.7-0.5c0.4,0.1,0.6,0.4,0.6,0.9c-0.1,1.5-0.6,3-1.2,4.4c-0.9,2.2-2.1,4.3-3.8,6c-0.3,0.3-0.6,0.8-1,1
		c-0.7,0.3-0.5,0.6-0.4,1.1c0.1,0.2,0.2,0.3,0.2,0.5c0.3,1,0.5,2,0.7,3c0.1,0.5,0.5,0.7,0.7,0.5c1.1-1,2.3-2,3.3-3.2
		c0.9-1.1,1.6-2.4,2.2-3.6c0.8-1.7,1.4-3.4,2.2-5.1c0.7-1.6,1-3.4,1.1-5.1C51.8,52.2,51.8,50.6,51.9,49 M50.9,106.8
		c0.2-0.4,0.4-0.7,0.7-1.3c-0.4,0-0.7,0-0.9,0.1c-1.6,0.7-3.1,1.5-4.7,2.2c-1.8,0.7-3.3,1.9-4.9,2.9c-0.4,0.3-1,0.5-1.4,0.8
		c-0.5,0.4-1,0.7-1.3,1.3c-0.4,0.7-0.5,1.6-0.7,2.4c-0.6,2-1.2,4.1-1.8,6.1c-0.2,0.7-0.4,1.3-0.7,2.1c0.4-0.1,0.5-0.2,0.6-0.3
		c0.6-0.6,1.3-1.1,1.9-1.7c2.1-2,4.2-4,6.3-6c1-1,1.8-2.1,2.7-3.1C48.3,110.7,49.7,108.8,50.9,106.8 M51.7,127.6
		c0.1-0.9,0.1-0.9-0.8-1c-0.1,0-0.2,0-0.3,0c-2.5,0.4-4.9,1-7.1,2.2c-2.1,1.2-3.7,3-4.9,5c-0.8,1.2-1.3,2.6-1.9,3.9
		c-0.4,0.8-0.8,1.5-1.9,1.5c-0.1,0-0.3,0.1-0.4,0.2c0,0.1,0.1,0.3,0.2,0.4c0.7,0.4,1.3,0.8,2,1c1.6,0.5,3.3,0.2,5,0.1
		c1.3-0.1,2.7-0.5,3.7-1.5c1.1-1.1,2.4-2,3.2-3.3c0.6-1,1.3-2,1.9-3C51.1,131.4,51.4,129.5,51.7,127.6 M52.6,108.5
		c-0.1-0.1-0.2-0.1-0.3-0.2c-0.3,0.3-0.6,0.6-0.8,1c-0.5,0.7-0.9,1.5-1.4,2.2c-0.4,0.7-1,1.3-1.4,1.9c-0.4,0.6-0.7,1.3-1.2,1.8
		c-1.4,1.4-2.8,2.8-4.2,4.2c-1.5,1.4-2.9,2.8-4.4,4.2c-0.3,0.3-0.7,0.6-1,1c-0.3,0.3-0.6,0.7-0.9,1.1c-0.3,0.4-0.7,0.8-0.5,1.5
		c0.4,1,0.6,2,0.9,3.1c0.2-0.1,0.3-0.2,0.4-0.3c0.5-0.5,1-1.1,1.6-1.6c1.4-1.1,2.8-2.1,4.3-3.1c1.9-1.3,3.3-3,4.3-5.1
		c1.4-3.1,2.7-6.3,4-9.4C52.2,110.1,52.4,109.3,52.6,108.5 M56.2,102c0.7,0.5,0.9,1.6,0.4,2.3c-1.3,1.8-1.4,4-2.1,6.1
		c-0.9,3.1-2.1,6.2-3.5,9.1c-0.7,1.4-1.4,2.7-2,4.1c-0.1,0.2-0.1,0.4-0.1,0.7c1.4-0.1,2.7-0.2,4-0.4c1.1-0.1,1.8,0.3,2.5,1.3
		c0.6,0.9,0.2,1.4-0.2,2.2c-0.5,1.1-0.9,2.2-1.2,3.3c-0.4,1.2-0.7,2.4-1.1,3.5c-0.3,0.8-0.7,1.7-1.2,2.4c-0.9,1.2-2,2.2-3,3.4
		c-1,1.2-2.3,1.9-3.6,2.6c-0.3,0.1-0.6,0.2-0.9,0.3c-1.6,0.3-3.3,0.6-4.9,0.5c-1.9-0.1-3.6-0.6-5.3-1.5c-0.6-0.3-1.1-0.3-1.6,0
		c-1.2,0.6-2.3,1.3-3.5,1.9c-1.2,0.6-2.4,1.1-3.7,1.2c-1.1,0.2-2.2,0.3-3.3,0.2c-1.3-0.2-2.7-0.5-4-1c-1.9-0.8-3.7-1.9-5.3-3.1
		c-1.2-0.9-2.3-2.1-3.4-3.1c-0.9-0.9-1.8-1.7-2.6-2.7c-0.4-0.5-0.9-1.2-0.5-2c0.1-0.2,0.2-0.3,0.4-0.4c1-0.5,2-1,3-1.5
		c1.7-0.8,3.3-1.5,5-2.2c1.4-0.5,2.8-0.9,4.2-1.4c0.4-0.1,0.7-0.4,0.5-0.9c-0.6-1.5-1.2-3-1.8-4.5c-0.3-0.8-0.3-1.6-0.5-2.4
		c-0.3-1.8-0.8-3.7-1-5.5c-0.3-2.2-0.6-4.3-0.9-6.5c-0.1-0.4-0.3-0.9-0.4-1.3c-0.1-0.6,0.5-1.6,1-1.6c0.7,0,1.3,0.1,1.9,0.3
		c1.8,0.7,3.6,1.4,5.1,2.6c0.2,0.2,0.5,0.3,0.9,0.5c0-0.9,0-1.7-0.1-2.5c0-0.1-0.2-0.2-0.3-0.3c-0.5-0.3-1.1-0.4-1.6-0.8
		c-0.6-0.5-1.2-1.1-1.7-1.7c-0.4-0.5-0.8-1-1.1-1.5c-1-1.5-2.1-3-3-4.7c-1.4-2.4-1.9-5.1-2.3-7.8c-0.5-3.2,0.1-6.3,0.1-9.5
		c0-0.3,0.2-0.6,0.3-0.9c1.8,1,3.5,1.8,5.2,2.7c0.5,0.3,0.7,0.2,1-0.4c0.2-0.6,0.5-1.1,0.9-1.6c0.6-0.8,0.5-1-0.1-1.7
		c-0.8-0.8-1.5-1.7-2.2-2.6c-0.2-0.2-0.2-0.6-0.3-0.9c-0.1-0.1-0.3-0.2-0.4-0.3c-0.4-0.8-0.8-1.7-1.2-2.6c-0.5-1.1-1.1-2.1-1.4-3.2
		c-0.5-1.8-0.7-3.7-1.1-5.6c-0.1-0.3-0.2-0.7-0.2-1c0-1.6,0.1-3.2-0.1-4.7c-0.3-1.7,0.3-3.2,0.5-4.8c0-0.1,0.1-0.3,0.1-0.4
		c-0.3-0.5-0.2-1,0.3-1.4c0.6-0.5,1.2-0.7,1.9-0.5c0.7,0.2,1.3,0.4,1.6,1.1c0.2,0.4,0.9,0.7,1.4,0.9c1.2,0.7,2.3,1.4,3.5,2
		c0.1,0.1,0.3,0.1,0.6,0.2c-0.3-0.8-0.5-1.4-0.7-2c-0.7-2-1.4-3.9-1.5-6.1c0-0.8,0-1.5-0.1-2.3c0-0.2-0.2-0.4-0.3-0.5
		c-1.3-0.8-2.2-2-2.9-3.3c-1.2-2-2.3-4.1-3.3-6.2c-0.4-0.8-0.7-1.6-1.1-2.5c-0.4-0.8-0.6-1.7-1.1-2.4c-0.8-1.5-0.9-3.2-1.2-4.8
		c-0.3-1.8-0.3-3.6-0.5-5.4c-0.1-0.6-0.3-1.2-0.4-1.8c0-0.5-0.1-1.1,0.2-1.4c0.2-0.3,0.8-0.6,1.3-0.5c1,0,2,0.3,3,0.4
		c1.4,0.1,2.7,0.5,4,1c0.6,0.2,1.1,0.5,1.7,0.8c0.4,0.2,0.7,0.4,1.1,0.6c0.1,0,0.5-0.3,0.4-0.4c-0.2-1.8-0.5-3.6-0.7-5.3
		c0-0.1,0-0.1,0-0.2c0.1-1.3,0-2.7,0.2-4c0.1-0.9,0.5-1.7,0.8-2.6C22.9,5,23,4.8,23,4.5c0.1-1.3,0.7-1.6,1.9-1.5
		c0.7,0.1,1.2,0.4,1.5,1.2c0.2,0.6,0.9,1,1.5,1.4c1.8,1.2,3.5,2.5,4.9,4.2c0.6,0.7,1.1,1.5,1.7,2.2c0.1,0.1,0.2,0.2,0.3,0.4
		c0.1-0.1,0.2-0.2,0.3-0.3c0.4-0.7,0.8-1.5,1.3-2.1c0.8-1,1.7-2,2.7-3C39.7,6.4,40.4,6,41,5.5c0.7-0.6,1.3-1.2,1.9-1.8
		c0.9-0.7,2.5-0.6,3.1,0.4c0.2,0.3,0.2,0.9,0.1,1.3c-0.4,1.4-0.5,2.8-0.3,4.3c0.2,1.8,0.3,3.7,0.3,5.5c0,1.4-0.1,2.9-0.2,4.4
		c0.9-0.5,1.9-1,2.8-1.5c0.8-0.5,1.6-0.2,2.4,0c0.6,0.1,1.1,1.6,1,2.3c-0.2,1.4-0.3,2.9-0.4,4.3c-0.2,2.1-0.3,4.3-0.6,6.4
		c-0.1,1.2-0.5,2.3-0.9,3.5c-0.5,1.5-0.9,3-1.5,4.5c-0.3,0.8-1,1.5-1.4,2.3c-0.5,0.8-0.9,1.7-1.3,2.6c0.3,0,0.4,0.1,0.5,0
		c0.9-0.5,1.7-1.1,2.5-1.7c0.5-0.3,0.9-0.8,1.5-1.1c0.3-0.2,0.6-0.3,0.9-0.2c1.9,0.4,2.4,0.5,2.6,3c0.2,2.2,0.3,4.4,0.2,6.6
		c-0.1,2.1-0.3,4.2-0.7,6.3c-0.4,2.1-1.1,4.1-2.1,5.9c-0.6,1.2-1.4,2.3-2,3.5c-0.8,1.7-2.2,2.9-3.4,4.3c-0.8,0.9-1.7,1.7-2.6,2.6
		c-0.1,0.1-0.1,0.3-0.2,0.5c0.3,0,0.5,0,0.6-0.1c1.1-0.3,2.3-0.7,3.4-0.8c1.3-0.2,2.6-0.1,3.9-0.3c0.8-0.1,1.5,0,2,0.6
		c0.4,0.4,0.7,0.9,0.6,1.5c-0.1,0.6-0.1,1.3-0.4,1.8c-0.7,1.4-1.4,2.9-2.4,4.1c-1.2,1.4-2.6,2.7-4.1,3.9c-0.8,0.7-1.9,1.1-2.9,1.6
		c-0.4,0.2-0.7,0.4-1.1,0.7c-0.1,0.1-0.3,0.3-0.3,0.4c-0.1,0.9-0.2,1.7-0.4,2.7c0.3-0.1,0.6-0.1,0.9-0.2c1-0.4,1.9-0.8,2.9-1.3
		c0.8-0.4,1.4-0.8,2-1.4c0.9-1,2.9-0.4,3.6,0.8c0.6,1,0,2,0.1,3c0,0.4-0.1,0.7-0.1,1.1c-0.2,1.3-0.3,2.7-0.5,4
		c-0.1,0.7-0.2,1.3-0.4,1.9c-0.7,1.6-1.4,3.2-2.1,4.8c-0.1,0.3-0.2,0.5-0.4,0.9c0.3,0,0.5,0,0.6,0c1.6-0.7,3.1-1.3,4.7-2.1
		C54.9,101,55.3,101.3,56.2,102 M34.4,31.5c0.3-0.7,0.5-1.3,0.8-1.8c0.3-0.5,0.7-1,1.1-1.5c0-0.1-0.2-0.4-0.2-0.3
		c-0.4,0.1-0.8,0.1-1.1,0.4c-0.5,0.5-1,1-1.2,1.6C33.7,30.2,34.1,30.8,34.4,31.5"/>
	<path fill="#FFFFFF" d="M52.3,108.3c0.1,0.1,0.2,0.1,0.3,0.2c-0.2,0.8-0.4,1.6-0.7,2.3c-1.3,3.2-2.6,6.3-4,9.4
		c-1,2.1-2.3,3.8-4.3,5.1c-1.5,1-2.9,2-4.3,3.1c-0.6,0.4-1,1-1.6,1.6c-0.1,0.1-0.2,0.1-0.4,0.3c-0.3-1.1-0.5-2.1-0.9-3.1
		c-0.3-0.7,0.1-1.1,0.5-1.5c0.3-0.4,0.6-0.8,0.9-1.1c0.3-0.3,0.7-0.6,1-1c1.5-1.4,3-2.8,4.4-4.2c1.4-1.4,2.8-2.8,4.2-4.2
		c0.5-0.5,0.8-1.2,1.2-1.8c0.5-0.6,1-1.2,1.4-1.9c0.5-0.7,0.9-1.5,1.4-2.2C51.8,108.9,52.1,108.6,52.3,108.3"/>
	<path fill="#FFFFFF" d="M50.9,126.6c0.9,0,0.9,0.1,0.8,1c-0.3,1.9-0.6,3.8-1.5,5.5c-0.5,1-1.3,2-1.9,3c-0.8,1.3-2,2.3-3.2,3.3
		c-1,1-2.4,1.3-3.7,1.5c-1.6,0.2-3.3,0.4-5-0.1c-0.7-0.2-1.4-0.7-2-1c-0.1-0.1-0.2-0.3-0.2-0.4c0.1-0.1,0.3-0.2,0.4-0.2
		c1.1,0.1,1.5-0.7,1.9-1.5c0.6-1.3,1.1-2.7,1.9-3.9c1.3-2,2.8-3.8,4.9-5c2.2-1.3,4.7-1.8,7.1-2.2C50.6,126.6,50.7,126.6,50.9,126.6"
		/>
	<path fill="#FFFFFF" d="M51.6,105.5c-0.3,0.5-0.5,0.9-0.7,1.3c-1.2,2-2.6,3.9-4.2,5.7c-0.9,1-1.7,2.1-2.7,3.1c-2.1,2-4.2,4-6.3,6
		c-0.6,0.6-1.2,1.1-1.9,1.7c-0.1,0.1-0.3,0.1-0.6,0.3c0.3-0.8,0.5-1.5,0.7-2.1c0.6-2.1,1.2-4.1,1.8-6.1c0.2-0.8,0.3-1.6,0.7-2.4
		c0.3-0.5,0.8-0.9,1.3-1.3c0.4-0.3,1-0.5,1.4-0.8c1.6-1.1,3.1-2.2,4.9-2.9c1.6-0.7,3.1-1.5,4.7-2.2
		C50.9,105.6,51.1,105.6,51.6,105.5"/>
	<path fill="#FFFFFF" d="M51.3,44.5c0.8,1.4,0.7,2.9,0.6,4.4c-0.1,1.6-0.1,3.2-0.3,4.9c-0.2,1.7-0.4,3.5-1.1,5.1
		c-0.7,1.7-1.4,3.5-2.2,5.1c-0.6,1.3-1.3,2.5-2.2,3.6c-1,1.2-2.2,2.2-3.3,3.2c-0.3,0.3-0.6,0-0.7-0.5c-0.2-1-0.5-2-0.7-3
		c0-0.2-0.2-0.3-0.2-0.5c-0.2-0.4-0.3-0.8,0.4-1.1c0.4-0.1,0.7-0.6,1-1c1.7-1.7,2.8-3.8,3.8-6c0.6-1.4,1.1-2.9,1.2-4.4
		c0.1-0.5-0.2-0.8-0.6-0.9c-0.2,0-0.5,0.3-0.7,0.5c-1.4,2.1-2.6,4.2-3.6,6.5c-0.4,0.8-1,1.5-1.5,2.3c-0.3,0.5-0.6,0.4-1.1,0.2
		c-0.4-0.2-0.8-0.4-1.3-0.4c-0.7-0.1-1.3,0.2-1.5,0.9c-0.3,0.9-1,1.4-1.5,2.2c-0.2,0.3-0.4,0.5-0.7,0.9c-0.6,0.1-0.9-0.2-1.2-0.9
		c-0.3-0.7-0.8-1.2-1.1-1.8c-0.1-0.4,0-0.9,0.2-1.4c0.2-0.7,0.6-1.4,0.8-2.1c0.3-1.2,1.2-2.1,2-2.9c0.5-0.6,1.2-0.2,1.7,0
		c1.1,0.3,2,0.1,2.8-0.6c1.5-1.2,2.7-2.6,3.2-4.6c0.1-0.3,0.1-0.7,0.1-1c-0.2-0.8,0.1-1.4,0.7-1.9c0.6-0.5,1-1.2,1.6-1.6
		c1.2-0.9,2.4-1.6,3.6-2.4c0.4-0.3,0.9-0.6,1.4-0.8C50.8,44.5,51.1,44.6,51.3,44.5"/>
	<path fill="#FFFFFF" d="M50.1,76.9c0,0.3,0,0.5,0,0.6c-0.5,0.7-0.9,1.3-1.4,1.9c0,0-0.1,0-0.1,0.1c-0.5,1.3-1.5,2.2-2.5,3
		c-0.7,0.6-1.4,1.1-2.2,1.7c-0.1,0.1-0.5-0.2-0.5-0.3c0-0.9,0-1.8,0-2.8c0-0.1,0.4-0.3,0.5-0.3c1,0.1,1.5-0.7,1.9-1.2
		c0.4-0.5,0.9-0.8,1.4-1.2c0.7-0.5,1.5-1,2.2-1.4C49.6,77,49.8,77,50.1,76.9"/>
	<path fill="#FFFFFF" d="M49.2,90.6c0,0.6,0.1,1.2,0.1,1.6c-0.3,2.5-0.7,4.8-1.6,7.1c-0.8,1.9-1.8,3.8-3,5.5
		c-0.1,0.1-0.1,0.2-0.2,0.3c-1.4,1.1-2.6,2.4-4.2,3.3c-0.3,0.1-0.6,0.1-0.9,0.2c0-0.4-0.6-0.7-0.1-1.2c0.1-0.1,0-0.4,0-0.6
		c-0.1-0.8,0.2-1.3,1-1.5c0.5-0.1,1-0.3,1.3-0.9c0.2-0.4,0.5-0.8,0.9-1.1c0.8-0.6,0.7-1.5,0.8-2.3c0.1-0.5,0-1.1,0-1.6
		c0-0.8-0.3-1.4-0.8-2.1c-0.6-0.8-1.4-1.4-2.2-2c-0.4-0.3-0.3-0.7,0.1-1c0.3-0.2,0.6-0.4,0.9-0.6c0.5-0.3,1.1-0.7,1.7-0.9
		c1.5-0.7,3-1.3,4.5-2c0.4-0.2,0.7-0.3,1.1-0.5C48.8,90.1,49.1,90.1,49.2,90.6"/>
	<path fill="#FFFFFF" d="M47.7,75.2c0,0,0.1,0,0.4,0.1c-0.3,0.3-0.5,0.6-0.8,0.8c-0.5,0.3-1,0.6-1.5,0.8c-0.6,0.3-1.1,0.6-1.7,0.9
		c-0.2,0.1-0.5,0.1-0.7,0.2c-0.1-0.7-0.2-1.3-0.2-1.9c0-0.2,0.3-0.5,0.5-0.5C44.9,75.5,46.3,75.3,47.7,75.2"/>
	<path fill="#FFFFFF" d="M48.3,25.3c0.5,0.1,0.7,0.3,0.6,0.8c-0.2,0.7-0.3,1.5-0.2,2.2c0,2.5-0.6,4.9-1.5,7.2c-0.8,2-1.7,4-2.6,6
		c-0.6,1.4-1.4,2.7-2.2,4.1c-0.4,0.7-0.8,0.7-1.7,0.6c-0.9-0.2-1.8-0.2-2.8-0.3c-0.2-0.7-0.4-1.5-0.6-2.3c0-0.2,0.1-0.5,0.2-0.7
		c0.5-0.7,1.1-1.3,1.6-2c0.5-0.6,0.9-1.3,1.3-1.9c1-1.4,2-2.7,3-4.1c0.6-0.9,1.1-1.8,1.7-2.7c0.5-0.8,0.9-1.6,1.3-2.4
		c0.3-0.6,0.5-1.3,0.7-1.9C47.6,26.9,47.9,26.1,48.3,25.3"/>
	<path fill="#FFFFFF" d="M47.6,22.1c-0.2,0.7-0.4,1.4-0.6,2c-0.6,1.5-1.3,3-2,4.5c-0.5,1.1-1.2,2.2-1.9,3.2c-1,1.6-2,3.2-3.1,4.7
		c-0.4,0.6-1,1.2-1.4,1.8c-0.6,0.9-1.3,1.7-1.9,2.6c-0.2,0.2-0.4,0.4-0.6,0.7c-0.4-0.7-0.8-1.3-1.1-1.9c-0.3-0.6-0.3-1.1-0.1-1.8
		c0.3-1.1,0.4-2.3,0.8-3.4c0.5-1.6,1.2-3.1,2-4.5c0.7-1.2,1.5-2.3,2.5-3.2c1.4-1.4,3-2.6,4.8-3.6c0.6-0.3,1.1-0.7,1.7-0.9
		C46.9,22.1,47.2,22.2,47.6,22.1"/>
	<path fill="#ED1D24" d="M40.9,100.3c0,1.1-0.2,2.1-1.3,2.7c-2,1-5,0.3-5.5-2.2c-0.4-1.6,0.2-3,1.9-4c1.4-0.8,2.2-0.7,3.5,0.5
		c0.6,0.5,1.2,1,1.4,1.8C40.8,99.5,40.8,99.9,40.9,100.3"/>
	<path fill="#FFFFFF" d="M41.3,79.9c0,0.9-0.1,1.9-0.2,2.8c0,0.5,0,1-0.1,1.5c-0.2,1.2-0.5,2.4-0.8,3.7c-0.3,1-0.5,2.1-1,3.1
		c-0.3,0.7-0.9,1.2-1.5,1.8c-0.5,0.5-1,0.9-1.5,1.4c-0.4,0.3-0.5,0.3-0.7-0.2c-0.3-0.8-0.7-1.4-1.1-2.2c-0.1-0.2-0.1-0.6,0-0.9
		c0.2-0.5,0.7-0.9,0.9-1.4c0.7-1.6,1.4-3.2,1.8-4.9c0.4-1.4,0.4-2.9,0.4-4.4c0-1.3,0.2-2.7-0.2-3.9c-0.6-1.7,0-3.2,0.3-4.8
		c0.3-1.3,0.7-2.6,1.1-4.1c0.2,0.2,0.5,0.3,0.6,0.5c0.3,1,0.5,2,0.7,3.1c0.3,1.6,0.5,3.2,0.8,4.9C41,77.1,41.2,78.5,41.3,79.9"/>
	<path fill="#FFFFFF" d="M43.8,13.9c0.2,1.3-0.1,2.6-0.4,3.8c-0.5,1.7-1.3,3.3-2.9,4.3c-0.4,0.2-0.6,0.6-0.9,0.9
		c-0.2,0.2-0.5,0.4-0.7,0.6c-0.6,0.4-1.3,0.7-1.9,1.1c-0.6,0.4-1.2,0.4-1.8,0.3c-0.3-0.7-0.2-1.4,0.2-2.1c0.2-0.4,0.3-0.9,0.5-1.4
		c0.5-1.5,0.9-3,0.6-4.6c0-0.2-0.1-0.5,0-0.7c0.6-1.5,1.1-3.3,2-4.6C39.6,9.6,41,7.9,43,6.6c0,0.3,0.1,0.6,0.1,0.9
		C43.4,9.7,43.5,11.8,43.8,13.9"/>
	<path fill="#ED1D24" d="M41.3,50c0.7,2.3-0.4,4.6-2.5,5.5c-0.4,0.2-0.8,0.2-1.2,0.2c-0.9,0-1.6-0.4-2.2-1.1
		c-0.2-0.3-0.5-0.5-0.8-0.9c-0.2-0.2-0.3-0.5-0.3-0.7c0.1-1.7,0.1-3.3,1.5-4.5c0.1-0.1,0.1-0.2,0.2-0.2c1-0.2,2.1-0.6,3.1-0.6
		C40.5,47.7,41,48.9,41.3,50"/>
	<path fill="#FFFFFF" d="M35.7,107.7c0.4,1.4,0.4,2.9,0,4.4c-0.5,1.9-1,3.7-1.6,5.6c-0.1,0.5-0.4,0.9-0.7,1.3
		c-0.2,0.3-0.4,0.3-0.5-0.1c-0.2-0.6-0.4-1.3-0.7-1.9c-0.5-1-1-1.9-1.6-2.9c-0.1-0.1-0.2-0.3-0.2-0.4c-0.4-3.4-0.5-6.8-0.2-10.2
		c0.1-2,0.4-4,0.9-5.9c0.1-0.3,0.1-0.6,0.1-1c0.1-1.4,0.1-2.8,0.2-4.1c0.1-0.1,0.2-0.1,0.3-0.2c0.2,0.1,0.4,0.2,0.5,0.4
		c0.3,0.8,0.7,1.6,0.9,2.5c0.1,0.5-0.4,1-0.6,1.5c-0.3,0.7-0.8,1.4-0.9,2.1c-0.1,0.9,0,1.8,0.6,2.7c0.6,0.9,1.2,1.9,1.8,2.8
		c0.1,0.2,0.4,0.3,0.5,0.5c0.3,0.4,0.6,0.7,0.7,1.3C35.2,106.6,35.6,107.1,35.7,107.7"/>
	<path fill="#FFFFFF" d="M34.3,129c0.5,2.2,0.7,4.5-0.3,6.7c-0.1,0.3-0.3,0.6-0.5,0.8c-0.3,0.3-0.7,0.5-1.1,0.2
		c-0.4-0.3-0.6-0.7-0.4-1.2c0.3-0.9,0.6-1.7,0.7-2.6c0.1-1.6-0.5-3.1-1.3-4.5c-0.5-0.8-1.5-1.3-2.5-1.6c-0.2,0-0.4-0.2-0.4-0.4
		c-0.2-0.4-0.3-0.8-0.4-1.1c-0.7-1.5-1.5-3-2.3-4.5c-0.3-0.7-0.5-1.4-0.8-2.1c-0.4-0.8-0.9-1.5-1.3-2.2c-0.5-0.9-0.9-1.8-1.4-2.7
		c-0.6-1.1-1.2-2.3-1.8-3.4c-0.2-0.4-0.3-0.9-0.5-1.3c0.1-0.1,0.1-0.1,0.2-0.2c0.7,0.4,1.4,0.7,2.1,1.1c1.6,0.9,3,2.2,4.3,3.6
		c1.2,1.2,2,2.7,2.8,4.1c0.7,1.3,1.2,2.6,1.8,3.9c0.1,0.2,0.2,0.5,0.3,0.7C33,124.3,33.7,126.6,34.3,129"/>
	<path fill="#FFFFFF" d="M35.5,69.6c0.1,0,0.2,0.1,0.2,0.2c-0.1,0.9-0.2,1.9-0.4,2.8c-0.2,1-0.3,2-0.6,3c-0.4,1.2,0.1,2.3,0.3,3.4
		c0,0.2,0,0.4,0,0.5c0,2.1,0,4.3-0.7,6.4c-0.3,1-0.8,1.9-1.3,2.7c-0.3,0.4-0.7,0.8-1.4,0.6c-1.2-0.3-2.4,0-3.4,0.7
		c-0.2,0.1-0.3,0.3-0.5,0.5c-0.4,0.4-0.9,0.6-1.3,0.1c-0.4-0.4-0.5-1.4-0.1-1.7c0.5-0.4,1.1-0.8,1.7-1.2c0.9-0.6,1.7-1.2,2.1-2.1
		c0.7-1.6,1-3.2,0.1-4.8c-0.3-0.5-0.7-1-1-1.5c-0.2-0.3-0.3-0.7-0.2-0.9c0.8-1.4,1.2-3,2.3-4.2c0.8-0.9,1.4-1.9,2.2-2.8
		C34.1,70.6,34.9,70.1,35.5,69.6"/>
	<path fill="#FFFFFF" d="M36.1,27.8c0,0,0.3,0.3,0.2,0.3c-0.4,0.5-0.8,1-1.1,1.5c-0.3,0.5-0.5,1.1-0.8,1.8c-0.2-0.7-0.7-1.3-0.5-1.7
		c0.2-0.6,0.7-1.2,1.2-1.6C35.3,27.9,35.7,27.9,36.1,27.8"/>
	<path fill="#FFFFFF" d="M35.2,44.3c1,1.1-0.1,1.7-0.7,2.5c-0.5,0.7-1,1.4-1.6,2c-0.3,0.3-0.6,0.2-0.8-0.1c-0.4-0.7-0.8-1.3-1.2-2
		c-0.3-0.4-0.5-0.8-0.8-1.3c-0.7-1.5-1.5-2.9-2.1-4.4c-0.6-1.6-1.1-3.2-1.6-4.8c-0.3-1-0.4-2-0.7-3.2c0.5,0.2,0.8,0.2,1,0.4
		c0.9,0.8,1.8,1.6,2.7,2.5c0.6,0.6,1.2,1.2,1.8,1.9c1.5,1.8,2.9,3.6,3.6,5.9C34.9,43.8,35,44.1,35.2,44.3"/>
	<path fill="#FFFFFF" d="M30.2,138.8c0.4,0.1,0.5,0.6,0.1,0.9c-0.8,0.6-1.6,1.1-2.4,1.5c-2.1,1.1-4.3,1.6-6.7,1.4
		c-1.7-0.1-3.2-0.7-4.7-1.6c-1.1-0.6-2.2-1.2-3.1-1.9c-1.4-1.1-2.8-2.3-3.5-4c-0.2-0.5-0.2-0.9,0.5-1.2c1.4-0.6,2.7-1.4,4.1-2
		c1.3-0.6,2.7-1,4.2-1.4c1.9-0.5,3,0.5,3.1,2.4c0.1,0.8,0.4,1.7,0.6,2.5c0,0.2,0.1,0.3,0.2,0.6c-1.8,0.2-3.4-0.3-5-0.7
		c-0.6-0.1-1.3-0.2-1.9-0.3c-0.6,0-1.2,0.1-1.3,0.8c-0.1,0.8,0.5,1,1,1.2c0.4,0.3,1,0.3,1.4,0.4c1.4,0.3,2.8,0.7,4.2,0.8
		c1.2,0.1,2.5,0.2,3.6-0.4c0.2-0.1,0.5-0.1,0.7,0c0.8,0.4,1.7,0.2,2.6,0.3C28.5,138.4,29.4,138.6,30.2,138.8"/>
	<path fill="#ED1D24" d="M30,131.2c0.1,0.3,0.2,0.6,0.3,1.1c-0.2,0.6-0.3,1.4-0.6,2c-0.4,0.8-1.8,1-2.5,0.4c-0.7-0.6-1.3-1.2-2-1.8
		c-0.6-0.5-0.4-1.2-0.3-1.8c0.2-1.1,1.3-2.4,2.7-2.5c0.9,0,1.7,0.6,2,1.4C29.6,130.5,29.9,130.9,30,131.2"/>
	<path fill="#FFFFFF" d="M32.2,68c0.3,0.9-0.3,1.4-0.7,2.1c-0.3,0.4-0.6,0.7-0.9,1.1c-0.3,0.5-0.7,0.4-1,0.1c-0.7-0.5-1.4-1-1.9-1.6
		c-1.1-1.3-2.2-2.6-3.2-4c-1-1.4-1.8-3-2.6-4.5c-0.3-0.6-0.5-1.2-0.8-1.8c-0.2-0.5-1.2-1.1-1.7-1.1c-0.6,0.1-1,0.5-0.9,1.1l-2.3,0
		c-0.1-0.9-0.1-1.8,0-2.8c0.1-1.3,0.3-2.7,1-3.9c0.1-0.1,0.6-0.2,0.8-0.1c0.7,0.3,1.4,0.7,2,1.1c1.4,0.8,2.7,1.6,4,2.6
		c0.9,0.7,1.7,1.5,2.4,2.4c0.7,0.7,1.2,1.6,1.8,2.3c0.2,0.2,0.5,0.4,0.7,0.6c0.1,0,0.2,0,0.2,0.1c0.4,1.5,1.7,2.4,2.4,3.8
		C31.7,66.5,31.9,67.3,32.2,68"/>
	<path fill="#FFFFFF" d="M32.6,55.6c0.3,0.6,0.3,1,0,1.5c-0.6,1.1-1.3,2.2-1.9,3.4c0,0.1,0,0.1-0.1,0.3c-0.5-0.6-0.9-1.1-1.3-1.5
		c-1.3-1.2-1.9-2.8-2.7-4.3c-1-1.9-1.7-3.8-2.2-5.8c-0.5-2.3-1-4.6-0.8-6.9c0.1-1.1-0.2-2.2-0.1-3.3c0.1-1.4,0.4-2.9,0.6-4.3
		c0.1,0,0.1,0,0.2,0c0.1,0.2,0.4,0.5,0.4,0.7c0.2,1.6,1,3,1.4,4.5c0.6,2,1.5,3.9,2.3,5.7c0.5,1.1,1.3,2.1,1.9,3.1
		c0.5,0.8,1.1,1.5,1.4,2.4c0.2,0.6,0,1.3,0.2,1.9C31.9,53.9,32.2,54.8,32.6,55.6"/>
	<path fill="#FFFFFF" d="M32.5,33.4c0.4,0.8,0.7,1.7,0.2,2.7c-0.5-0.1-0.8-0.5-1.1-1c0-0.1-0.1-0.3-0.1-0.3
		c-1.1-0.2-1.4-1.4-2.2-1.9c-1-0.7-2.1-1.4-3.1-2.2c-0.2-0.1-0.5-0.3-0.6-0.4c-0.8-1-1.7-0.7-2.6-0.2c-0.3,0.2-0.5,0.2-0.8-0.1
		c-1.6-2-3.6-3.7-4.7-6c-0.2-0.4-0.5-0.5-0.9-0.3c-0.2,0.1-0.3,0.5-0.2,0.7c0.2,0.7,0.6,1.3,0.8,2c0.6,1.4,1.6,2.4,2.5,3.6
		c0.6,0.9,1.3,1.6,2.2,2.2c0.1,0.1,0.3,0.3,0.3,0.4c-0.1,0.7-0.2,1.4-0.3,2.1c-0.1,0.8-0.1,1.6-0.2,2.4c-0.1,1-0.2,2-0.3,3
		c0,0.1-0.1,0.3-0.3,0.6c-0.9-1.5-1.7-2.9-2.5-4.3c-0.5-0.8-0.9-1.7-1.3-2.5c-0.4-0.9-0.8-1.9-1.2-2.9c-0.5-1.1-1-2.1-1.4-3.2
		c-0.2-0.5-0.1-1.1-0.2-1.7c-0.1-0.8-0.3-1.5-0.4-2.3c-0.1-1.2-0.2-2.4-0.3-3.6c0-0.3-0.1-0.7,0-1c0-0.3,0.1-0.5,0.2-0.7
		c0-0.1,0.1-0.2,0.2-0.3c0.2-0.5,0.5-1.1,1.1-1.1c0.7,0,1.3,0.3,2,0.5c0.7,0.3,1.5,0.6,2.2,1c0.9,0.5,1.7,1,2.7,1.5
		c1,0.5,1.5,1.3,2.2,2.1c0.1,0.2,0.2,0.6,0.1,0.8c-0.4,1.4-0.3,2.7,0,4c0.2,1,0.9,1.6,1.5,2.1c0.8,0.7,1.8,1.2,2.8,1.6
		c0.5,0.2,1.2,0.2,1.8,0.1c0.6-0.1,0.9,0,1.1,0.6C31.9,32.3,32.2,32.8,32.5,33.4"/>
	<path fill="#FFFFFF" d="M33.6,19c0,0.4,0,0.9-0.1,1.3c-0.1,0.5-0.3,0.6-0.7,0.3c-0.9-0.6-1.8-1.1-2.7-1.7c-1-0.6-2.6-0.1-3.1,0.9
		c-0.3,0.6-1,0.7-1.3,0.2c-0.4-0.6-0.6-1.4-0.8-2.1c-0.3-1.5-0.7-3.1-0.8-4.6c-0.1-1.7,0.1-3.5,0.2-5.2c0-0.6,0.1-1.1,0.4-1.6
		c0.2-0.3,0.4-0.6,0.9-0.2c0.5,0.5,1.3,0.8,1.9,1.2c1.3,0.8,2.3,2,3.2,3.2c0.7,1,1.4,2,2,3c0.7,1.2,1,2.6,1,4.1
		C33.7,18.2,33.6,18.6,33.6,19L33.6,19z"/>
	<path fill="#ED1D24" d="M32.8,25.2c0,1-0.3,2-1,2.7c-0.9,0.8-2,1.2-3.2,0.7c-1.3-0.5-1.6-1.3-1.7-2.5c0-0.3,0.2-0.6,0.4-0.9
		c0.1-0.3,0.4-0.6,0.4-0.9c0.1-1.2,1.4-2.4,2.5-2.5c1.5-0.2,2.2,1,2.5,2.1C32.8,24.3,32.8,24.8,32.8,25.2"/>
	<path fill="#FFFFFF" d="M29.4,92.2c-0.3,2-0.5,4-0.8,6c-0.1,1-0.2,1.9-0.3,2.9c-0.2,1.7-0.4,3.4-0.5,5.1c-0.1,1.1,0.1,2.1,0.1,3.2
		c0,0.5,0,1.1-0.1,1.6c-0.9-0.2-1.5-0.9-1.6-1.8c-0.1-1.1-0.2-2.3-0.3-3.4c-0.3-2.2-0.1-4.3,0.4-6.4c0.5-1.9,1-3.8,1.6-5.7
		c0.1-0.5,0.4-0.9,0.6-1.3c0.1-0.2,0.4-0.3,0.6-0.4C29.3,92.1,29.4,92.2,29.4,92.2"/>
	<path fill="#ED1D24" d="M28.4,82.1c0,2.2-0.9,3.5-2.7,4.1c-1.5,0.5-3.7-0.6-4.1-2.5c-0.3-1.9,0.3-3.4,1.6-4.5
		c0.5-0.4,1.2-0.5,1.8-0.8c0,0.1,0,0.1,0.1,0.2C27,78.8,28.4,80.3,28.4,82.1"/>
	<path fill="#FFFFFF" d="M25.7,125.9c0.2,0.4,0.3,0.7-0.4,0.8c-0.8,0.2-1.5,0.7-2,1.4c-0.1,0.2-0.3,0.2-0.5,0.4
		c-0.1-0.2-0.2-0.3-0.3-0.5c-0.7-1.8-1.4-3.6-1.9-5.4c-0.5-1.8-0.9-3.7-1.3-5.5c-0.2-0.8-0.4-1.6-0.6-2.4c-0.2-1-0.3-1.9-0.5-2.9
		c0.1-0.1,0.2-0.1,0.3-0.2c0.2,0.2,0.4,0.3,0.5,0.5c0.5,1,0.9,2,1.4,3c0.5,1.1,1.2,2.1,1.7,3.1c0.7,1.4,1.4,2.9,2.1,4.4
		C24.7,123.7,25.2,124.8,25.7,125.9"/>
	<path fill="#FFFFFF" d="M27.6,72.8c0.9,0.9,1,1.1,0.2,2.4c-0.4,0.6-0.7,1.1-1,1.8c-0.9-0.7-1.9-0.5-2.9-0.2c-1.1,0.3-1.4,0.2-2-0.8
		c-0.8-1.1-1.6-2.2-2.3-3.3c-0.5-1-0.9-2.1-1.2-3.2c-0.4-1.3-0.8-2.6-1.2-3.9c-0.4-1.4-0.7-2.9-0.9-4.4c-0.1-0.5-0.1-1.1-0.2-1.7
		l2.3,0c0,0.2,0.1,0.4,0.2,0.5c1.2,2.1,2.3,4.2,3.5,6.3c0.6,1,1.3,2,2.1,2.9C25.4,70.5,26.5,71.7,27.6,72.8"/>
	<path fill="#FFFFFF" d="M25.9,92.6c0.1,0.2,0.2,0.5,0.1,0.8c-0.3,1-0.7,2-1.1,3.2c-0.2-0.2-0.5-0.4-0.7-0.6c-1-1.7-1.9-3.5-2.9-5.2
		c-0.6-1.1-1.4-2.2-2-3.3c-0.7-1.3-1.2-2.6-1.8-3.9c-0.1-0.1,0-0.3,0.1-0.4c0.1-0.1,0.3,0,0.4,0c0.3,0.1,0.5,0.3,0.8,0.4
		c0.8,0.2,0.9,1,1.2,1.6c0.7,1.2,1.6,2.2,2.8,2.9c1,0.6,1.9,1.3,2.2,2.6C25,91.2,25.6,91.9,25.9,92.6"/>
	<path fill="#FFFFFF" d="M23.4,99.2c0.7,0.7,0.5,1.5,0.3,2.3c-0.1,0.5-0.3,0.9-0.5,1.6c-0.4-0.2-0.9-0.4-1.1-0.8
		c-1-1.1-1.9-2.3-2.7-3.6c-0.7-1-1.3-2-1.7-3.1c-0.5-1.2-0.9-2.5-1.3-3.8c-0.1-0.2-0.1-0.3-0.1-0.5c-0.7-2.1-0.9-4.9-0.7-6.5
		c0.6,0.2,0.7,0.8,1,1.2c0.5,0.8,1,1.6,1.5,2.4c0.5,0.9,1,1.8,1.6,2.7c0.7,1.2,1.4,2.3,2,3.6c0.5,1,0.8,2.1,1.2,3.2
		C23,98.5,23.1,98.9,23.4,99.2"/>
	<g>
		<g>
			<path fill="#98669B" d="M604.2,33.3l0.4,5.8l-0.4,0c-0.5-1.7-1.3-3-2.3-3.8c-1-0.8-2.1-1.1-3.5-1.1c-1.1,0-2.2,0.3-3.1,0.9
				c-0.9,0.6-1.6,1.5-2.2,2.8c-0.5,1.3-0.8,2.8-0.8,4.7c0,1.6,0.3,2.9,0.8,4c0.5,1.1,1.3,2,2.3,2.6c1,0.6,2.1,0.9,3.4,0.9
				c1.1,0,2.1-0.2,2.9-0.7c0.8-0.5,1.8-1.4,2.8-2.8l0.4,0.3c-0.9,1.5-1.9,2.6-3,3.4c-1.1,0.7-2.5,1.1-4.1,1.1c-2.8,0-5-1-6.6-3.1
				c-1.2-1.6-1.8-3.4-1.8-5.5c0-1.7,0.4-3.3,1.1-4.7s1.8-2.6,3.2-3.3c1.3-0.8,2.8-1.2,4.4-1.2c1.2,0,2.5,0.3,3.7,0.9
				c0.4,0.2,0.6,0.3,0.8,0.3c0.2,0,0.4-0.1,0.6-0.2c0.2-0.2,0.4-0.5,0.5-0.9L604.2,33.3z"/>
			<path fill="#98669B" d="M614.1,44.6c2.1,0.4,3.2,1.4,3.2,3c0,1.1-0.4,1.8-1.3,2.4c-0.9,0.5-2.1,0.8-3.7,0.8l-5.7,0l0-0.5
				c0.8,0,1.2-0.1,1.4-0.4c0.2-0.3,0.3-0.9,0.3-1.8l0-6.1c0-0.9-0.1-1.4-0.1-1.6c-0.1-0.2-0.2-0.3-0.4-0.4s-0.6-0.2-1.2-0.2l0-0.5
				l5.3,0c1,0,1.9,0.1,2.5,0.2c0.6,0.2,1.2,0.5,1.6,0.9c0.4,0.5,0.6,1,0.6,1.7C616.6,43.4,615.7,44.3,614.1,44.6z M610.4,44.4
				c0.4,0,0.6,0,0.7,0c1.2,0,2-0.2,2.5-0.7c0.5-0.4,0.8-1,0.8-1.6c0-0.7-0.3-1.3-0.8-1.6c-0.5-0.3-1.4-0.5-2.5-0.5l-0.7,0
				L610.4,44.4z M610.4,49.8c0.4,0.1,0.9,0.2,1.5,0.2c1,0,1.7-0.2,2.2-0.7c0.5-0.4,0.7-1,0.7-1.7c0-0.8-0.3-1.4-1-1.8
				s-1.5-0.6-2.6-0.6c-0.3,0-0.6,0-0.9,0L610.4,49.8z"/>
			<path fill="#98669B" d="M625.2,49c-1.2,0.9-1.9,1.5-2.2,1.6c-0.5,0.2-0.9,0.3-1.5,0.3c-0.8,0-1.5-0.3-2-0.8
				c-0.5-0.5-0.8-1.3-0.8-2.2c0-0.6,0.1-1.1,0.4-1.5c0.3-0.6,0.9-1.1,1.8-1.6c0.9-0.5,2.3-1.1,4.3-1.9l0-0.5c0-1.2-0.2-1.9-0.6-2.4
				s-0.9-0.6-1.6-0.6c-0.5,0-1,0.1-1.3,0.4c-0.3,0.3-0.5,0.6-0.5,1l0,0.7c0,0.4-0.1,0.7-0.3,0.9c-0.2,0.2-0.5,0.3-0.8,0.3
				c-0.3,0-0.6-0.1-0.8-0.3c-0.2-0.2-0.3-0.5-0.3-0.9c0-0.7,0.4-1.4,1.1-2c0.7-0.6,1.8-0.9,3.1-0.9c1,0,1.9,0.2,2.5,0.5
				c0.5,0.3,0.9,0.7,1.1,1.2c0.2,0.4,0.2,1.1,0.2,2.2l0,3.9c0,1.1,0,1.8,0.1,2s0.1,0.4,0.2,0.5c0.1,0.1,0.2,0.1,0.3,0.1
				c0.1,0,0.3,0,0.4-0.1c0.2-0.1,0.5-0.4,1-0.9l0,0.7c-0.9,1.3-1.8,1.9-2.7,1.9c-0.4,0-0.7-0.1-1-0.4
				C625.4,50.2,625.2,49.7,625.2,49z M625.2,48.2l0-4.4c-1.3,0.5-2.1,0.9-2.5,1.1c-0.7,0.4-1.1,0.8-1.4,1.2
				c-0.3,0.4-0.4,0.8-0.4,1.3c0,0.6,0.2,1.1,0.6,1.5c0.4,0.4,0.8,0.6,1.3,0.6C623.3,49.5,624.2,49.1,625.2,48.2z"/>
			<path fill="#98669B" d="M631.7,39.1l10.2,0l0,0.5c-0.6,0-1,0.1-1.1,0.2c-0.2,0.1-0.3,0.3-0.4,0.4c-0.1,0.2-0.2,0.7-0.2,1.6l0,5.7
				c0,1.2,0.1,1.9,0.3,2.2c0.2,0.3,0.7,0.4,1.4,0.4l0,3.7l-0.5,0c0-0.7-0.2-1.3-0.5-1.8c-0.3-0.5-0.7-0.9-1.3-1.1
				c-0.5-0.2-1.4-0.3-2.4-0.3l-3,0c-0.9,0-1.7,0.1-2.2,0.3c-0.5,0.2-1,0.5-1.3,1c-0.3,0.5-0.6,1.2-0.6,1.9l-0.5,0l0-3.7
				c0.7,0,1.3-0.3,1.9-0.8c0.6-0.5,1.1-1.6,1.5-3.1c0.4-1.5,0.6-3,0.6-4.5c0-1.4-0.7-2.2-2-2.2L631.7,39.1z M634.5,39.9l0,0.7
				c0,4.1-0.7,7.2-2.2,9.2l4.3,0c0.8,0,1.2-0.1,1.3-0.2c0.1-0.1,0.2-0.6,0.2-1.4l0-8.3L634.5,39.9z"/>
			<path fill="#98669B" d="M646.9,44.2l1.4,0c3.4,0,5.2,1,5.2,3.2c0,1-0.4,1.8-1.2,2.4s-2,0.9-3.6,0.9l-5.6,0l0-0.5
				c0.8,0,1.2-0.1,1.4-0.4c0.2-0.3,0.3-0.9,0.3-1.8l0-6.1c0-0.9-0.1-1.4-0.1-1.6c-0.1-0.2-0.2-0.3-0.4-0.4c-0.2-0.1-0.6-0.2-1.2-0.2
				l0-0.5l6.1,0l0,0.5c-0.8,0-1.3,0.1-1.5,0.2c-0.2,0.1-0.4,0.2-0.5,0.4s-0.2,0.7-0.2,1.7L646.9,44.2z M646.9,49.6
				c0.4,0.1,0.9,0.2,1.3,0.2c0.8,0,1.5-0.2,2.1-0.7c0.5-0.4,0.8-1,0.8-1.7c0-1.6-1.1-2.4-3.4-2.4c-0.2,0-0.5,0-0.8,0L646.9,49.6z"/>
			<path fill="#98669B" d="M656.2,42.3c1-2.4,2.6-3.7,4.9-3.7c1.6,0,2.9,0.6,4,1.8c1,1.2,1.5,2.6,1.6,4.1c0,1.6-0.5,3.1-1.5,4.4
				c-1,1.3-2.4,2-4.2,2c-1.8,0-3.2-0.7-4.1-2.2c-0.9-1.5-1.4-3.3-1.4-5.5c0-1.7,0.2-3.2,0.7-4.7c0.5-1.4,1-2.5,1.5-3.2
				c0.5-0.7,1.2-1.2,1.9-1.6c0.7-0.3,2-0.5,3.8-0.5c1.3,0,2.1-0.1,2.3-0.1c0.3-0.1,0.5-0.2,0.8-0.5l0.5,0c-0.3,0.8-0.6,1.4-1,1.8
				c-0.4,0.4-0.8,0.6-1.3,0.7c-0.5,0.1-1.3,0.2-2.4,0.2c-1.3,0-2.1,0.1-2.6,0.3c-0.5,0.2-1,0.5-1.5,1.1c-0.5,0.6-0.9,1.4-1.2,2.4
				C656.4,40.1,656.2,41.2,656.2,42.3z M660.6,39.5c-0.8,0-1.5,0.4-2.1,1.1c-0.5,0.7-0.8,1.8-0.8,3.3c0,2,0.4,3.6,1.1,4.6
				c0.7,1,1.6,1.6,2.5,1.6c0.9,0,1.6-0.4,2.1-1.1c0.5-0.7,0.7-1.9,0.7-3.5c0-1.7-0.3-3.1-1-4.2C662.5,40.1,661.7,39.5,660.6,39.5z"
				/>
			<path fill="#98669B" d="M674.9,48.9c-1.2,0.9-1.9,1.5-2.2,1.6c-0.5,0.2-0.9,0.3-1.5,0.3c-0.8,0-1.5-0.3-2-0.8
				c-0.5-0.5-0.8-1.3-0.8-2.2c0-0.6,0.1-1.1,0.4-1.5c0.3-0.6,0.9-1.1,1.8-1.6c0.9-0.5,2.3-1.1,4.3-1.9l0-0.5c0-1.2-0.2-1.9-0.6-2.4
				s-0.9-0.6-1.6-0.6c-0.5,0-1,0.1-1.3,0.4c-0.3,0.3-0.5,0.6-0.5,1l0,0.7c0,0.4-0.1,0.7-0.3,0.9c-0.2,0.2-0.5,0.3-0.8,0.3
				c-0.3,0-0.6-0.1-0.8-0.3c-0.2-0.2-0.3-0.5-0.3-0.9c0-0.7,0.4-1.4,1.1-2c0.7-0.6,1.8-0.9,3.1-0.9c1,0,1.9,0.2,2.5,0.5
				c0.5,0.3,0.9,0.7,1.1,1.2c0.2,0.4,0.2,1.1,0.2,2.2l0,3.9c0,1.1,0,1.8,0.1,2c0,0.2,0.1,0.4,0.2,0.5s0.2,0.1,0.3,0.1
				c0.1,0,0.3,0,0.4-0.1c0.2-0.1,0.5-0.4,1-0.9l0,0.7c-0.9,1.3-1.8,1.9-2.7,1.9c-0.4,0-0.7-0.1-1-0.4C675,50,674.9,49.5,674.9,48.9z
				 M674.9,48l0-4.4c-1.3,0.5-2.1,0.9-2.5,1.1c-0.7,0.4-1.1,0.8-1.4,1.2c-0.3,0.4-0.4,0.8-0.4,1.3c0,0.6,0.2,1.1,0.6,1.5
				c0.4,0.4,0.8,0.6,1.3,0.6C673,49.3,673.8,48.9,674.9,48z"/>
		</g>
	</g>
</g>
</svg>
