<svg xmlns="http://www.w3.org/2000/svg" viewBox="0 0 90.99 139.32"><defs><style>.cls-1{fill:#98669b;fill-rule:evenodd;}</style></defs><title>style-subtitle-right</title><g id="Layer_2" data-name="Layer 2"><g id="Layer_1-2" data-name="Layer 1"><path class="cls-1" d="M56.63,27.53A30.06,30.06,0,0,0,52,24.66c-.86-.46-1.74-.94-2.59-1.46a28.14,28.14,0,0,0-5.23-2.27c-.76-.27-1.52-.54-2.26-.83-.37-.15-.76-.26-1.21-.39L40,19.5l-.56-.17.51-.3,1.66-1c1.22-.7,2.37-1.37,3.5-2.07.67-.42,1.32-.91,1.95-1.39l.58-.44c2.2-1.66,2.88-4.22,3.54-6.69l0-.07a1.19,1.19,0,0,0-.12-1.1.69.69,0,0,0-.64-.17c-.91.15-1.85.23-2.75.31a29,29,0,0,0-3.46.45,9.68,9.68,0,0,0-3.07,1.17A18.74,18.74,0,0,0,37,11.41c-1.23,1.36-2.32,2.82-3.46,4.36-.48.65-1,1.3-1.47,2l-.08.11h-.14c-1.57-.12-3.17-.29-4.72-.44-5.84-.59-11.08-.95-17.48-1.52L9,15.81l.47-.4,1-.83c.55-.48,1-.85,1.44-1.2,3.39-2.59,4.5-5.76,3.37-9.69a7.21,7.21,0,0,1-.21-1.5c0-.34,0-.68-.1-1S14.67.06,14,0a1.53,1.53,0,0,0-1,.32C10.29,2.22,7.56,4.16,5,6s-5.27,5.26-5,9.3a2.59,2.59,0,0,0,1.17,2.15,2.5,2.5,0,0,0,1.26.46A6.22,6.22,0,0,0,4,17.76l.58-.09a28.07,28.07,0,0,1,9.63.4c.43.09,7.42.24,7.39.56a4,4,0,0,1-.36,1.16,15,15,0,0,0-.66,1.84c-.85,3.27-.23,5.6,2,7.33.81.64,1.63,1.26,2.46,1.88l1,.78,1.12.84c.85.63,1.72,1.29,2.56,2,.12.09.23.2.34.31.44.42.7.61,1.12.33.83-.54,1.32-1.05,1.17-1.94-.08-.51-.16-1-.24-1.54-.58-3.82-1.18-7.77-3.44-11.15a1.14,1.14,0,0,1-.15-.48c0-.06,0-.11,0-.17l-.07-.27.28,0c5.27-.87,18.94,3.64,24,7.91l.14.12-.21.53c-.15.36-.3.74-.46,1.11A9.56,9.56,0,0,0,52,36.49a22,22,0,0,0,4.55,7.13c1.38,1.49,2.74,3,4.1,4.5.3.33.74.7,1.18.61a1.1,1.1,0,0,0,.64-.53,8,8,0,0,0,1.32-3.13c.25-1.87.37-3.8.48-5.67,0-.68.08-1.37.13-2,0-.3,0-.6,0-1,0-.21,0-.44,0-.71v-.48l.4.26.68.43c.4.25.74.46,1.06.71l2.06,1.57c2.23,1.7,4.54,3.45,6.72,5.28A6.18,6.18,0,0,1,77,46.37a35.47,35.47,0,0,0,3.58,7.51c1.92,3.26,4.15,5.16,7,6a5,5,0,0,1,.86.38l.32.16a2,2,0,0,0,1.29.23c.61-.13,1-.72,1-1.63,0-6.54-3.49-11.75-9.39-14A15.58,15.58,0,0,1,76,41.13l-.37-.37.52-.06.35-.05a2.23,2.23,0,0,1,.6-.05,16.47,16.47,0,0,0,4.9-.37,48.2,48.2,0,0,0,5.19-1.53l1.44-.48A1.72,1.72,0,0,0,89.9,37a1.74,1.74,0,0,0-.78-1.57c-2.4-2-5.67-4.35-9.64-5A16.91,16.91,0,0,0,69,32.18a6.85,6.85,0,0,0-1.52,1.19c-.27.25-.55.51-.86.78l-.15.13-.69-.47-1.41-1c-.8-.54-1.61-1.06-2.43-1.59A64.39,64.39,0,0,1,56.63,27.53ZM83.18,54.06l.33-.13c.23-.09.49-.17.74-.25a2.77,2.77,0,0,0,.86-.35A2.44,2.44,0,0,0,84.65,52l-.16-.3a2.07,2.07,0,0,0-.38-.47,3.2,3.2,0,0,1-.4-.47c-.22-.35-.42-.71-.64-1.14l-.35-.66-.38-.71.72.35a9.6,9.6,0,0,1,5.41,8.74v.32l-.31-.07c-2.18-.48-2.8-.9-4.75-3.24ZM68.69,34.8l1.09-.55a16.86,16.86,0,0,1,4-1.42h0a12.73,12.73,0,0,1,12.14,3.61l.23.23-.28.17a11.51,11.51,0,0,1-3.46,1.25c-3,.63-7.18.7-9.47-.66l-.59-.35L73,37l.26-.05.1,0a3.49,3.49,0,0,1,.54-.09,2.63,2.63,0,0,1,.44,0,2,2,0,0,0,.38,0,1.15,1.15,0,0,0,1-.5,1.21,1.21,0,0,0,0-1,1.28,1.28,0,0,0-1.44-.79l-3,.13ZM8.34,14.08l-.95.74a2.65,2.65,0,0,1-.75.36l-.55.21-.56.24.22-.57a6.45,6.45,0,0,1,1.08-1.68c.71-.89,1.33-1.66.89-2.92a6.51,6.51,0,0,0-3,2.55,11.46,11.46,0,0,1-2.29,2.37l-.51.36.1-.62c1.09-6.53,5.47-9.38,10.25-12l.24-.12.12.24c1.58,3.21,1.17,5.85-1.29,8.31A30.72,30.72,0,0,1,8.34,14.08ZM29.7,30.7l0,.54-.45-.31c-.68-.48-1.33-.93-1.94-1.35-1.33-.91-2.48-1.69-3.57-2.6-1.69-1.4-1.95-3.62-.71-6.07l.2-.4.25.38.21.3a2.25,2.25,0,0,1,.39.67c.2.65.38,1.32.54,2l.22.86c.18.68.49.94,1,.86s.83-.45.78-1.28a2,2,0,0,0-.08-.39,3.26,3.26,0,0,1-.09-.41,2.57,2.57,0,0,1,0-.53c0-.14,0-.31,0-.55l.05-.83.43.71A17.66,17.66,0,0,1,29.7,30.7Zm6.11-14.31.46-1a11.52,11.52,0,0,1,7.95-6.46h0a10.39,10.39,0,0,1,4-.06l.18,0,0,.18a3.09,3.09,0,0,1-1.39,3.12c-1.83,1.31-3.74,2.57-5.59,3.78L41.4,16a4.24,4.24,0,0,1-1.18.38l-.16,0-.45-.54.14-.17c.13-.16.27-.31.41-.46a3.83,3.83,0,0,0,.77-1A1.56,1.56,0,0,0,40.8,13,1.38,1.38,0,0,0,40,13l-.17.05a3.12,3.12,0,0,0-.85.64c-.13.12-.25.23-.38.34ZM58.4,30.84c1.52,1.23,3,2.4,3.44,4.19A25.26,25.26,0,0,1,62,45l-.07.46-.36-.3a25.71,25.71,0,0,1-5.9-6.69.57.57,0,0,1-.06-.36l-.05,0V38c-2.34-2.58-2.86-6.44-1.16-8.84l.3-.42.16.49a23,23,0,0,1,1.23,8.56l0,0h0l.34.17a1.92,1.92,0,0,0,.8.31h0c.3-.15.48-.85.6-1.32l0-.08a2.1,2.1,0,0,0,0-.8c0-.12,0-.24,0-.36-.12-1.35-.25-2.69-.39-4.19l-.15-1.58.48.4Z"/><path class="cls-1" d="M62,108.07c.81-.52,1.63-1,2.43-1.59l1.4-1,.69-.47.15.13c.31.26.59.53.86.78A6.85,6.85,0,0,0,69,107.14a16.91,16.91,0,0,0,10.44,1.75c4-.68,7.24-3,9.64-5a1.74,1.74,0,0,0,.78-1.57,1.72,1.72,0,0,0-1.29-1.17l-1.44-.48A48.25,48.25,0,0,0,82,99.11a16.48,16.48,0,0,0-4.91-.37,2.24,2.24,0,0,1-.6-.05l-.35-.05-.52-.06.37-.37a15.58,15.58,0,0,1,5.63-3.93c5.9-2.2,9.41-7.42,9.39-14,0-.91-.35-1.5-1-1.63a2,2,0,0,0-1.29.23l-.32.16a5,5,0,0,1-.86.38c-2.86.83-5.09,2.74-7,6A35.51,35.51,0,0,0,77,93a6.19,6.19,0,0,1-1.7,2.95c-2.18,1.83-4.49,3.59-6.72,5.28l-2.06,1.57c-.32.25-.67.46-1.06.71l-.68.43-.4.26v-.48c0-.27,0-.5,0-.71,0-.38,0-.69,0-1,0-.68-.09-1.37-.13-2-.11-1.87-.22-3.8-.48-5.67a8,8,0,0,0-1.32-3.13,1.1,1.1,0,0,0-.64-.53c-.43-.09-.88.28-1.18.61-1.36,1.51-2.72,3-4.09,4.5A22,22,0,0,0,52,102.83a9.56,9.56,0,0,0,.15,7.37c.16.37.31.75.46,1.11l.21.53-.14.12c-5,4.27-18.71,8.78-24,7.91l-.28,0,.07-.27c0-.06,0-.11,0-.17a1.14,1.14,0,0,1,.15-.48c2.26-3.38,2.86-7.33,3.44-11.15.08-.51.16-1,.24-1.54.14-.89-.34-1.4-1.17-1.94-.42-.28-.68-.09-1.12.33-.11.11-.22.21-.34.31-.84.67-1.72,1.33-2.56,2l-1.12.84-1,.78c-.82.62-1.65,1.24-2.46,1.88-2.19,1.73-2.81,4.06-2,7.33a14.78,14.78,0,0,0,.66,1.84,4,4,0,0,1,.36,1.16c0,.32-7,.47-7.39.56a28.07,28.07,0,0,1-9.63.4L4,121.56a6.19,6.19,0,0,0-1.51-.12,2.5,2.5,0,0,0-1.26.46A2.59,2.59,0,0,0,0,124.05c-.27,4,2.41,7.45,5,9.3s5.27,3.74,8.06,5.64a1.53,1.53,0,0,0,1,.32c.63-.05.84-.76.92-1.17s.08-.67.1-1a7.28,7.28,0,0,1,.21-1.5c1.12-3.93,0-7.1-3.37-9.69-.46-.35-.89-.73-1.44-1.2l-1-.83-.47-.4.62-.05c6.4-.57,11.64-.92,17.48-1.52,1.55-.16,3.15-.32,4.72-.44H32l.09.11c.5.65,1,1.3,1.47,2,1.15,1.54,2.23,3,3.46,4.36a18.74,18.74,0,0,0,4.14,3.34,9.68,9.68,0,0,0,3.07,1.17,29,29,0,0,0,3.46.45c.91.08,1.84.17,2.75.31a.69.69,0,0,0,.64-.17,1.19,1.19,0,0,0,.12-1.1l0-.07c-.65-2.48-1.33-5-3.54-6.69l-.58-.44c-.62-.48-1.27-1-1.95-1.39-1.13-.7-2.28-1.36-3.5-2.07l-1.66-1-.51-.3.56-.17.73-.21c.45-.13.84-.24,1.21-.39.74-.29,1.5-.56,2.26-.83a28.09,28.09,0,0,0,5.23-2.27c.85-.52,1.73-1,2.59-1.46a30.06,30.06,0,0,0,4.61-2.86A64.41,64.41,0,0,1,62,108.07ZM83.41,85c1.95-2.33,2.57-2.76,4.75-3.24l.31-.07V82a9.6,9.6,0,0,1-5.41,8.74l-.72.35.38-.71.35-.66c.22-.43.42-.79.64-1.14a3.14,3.14,0,0,1,.4-.47,2.06,2.06,0,0,0,.38-.47l.16-.3A2.44,2.44,0,0,0,85.1,86a2.77,2.77,0,0,0-.86-.35c-.25-.07-.51-.15-.74-.25l-.33-.13ZM71.3,104.63l3,.13A1.28,1.28,0,0,0,75.7,104a1.21,1.21,0,0,0,0-1,1.14,1.14,0,0,0-1-.5,2,2,0,0,0-.38,0,2.63,2.63,0,0,1-.44,0,3.49,3.49,0,0,1-.54-.09l-.1,0-.26-.05-.68-.12.6-.35c2.29-1.36,6.51-1.29,9.47-.66a11.51,11.51,0,0,1,3.46,1.25l.28.17-.23.23a12.73,12.73,0,0,1-12.14,3.61h0a16.87,16.87,0,0,1-4-1.42l-1.09-.54Zm-60,23.09c2.46,2.46,2.87,5.09,1.29,8.31l-.12.24-.24-.12c-4.78-2.57-9.16-5.42-10.25-12l-.1-.62.51.36a11.49,11.49,0,0,1,2.29,2.37,6.5,6.5,0,0,0,3,2.55c.44-1.26-.18-2-.89-2.92a6.45,6.45,0,0,1-1.08-1.68l-.22-.57.56.24.55.21a2.64,2.64,0,0,1,.75.36l.95.74A30.8,30.8,0,0,1,11.29,127.72Zm15.78-10.67-.43.71-.05-.83c0-.24,0-.41,0-.55a2.57,2.57,0,0,1,0-.53,2.94,2.94,0,0,1,.09-.41,2.1,2.1,0,0,0,.08-.39c.05-.83-.19-1.19-.78-1.28s-.84.18-1,.86c-.08.29-.15.57-.22.86-.17.65-.34,1.32-.54,2a2.25,2.25,0,0,1-.39.67l-.21.3-.25.38-.2-.4c-1.24-2.45-1-4.66.71-6.07,1.09-.91,2.24-1.69,3.57-2.6.62-.42,1.26-.86,1.95-1.35l.45-.31,0,.55A17.66,17.66,0,0,1,27.08,117.05Zm11.54,8.24c.13.11.25.22.38.34a3.13,3.13,0,0,0,.85.64l.17.05a1.38,1.38,0,0,0,.79,0,1.56,1.56,0,0,0,.12-1.22,3.83,3.83,0,0,0-.77-1c-.14-.15-.28-.3-.41-.46l-.14-.17.45-.54.16,0a4.24,4.24,0,0,1,1.18.38l.11.07c1.85,1.21,3.77,2.46,5.59,3.78a3.09,3.09,0,0,1,1.39,3.12l0,.18-.18,0a10.39,10.39,0,0,1-4-.06h0A11.51,11.51,0,0,1,36.28,124l-.46-1ZM57.77,109l-.48.4.15-1.58c.14-1.5.27-2.84.39-4.19,0-.12,0-.24,0-.36a2.1,2.1,0,0,0,0-.8l0-.08c-.12-.46-.31-1.16-.6-1.32h0a1.92,1.92,0,0,0-.8.31l-.34.17h0l0,0a23,23,0,0,1-1.23,8.56l-.16.49-.3-.42c-1.7-2.4-1.18-6.26,1.16-8.84v-.13l.05,0a.58.58,0,0,1,.06-.36,25.69,25.69,0,0,1,5.9-6.69l.36-.3.07.46a25.26,25.26,0,0,1-.15,10c-.47,1.79-1.91,3-3.44,4.19Z"/></g></g></svg>