<svg xmlns="http://www.w3.org/2000/svg" viewBox="0 0 90.99 139.32"><defs><style>.cls-1{fill:#98669b;fill-rule:evenodd;}</style></defs><title>style-subtitle-left</title><g id="Layer_2" data-name="Layer 2"><g id="Layer_1-2" data-name="Layer 1"><path class="cls-1" d="M29,31.25c-.81.52-1.62,1-2.43,1.59l-1.4,1-.69.47-.15-.12c-.31-.26-.59-.53-.86-.78A6.85,6.85,0,0,0,22,32.18a16.91,16.91,0,0,0-10.44-1.75c-4,.68-7.24,3-9.64,5A1.74,1.74,0,0,0,1.09,37,1.72,1.72,0,0,0,2.38,38.2l1.44.48A48.25,48.25,0,0,0,9,40.21a16.48,16.48,0,0,0,4.91.37,2.25,2.25,0,0,1,.6.05l.35.05.52.06-.37.37a15.58,15.58,0,0,1-5.63,3.93C3.49,47.26,0,52.47,0,59c0,.91.35,1.5,1,1.63a2,2,0,0,0,1.29-.23l.32-.16a5,5,0,0,1,.86-.37c2.86-.83,5.09-2.74,7-6A35.51,35.51,0,0,0,14,46.37a6.19,6.19,0,0,1,1.7-2.95c2.18-1.83,4.49-3.59,6.72-5.28l2.06-1.57c.32-.25.67-.46,1.06-.71l.68-.43.4-.26v.48c0,.27,0,.5,0,.71,0,.38,0,.69,0,1,0,.68.09,1.37.13,2,.11,1.87.22,3.8.48,5.67a8,8,0,0,0,1.32,3.13,1.1,1.1,0,0,0,.64.53c.43.09.88-.28,1.18-.61,1.36-1.51,2.72-3,4.09-4.5A22,22,0,0,0,39,36.49a9.55,9.55,0,0,0-.15-7.37c-.16-.37-.31-.75-.46-1.11l-.21-.53.14-.12c5-4.27,18.71-8.78,24-7.91l.28,0-.07.27c0,.06,0,.11,0,.17a1.14,1.14,0,0,1-.15.48c-2.26,3.38-2.86,7.33-3.44,11.15-.08.51-.16,1-.24,1.54-.14.89.34,1.4,1.17,1.94.42.28.68.09,1.12-.33.11-.11.22-.21.34-.31.84-.67,1.72-1.33,2.56-2L65,31.61l1-.78c.82-.62,1.65-1.24,2.46-1.87,2.19-1.73,2.81-4.06,2-7.33a14.78,14.78,0,0,0-.66-1.84,4,4,0,0,1-.36-1.16c0-.32,7-.47,7.39-.56a28.07,28.07,0,0,1,9.63-.4l.58.09a6.2,6.2,0,0,0,1.51.13,2.5,2.5,0,0,0,1.26-.46A2.59,2.59,0,0,0,91,15.27c.27-4-2.41-7.45-5-9.3S80.7,2.22,77.91.33A1.53,1.53,0,0,0,77,0c-.63.05-.84.76-.92,1.17s-.08.67-.1,1a7.28,7.28,0,0,1-.21,1.5c-1.12,3.93,0,7.1,3.37,9.69.46.35.89.73,1.44,1.2l1,.83.47.4-.62.05c-6.4.57-11.64.92-17.48,1.52-1.55.16-3.15.32-4.72.44H59l-.08-.11c-.5-.65-1-1.3-1.47-2-1.15-1.54-2.23-3-3.46-4.36a18.74,18.74,0,0,0-4.14-3.34,9.67,9.67,0,0,0-3.07-1.17,29,29,0,0,0-3.46-.45c-.91-.08-1.84-.17-2.75-.31a.69.69,0,0,0-.64.17,1.19,1.19,0,0,0-.12,1.1l0,.07c.65,2.48,1.33,5,3.54,6.69l.58.44c.63.48,1.27,1,1.95,1.39,1.13.7,2.28,1.36,3.5,2.07l1.66,1,.51.3L51,19.5l-.73.21c-.45.13-.84.24-1.21.39-.74.29-1.5.56-2.26.83a28.1,28.1,0,0,0-5.23,2.27c-.85.52-1.73,1-2.59,1.46a30.06,30.06,0,0,0-4.61,2.86A64.36,64.36,0,0,1,29,31.25ZM7.58,54.33C5.63,56.66,5,57.09,2.83,57.57l-.31.07v-.32a9.6,9.6,0,0,1,5.41-8.74l.72-.35-.38.71-.35.66c-.22.43-.42.79-.64,1.14a3.15,3.15,0,0,1-.4.47,2.06,2.06,0,0,0-.38.47l-.16.3a2.44,2.44,0,0,0-.45,1.35,2.77,2.77,0,0,0,.86.35c.25.07.51.15.74.25l.33.13ZM19.7,34.69l-3-.13a1.28,1.28,0,0,0-1.44.79,1.21,1.21,0,0,0,0,1,1.15,1.15,0,0,0,1,.5,2,2,0,0,0,.38,0,2.63,2.63,0,0,1,.44,0,3.48,3.48,0,0,1,.54.09l.1,0L18,37l.68.13-.6.35c-2.29,1.36-6.51,1.29-9.47.66a11.51,11.51,0,0,1-3.46-1.25l-.28-.17.23-.23a12.73,12.73,0,0,1,12.14-3.61h0a16.88,16.88,0,0,1,4,1.42l1.09.55Zm60-23.09c-2.46-2.46-2.87-5.09-1.29-8.31l.12-.24.24.13c4.78,2.57,9.16,5.42,10.25,12l.1.62-.51-.36A11.5,11.5,0,0,1,86.31,13a6.5,6.5,0,0,0-3-2.55c-.44,1.26.18,2,.89,2.92a6.45,6.45,0,0,1,1.08,1.68l.22.57-.56-.24-.55-.21a2.64,2.64,0,0,1-.75-.36l-.95-.74A30.84,30.84,0,0,1,79.7,11.6ZM63.91,22.27l.43-.71.05.83c0,.24,0,.41,0,.55a2.58,2.58,0,0,1,0,.53,3,3,0,0,1-.09.41,2.09,2.09,0,0,0-.08.39c-.05.83.19,1.19.78,1.28s.84-.18,1-.86c.08-.29.15-.57.22-.86.17-.65.34-1.32.54-2a2.25,2.25,0,0,1,.39-.67l.21-.3.25-.37.2.4c1.24,2.45,1,4.66-.71,6.07-1.09.91-2.24,1.69-3.57,2.6-.62.42-1.26.86-1.95,1.35l-.45.31,0-.54A17.66,17.66,0,0,1,63.91,22.27ZM52.38,14c-.13-.11-.25-.22-.38-.34a3.13,3.13,0,0,0-.85-.64L51,13a1.37,1.37,0,0,0-.79,0,1.56,1.56,0,0,0-.12,1.22,3.83,3.83,0,0,0,.77,1c.14.15.28.3.41.46l.14.17-.45.54-.16,0A4.24,4.24,0,0,1,49.59,16l-.11-.07c-1.85-1.21-3.77-2.46-5.59-3.78A3.09,3.09,0,0,1,42.5,9l0-.18.18,0a10.39,10.39,0,0,1,4,.06h0a11.51,11.51,0,0,1,7.95,6.46l.46,1ZM33.22,30.33l.48-.4-.15,1.58c-.14,1.5-.27,2.84-.39,4.19,0,.12,0,.24,0,.36a2.1,2.1,0,0,0,0,.8l0,.08c.12.46.31,1.16.6,1.32h0a1.92,1.92,0,0,0,.8-.31l.34-.17h0l0,0a23,23,0,0,1,1.23-8.56l.16-.49.3.42c1.7,2.4,1.18,6.26-1.16,8.84v.13l-.05,0a.58.58,0,0,1-.06.36,25.69,25.69,0,0,1-5.9,6.69l-.36.3L29,45a25.26,25.26,0,0,1,.15-10c.47-1.79,1.91-3,3.44-4.19Z"/><path class="cls-1" d="M34.36,111.79A30.06,30.06,0,0,0,39,114.66c.86.46,1.74.94,2.59,1.46a28.14,28.14,0,0,0,5.23,2.27c.76.27,1.52.54,2.26.83.37.15.76.26,1.21.39l.73.21.56.17-.51.3-1.66,1c-1.22.7-2.37,1.37-3.5,2.07-.67.42-1.32.91-1.95,1.39l-.58.44c-2.2,1.66-2.88,4.22-3.54,6.69l0,.07a1.19,1.19,0,0,0,.12,1.1.69.69,0,0,0,.64.17c.91-.15,1.85-.23,2.75-.31a29,29,0,0,0,3.46-.45,9.69,9.69,0,0,0,3.07-1.17A18.74,18.74,0,0,0,54,127.91c1.23-1.36,2.32-2.82,3.46-4.36.48-.65,1-1.3,1.47-2l.08-.11h.14c1.57.12,3.17.29,4.72.44,5.84.59,11.08.95,17.48,1.52l.62.05-.47.4-1,.83c-.55.48-1,.85-1.44,1.2-3.39,2.59-4.5,5.76-3.37,9.69a7.22,7.22,0,0,1,.21,1.5c0,.34,0,.68.1,1s.28,1.12.92,1.17a1.53,1.53,0,0,0,1-.32c2.79-1.9,5.53-3.83,8.06-5.64s5.27-5.26,5-9.3a2.59,2.59,0,0,0-1.17-2.15,2.5,2.5,0,0,0-1.26-.46,6.21,6.21,0,0,0-1.51.13l-.58.09a28.07,28.07,0,0,1-9.63-.4c-.43-.09-7.42-.24-7.39-.56a4,4,0,0,1,.36-1.16,15,15,0,0,0,.66-1.84c.85-3.27.23-5.6-2-7.33-.81-.64-1.63-1.26-2.46-1.87l-1-.78-1.12-.84c-.85-.63-1.72-1.29-2.56-2-.12-.09-.23-.2-.34-.31-.44-.42-.7-.61-1.12-.33-.83.54-1.32,1.05-1.17,1.94.08.51.16,1,.24,1.54.58,3.82,1.18,7.77,3.44,11.15a1.14,1.14,0,0,1,.15.48c0,.06,0,.11,0,.17l.07.27-.28,0c-5.27.87-18.94-3.64-24-7.91l-.14-.12.21-.53c.15-.36.3-.74.46-1.11a9.55,9.55,0,0,0,.15-7.37,22,22,0,0,0-4.55-7.13c-1.38-1.49-2.74-3-4.1-4.5-.3-.33-.74-.7-1.18-.61a1.1,1.1,0,0,0-.64.53,8,8,0,0,0-1.32,3.13c-.25,1.87-.37,3.8-.48,5.67,0,.68-.08,1.37-.13,2,0,.3,0,.6,0,1,0,.21,0,.44,0,.71v.48l-.4-.26-.68-.43c-.4-.25-.74-.46-1.06-.71l-2.06-1.57c-2.23-1.7-4.54-3.45-6.72-5.28A6.18,6.18,0,0,1,14,93a35.47,35.47,0,0,0-3.58-7.51c-1.92-3.26-4.15-5.16-7-6a5,5,0,0,1-.86-.37l-.32-.16A2,2,0,0,0,1,78.68c-.61.13-1,.72-1,1.63,0,6.54,3.49,11.75,9.39,14A15.58,15.58,0,0,1,15,98.19l.37.37-.52.06-.35.05a2.23,2.23,0,0,1-.6.05,16.48,16.48,0,0,0-4.9.37,48.2,48.2,0,0,0-5.19,1.53l-1.44.48a1.72,1.72,0,0,0-1.29,1.17,1.74,1.74,0,0,0,.78,1.57c2.4,2,5.67,4.35,9.64,5A16.91,16.91,0,0,0,22,107.14,6.85,6.85,0,0,0,23.47,106c.27-.25.55-.51.86-.78l.15-.12.69.47,1.41,1c.8.54,1.61,1.06,2.43,1.59A64.38,64.38,0,0,1,34.36,111.79ZM7.81,85.26l-.33.13c-.23.09-.49.17-.74.25a2.77,2.77,0,0,0-.86.35,2.44,2.44,0,0,0,.45,1.35l.16.3a2.06,2.06,0,0,0,.38.47,3.22,3.22,0,0,1,.4.47c.22.35.42.71.64,1.14l.35.66.38.71-.72-.35A9.6,9.6,0,0,1,2.52,82v-.32l.31.07c2.18.48,2.8.9,4.75,3.24ZM22.3,104.52l-1.09.54a16.85,16.85,0,0,1-4,1.42h0a12.73,12.73,0,0,1-12.14-3.61l-.23-.23.28-.17a11.5,11.5,0,0,1,3.46-1.25c3-.63,7.18-.7,9.47.66l.59.35-.68.13-.26.05-.1,0a3.48,3.48,0,0,1-.54.09,2.63,2.63,0,0,1-.44,0,2,2,0,0,0-.38,0,1.15,1.15,0,0,0-1,.5,1.21,1.21,0,0,0,0,1,1.28,1.28,0,0,0,1.44.79l3-.13Zm60.35,20.73.95-.74a2.65,2.65,0,0,1,.75-.36l.55-.21.56-.24-.22.57a6.45,6.45,0,0,1-1.08,1.68c-.71.89-1.33,1.66-.89,2.92a6.51,6.51,0,0,0,3-2.55,11.47,11.47,0,0,1,2.29-2.37l.51-.36-.1.62c-1.09,6.53-5.47,9.38-10.25,12l-.24.13-.12-.24c-1.58-3.21-1.17-5.85,1.29-8.31A30.72,30.72,0,0,1,82.65,125.24ZM61.29,108.62l0-.55.45.31c.68.48,1.33.93,1.94,1.35,1.33.91,2.48,1.69,3.57,2.6,1.69,1.4,1.95,3.62.71,6.07l-.2.4-.25-.37-.21-.3a2.25,2.25,0,0,1-.39-.67c-.2-.65-.38-1.32-.54-2l-.22-.86c-.18-.68-.49-.94-1-.86s-.83.45-.78,1.28a2,2,0,0,0,.08.39,3.27,3.27,0,0,1,.09.41,2.58,2.58,0,0,1,0,.53c0,.14,0,.31,0,.55l-.05.83-.43-.71A17.66,17.66,0,0,1,61.29,108.62Zm-6.11,14.31-.46,1a11.52,11.52,0,0,1-7.95,6.46h0a10.39,10.39,0,0,1-4,.06l-.18,0,0-.18a3.09,3.09,0,0,1,1.39-3.12c1.83-1.31,3.74-2.57,5.59-3.78l.11-.07a4.24,4.24,0,0,1,1.18-.38l.16,0,.45.54-.14.17c-.13.16-.27.31-.41.46a3.83,3.83,0,0,0-.77,1,1.56,1.56,0,0,0,.12,1.22,1.38,1.38,0,0,0,.79,0l.17-.05a3.12,3.12,0,0,0,.85-.64c.13-.12.25-.23.38-.34ZM32.59,108.48c-1.52-1.23-3-2.4-3.44-4.19a25.26,25.26,0,0,1-.15-10l.07-.46.36.3a25.71,25.71,0,0,1,5.9,6.69.57.57,0,0,1,.06.36l.05,0v.13c2.34,2.58,2.86,6.44,1.16,8.84l-.3.42-.16-.49a23,23,0,0,1-1.23-8.56l0,0h0l-.34-.17a1.92,1.92,0,0,0-.8-.31h0c-.3.15-.48.85-.6,1.32l0,.08a2.1,2.1,0,0,0,0,.8c0,.12,0,.24,0,.36.12,1.35.25,2.69.39,4.19l.15,1.58-.48-.4Z"/></g></g></svg>