<svg xmlns="http://www.w3.org/2000/svg" viewBox="0 0 136.75 155.99"><defs><style>.cls-1{fill:#98669b;fill-rule:evenodd;}</style></defs><title>style-title-right</title><g id="Layer_2" data-name="Layer 2"><g id="Слой_1" data-name="Слой 1"><path class="cls-1" d="M114.74,109.18c1.8.92,3.5,1.8,5.25,2.57a6.73,6.73,0,0,0,3.31.57,26.89,26.89,0,0,0,5.41-1.27c1.94-.65,3.88-1.42,5.75-2.17l1.64-.65a2.31,2.31,0,0,0,.55-.37l.09-.07c-.56-2-.63-2-2.55-2.29a19.13,19.13,0,0,1-2.64-.6l-1.81-.59c-3.19-1.06-6.49-2.15-10.07-2.15a17.66,17.66,0,0,0-2.26.15l-.8.11.54-.6c.58-.65,1.59-4.36,2.58-8,1.69-6.18,2.79-10,3.79-10.34,4.67-1.76,7.12-5.31,7.51-10.86a25.22,25.22,0,0,0-.12-3.72c0-.43-.07-.87-.1-1.3a1.92,1.92,0,0,0-1.46-1.82c-.3-.07-.78.25-1.21.52l-.32.2c-.75.45-1.48.93-2.21,1.4L124,69c-3,1.88-4.15,4.42-4.92,7.66l-.33,1.42-.25-1.44c-.16-.94-.36-1.87-.58-2.78l0-.13a46,46,0,0,0-2.48-8c-.17-.37-.36-.75-.55-1.12a14.83,14.83,0,0,1-.87-1.92,7.7,7.7,0,0,1,1-6.68c1.71-2.17,3.27-4.35,3.68-7.18.47-3.27,1-7.13,1.46-10.94a1.49,1.49,0,0,0-.26-1.19,1.63,1.63,0,0,0-1.71-.21c-.38.12-.76.28-1.13.43a9.17,9.17,0,0,1-1.71.58c-4.81,1-7.55,3.7-8.39,8.41-.11.64-.27,1.26-.47,2.05-.1.41-.21.87-.34,1.39l-.15.65-.38-.55c-4.2-6-9.83-10.35-15.27-14.52-1.44-1.1-2.93-2.25-4.37-3.4l-.13-.11,0-.17c.13-.92.27-1.82.42-2.72A60.2,60.2,0,0,0,87,22.39a19.67,19.67,0,0,0-.66-5.92c-.65-2.54-2.42-4.53-4.14-6.46-.7-.78-1.42-1.59-2.06-2.43-.47-.62-1.24-.43-1.76.4l0,.07c-1.55,2.47-3.15,5-2.7,8.08,0,.28.08.55.12.83a25.62,25.62,0,0,0,.46,2.63c.36,1.44.77,2.88,1.2,4.4L78,26.07l.18.64-.6-.3L76.75,26c-.49-.25-.91-.48-1.35-.65-.88-.36-1.75-.75-2.62-1.13a35.15,35.15,0,0,0-6.36-2.36c-1.16-.26-2.31-.59-3.43-.9a38.31,38.31,0,0,0-6.34-1.4c-2.6-.27-5.2-.8-7.71-1.32-1.14-.23-2.27-.46-3.41-.67l-2.06-.37L42.55,17l0-.23c0-.45-.05-.88-.07-1.29a7.14,7.14,0,0,0-.27-2.14A18.81,18.81,0,0,0,34.85,3.7C30.91,1.09,26.13.36,22.41,0a2.08,2.08,0,0,0-2.08.72,1.85,1.85,0,0,0,.16,1.83l.81,1.52c1.8,3.42,3.67,7,6.93,9.52a2.73,2.73,0,0,1,.47.52l.24.32.4.48H28.5a19.09,19.09,0,0,1-7.89-1.36A18.57,18.57,0,0,0,13.26,12,18.1,18.1,0,0,0,.77,17.14,1.82,1.82,0,0,0,0,18.76c.11.52.63,1,1.47,1.24l.4.13a6.15,6.15,0,0,1,1,.39c3.16,1.62,6.57,1.9,11.05.83a44.69,44.69,0,0,0,9.42-3.09,7.75,7.75,0,0,1,3.93-1c3.41.29,6.86.74,10.2,1.17l3.06.39c.48.06.95.16,1.49.29l.94.2.57.12-.43.4-.62.56c-.33.29-.59.53-.83.77l-1.64,1.73c-1.49,1.56-3,3.17-4.41,4.85a8.58,8.58,0,0,0-1.54,3.51,1.09,1.09,0,0,0,.12.95,1.8,1.8,0,0,0,1.5.42c2.43-.11,4.86-.22,7.29-.31a28,28,0,0,0,9.93-2,11.07,11.07,0,0,0,6.15-5.94c.18-.4.36-.81.54-1.19l.29-.63.21,0c7.89.63,23.29,7.92,27,12.79l.21.27-.3.17-.17.11a1.41,1.41,0,0,1-.53.25c-4.79.88-8.66,3.53-12.4,6.08l-1.5,1c-.87.59-.9,1.37-.66,2.45.13.58.52.61,1.25.63.18,0,.37,0,.54,0,1.28.14,2.57.31,3.83.49l1.66.23,1.51.2c1.23.17,2.47.34,3.71.47,3.34.38,5.84-1,7.91-4.24a15.79,15.79,0,0,0,1-2c.15-.34.31-.68.48-1l.15-.31.28.19.5.32c.31.2.59.38.85.57a45.25,45.25,0,0,1,9.45,10.15l.46.64a79.48,79.48,0,0,1,6.57,10.2,33.4,33.4,0,0,1,2.55,6.6,52.57,52.57,0,0,1,1.09,5.71c.21,1.35.42,2.75.71,4.11l.16.76a34,34,0,0,1,.87,5.48,10.09,10.09,0,0,1-.07,1.27c-.11,1.19-.28,3,.29,3.47l.11.09v.14a21.53,21.53,0,0,1-.73,5.7,27.3,27.3,0,0,1-1.73,4.15c-.24.49-.47,1-.69,1.46a12.25,12.25,0,0,1-1.83,3c-.56.66-1.21,1.3-1.84,1.92-.38.38-.75.75-1.11,1.12l-.25.26-.21-.29a32,32,0,0,1-2.67-4.71c-.38-.78-.78-1.58-1.19-2.32s-.93-1.67-1.4-2.51-1.08-1.93-1.61-2.91A2,2,0,0,0,100,93.54c0,2.7-1.31,5-2.54,7.19l-.26.47a7.54,7.54,0,0,0-.5,1.23l-.14.41a8.85,8.85,0,0,0,4.59,10.38c.4.19.78.41,1.15.62l.51.29.29.16-.19.27c-2.25,3.23-11.3,9.49-14.25,9.85l-.37,0,0-.37c.05-.53.11-1.05.17-1.58.13-1.17.27-2.39.3-3.59a31.06,31.06,0,0,0-.31-5.23,2.67,2.67,0,0,0-1.2-1.57c-.45-.26-.76.11-1.11.52l-.21.25a9.79,9.79,0,0,1-1.57,1.41c-.77.55-1.55,1.08-2.33,1.62-1,.71-2.11,1.44-3.13,2.2-3.64,2.7-4.48,5.94-2.56,9.92a3.1,3.1,0,0,1,.21.69c0,.14.07.31.12.5l0,.13-.07.13c-.4.64-12.28,3.13-12.4,3.16a2.62,2.62,0,0,0-.6.24,2.35,2.35,0,0,1-1,.32,1,1,0,0,1-.7-.27c-.72-.62-.15-1.83.32-2.81a5,5,0,0,0,.41-1l.17-1.09c.21-1.34.43-2.72.51-4.08a52.75,52.75,0,0,0,0-5.48,3.84,3.84,0,0,0-.5-1.81,1.28,1.28,0,0,0-1-.71,1.14,1.14,0,0,0-.84.55,20,20,0,0,1-5.84,4.9l-.58.38a20.35,20.35,0,0,0-5.52,5.52c-1.32,1.83-1.39,3.53-1.06,5.84a2.42,2.42,0,0,1-.27,1.88c-.44.57-1.23.65-2.24.76l-.95.11a11.24,11.24,0,0,1-1.48.08,9.22,9.22,0,0,0-1.67.12,6.43,6.43,0,0,0-1.63.62,10.73,10.73,0,0,1-1.1.49c-1.65.58-3.44,1-5.17,1.5-1,.25-1.9.49-2.82.76-1.67.48-3.2,1.06-4.82,1.68l-1.59.6A11.26,11.26,0,0,0,21.76,143a4,4,0,0,1-2,.84,1.43,1.43,0,0,1-1.22-.66A9.58,9.58,0,0,1,17.42,140a12.64,12.64,0,0,0-.69-2.4c-.62-1.33-1.36-2.65-2.07-3.93-.28-.5-.56-1-.83-1.5-.43-.8-.91-1.52-2-1.52h0l-.15.29a7.67,7.67,0,0,0-.43.91l-.64,1.77c-.68,1.87-1.39,3.79-2,5.71a21.77,21.77,0,0,0-.77,11.4c.73,3.41,1.78,4.62,4.6,5.26l.26-.52a10,10,0,0,1,1-1.66c1.52-2,3.08-3.89,4.4-5.47l.06-.05,4.31-3L26.67,143l.14.26c1.33,2.38,3.43,3.47,6,4.64a18.34,18.34,0,0,0,2,.71c.56.18,1.14.36,1.7.59a10.56,10.56,0,0,0,4.06.82c2.79,0,5.38-1.09,8-2.31a1.47,1.47,0,0,0,.94-1.13,2.13,2.13,0,0,0-.91-1.8,3.94,3.94,0,0,0-.62-.39l-.38-.22-8.68-5.41,3.78-.73c2.41-.46,4.69-.91,7-1.32l.59-.1c.47-.08.92-.15,1.36-.26a6.55,6.55,0,0,1,1.3-.15,7.57,7.57,0,0,0,.92-.08L55,135.9l1.2-.23c3.07-.52,5.91-1,8.66-1.41A7.68,7.68,0,0,1,66,134.2h.9l.07.21.27.87c.77,2.52,1.5,4.9,3.8,6.58l1.07.79c2,1.5,3.89,2.92,6.4,3.37a21.29,21.29,0,0,0,3.71.4,9.68,9.68,0,0,0,4.5-1l-.25-.57a6.07,6.07,0,0,0-.69-1.34c-.71-.93-1.49-1.83-2.25-2.71l-1.13-1.33a20.28,20.28,0,0,0-6.51-5.57,5.9,5.9,0,0,1-1-.64l-.62-.46-.49-.35.58-.18,2.08-.65c6.23-1.93,12.11-3.75,17.28-7.28l.25-.17.17.26.34.53c.21.32.38.58.53.86,1.52,2.92,5.74,6.07,9.9,6.07a8.08,8.08,0,0,0,1.75-.19c2.15-.47,4.36-.87,6.49-1.26,1.55-.28,3.1-.56,4.65-.87a1.28,1.28,0,0,0,1.09-.82,1.53,1.53,0,0,0-.59-1.46,4.59,4.59,0,0,0-.82-.56l-.14-.08c-.6-.35-1.2-.69-1.81-1a33.64,33.64,0,0,1-3.85-2.36c-2.34-1.75-5-2.63-8.94-2.95l-1-.11-1.09-.12,11.57-12.15.2.1Zm3.21-4a11.45,11.45,0,0,1,3.53-.54,26.82,26.82,0,0,1,8.23,1.8l1,.33-.29.34a9.32,9.32,0,0,1-6.88,2.89,7.39,7.39,0,0,1-4-1.06l-.77-.49,1.83-.11,1.56-.09a1,1,0,0,0,1.15-1.16c0-.44-.12-1-1.32-1.07l-.87,0a18.62,18.62,0,0,1-3.15-.25l-1.15-.22Zm10.43-35.73.31-.13.09.33a8.52,8.52,0,0,1-4.15,9.63l-1.14.56,1.13-1.48.95-1.23a5,5,0,0,1,.38-.41,1.6,1.6,0,0,0,.5-.67,1.66,1.66,0,0,0-.3-1.31,1.53,1.53,0,0,0-.81-.19.86.86,0,0,0-.46.08,16.79,16.79,0,0,0-2.37,3.12,8,8,0,0,0-.68,1.8c-.11.37-.23.77-.38,1.2L121,82.13l-.12-1.41C120.4,75.08,122.58,71.82,128.39,69.48Zm-112-53.73-.86.24c-.55.16-1,.29-1.5.39a3.93,3.93,0,0,1-.74.05,2.65,2.65,0,0,0-.73.07l-.39.11a3,3,0,0,0-1.54.71,3.22,3.22,0,0,0,.44.94c.15.26.3.53.41.78l.17.38-.42,0c-1.09.09-1.8.13-2.4.13a7.26,7.26,0,0,1-4.36-1.33l-.34-.2.28-.27a11.93,11.93,0,0,1,8.18-3.21,12.12,12.12,0,0,1,3.8.61l.94.31Zm22-2L35.77,11.1a1.63,1.63,0,0,0-1.92-.52,1.36,1.36,0,0,0-.93.83,1.29,1.29,0,0,0,.42,1.08,2.26,2.26,0,0,0,.34.28,3.16,3.16,0,0,1,.4.33,4.12,4.12,0,0,1,.42.54l.21.3.48.66-.79-.19c-4.12-1-9.46-7-10.43-10.74l-.1-.37h.53c7.15,0,12.9,4.15,15.36,11.09l.45,1.28Zm18.84,8.86c-.6,3.24-4.32,5.89-8.49,6.06l-.06.06h-.08a.76.76,0,0,1-.38.27,29.51,29.51,0,0,1-6.91.76c-1.17,0-2.4-.05-3.76-.16l-.56,0,.35-.44a29,29,0,0,1,8.6-7.76,7.24,7.24,0,0,1,3.56-.78,28.9,28.9,0,0,1,2.9.2l1,.1.76.07-.73.56-4.66,3.59-.35.25a2.44,2.44,0,0,0-.7.61l0,.07c-.29.46-.73,1.16-.62,1.5,0,.14.66.31,1,.4l.44.13h0l.05,0a27.54,27.54,0,0,1,8.33-5.79l.53-.25Zm27,3.51-.47,1.13-.15-1.66c-.09-1-.15-1.69-.21-2.38,0-.19,0-.38,0-.57a3.3,3.3,0,0,0-.17-1.18,1.68,1.68,0,0,0-.81-.77,1.86,1.86,0,0,0-1.16.87A4,4,0,0,0,81,22.94c0,.23,0,.47,0,.7l0,.24-.8.07-.1-.16c-.07-.12-.14-.23-.22-.34a2.68,2.68,0,0,1-.46-.9l-.06-.28c-.53-2.38-1.07-4.85-1.49-7.29a3.41,3.41,0,0,1,1.48-3.58l.16-.11.17.11A12.1,12.1,0,0,1,84.2,26.09ZM90.64,41c-1,2.7-2.87,4.25-5.25,4.25l-.5,0c-1.7-.15-3.34-.44-5.25-.78l-2.76-.48-.66-.11.52-.42a21.75,21.75,0,0,1,9.38-4.57l1-.22-.67.72L86,39.8a2.85,2.85,0,0,1-.44.44,3.45,3.45,0,0,1-.42.25,2.65,2.65,0,0,0-.4.25c-.86.7-.79,1.15-.42,1.61s.88.54,1.63.13l.93-.5c.69-.38,1.41-.77,2.13-1.12a2.84,2.84,0,0,1,.9-.21l.43-.06.51-.1Zm19.93,15.71-.57.4.1-.69a12.23,12.23,0,0,1,1.23-3.52c.67-1.43,1.31-2.79,1-4.34-1.61.22-2.08,1.24-2.62,2.42a7.11,7.11,0,0,1-1.18,1.95l-.46.49-.06-.67c0-.25-.05-.46-.08-.65a2.82,2.82,0,0,1,0-.94c.09-.45.17-.89.25-1.34a32.63,32.63,0,0,1,1-4.21c1.22-3.73,3.79-5.51,8.07-5.63h.31v.31C117.46,46.34,116.89,52.18,110.57,56.68ZM15.2,146.33l-.11.21-.23-.05-.16,0c-.18,0-.39-.06-.47-.26a3.19,3.19,0,0,1-.18-.66c-.12-.58-.21-.89-.79-1-.82-.09-1,.45-1.25,1.29l0,.1c-.26,1-.43,2-.61,3.15-.08.48-.16,1-.25,1.48l-.15.83-.41-.74c-1.79-3.25-.62-10.58,2.4-15.09l.22-.33.25.31C16.47,139.26,17,142.77,15.2,146.33Zm30.27-1,.27.22-.26.23a7.26,7.26,0,0,1-4.9,1.9,7.42,7.42,0,0,1-1.15-.09,21,21,0,0,1-8.25-3l-.16-.1,0-.19c0-.18.05-.36.09-.54l.05-.32,1.27.32,2.26.58c1.11.3,1.81,0,2-.81a1.06,1.06,0,0,0-.07-.88,2.09,2.09,0,0,0-1.45-.71l-.62-.08a5.12,5.12,0,0,1-1.28-.26l-.69-.26.68-.29a3.71,3.71,0,0,1,1.45-.25C37.62,140.84,42.33,142.82,45.47,145.35Zm12.88-14.12-.33.31c-1.9,1.8-2,1.9-4.38,2.32l-.57.1.25-.52.63-1.29c.41-.84.77-1.56,1.07-2.29a1.45,1.45,0,0,0,0-1.27,1,1,0,0,0-.8-.5c-.65-.09-.92.24-1.2.92-.39.94-.8,1.86-1.26,2.9l-.92,2.1-.3-.48a2.81,2.81,0,0,1,0-3.39l.53-.74a26.89,26.89,0,0,1,3.81-4.53,22.36,22.36,0,0,1,3.92-2.57c.62-.35,1.25-.71,1.88-1.09l.3-.18.13.32c0,.08.08.17.12.26a2.27,2.27,0,0,1,.3.9C61.65,126.23,60.63,129.08,58.35,131.23Zm15.7,4.6c3,.37,6.83,3.68,8.3,7.23l.13.3-.31.1a6.62,6.62,0,0,1-1.93.27c-3.93,0-9.18-3-10-6.82L70,136l1.59,1.32c.66.55,1.25,1,1.86,1.53s1.18.85,1.71.33a1,1,0,0,0,.35-.7,1.69,1.69,0,0,0-.63-1.09l-.67-.68-1-1Zm7-8-.42.24,0-.48a3.12,3.12,0,0,1,1.29-2.54l.26-.25a6.47,6.47,0,0,0,1-1c.63-.94.22-1.39-.14-1.64a1.09,1.09,0,0,0-.63-.22,1.26,1.26,0,0,0-.89.46c-.71.78-1.41,1.57-2.16,2.41l-1.4,1.57-.09-.64a4.72,4.72,0,0,1,1.82-4.62C81,120,82.48,119,84,117.87l2.06-1.47.34-.25.12.4C87.79,120.68,85.57,125.23,81,127.87Zm32.31-.81.42.37-.54.15c-.68.18-1.33.37-2,.56a25.64,25.64,0,0,1-6.6,1.31h-.2a7.65,7.65,0,0,1-6.15-3.08l-.56-.69,5.63,1.4.45.13a3.14,3.14,0,0,0,.88.19,1.12,1.12,0,0,0,1.26-1.1c.09-.76-.24-1.19-1-1.35-1-.2-2-.37-3.06-.57l-2.71-.49,1.12-.36C104.54,122.12,109,123.33,113.33,127.06Zm-7.24-16.85-.15.27-.26-.16a8.74,8.74,0,0,1-2.91-3.53l-.25-.44c-.6-1.06-1-1.51-1.47-1.51a1,1,0,0,0-.4.1.92.92,0,0,0-.46.56,2.31,2.31,0,0,0,.21,1.71,5.65,5.65,0,0,0,.68,1c.14.17.27.34.4.52l1,1.47,1.09,1.56-1-.42c-3.27-1.42-4.29-2.85-4.07-5.68.2-2.55,1.47-4.55,2.94-6.87l.44-.7.26.33a28.89,28.89,0,0,1,4.4,7.59C107.25,107.68,107,108.56,106.09,110.21Z"/></g></g></svg>