<svg xmlns="http://www.w3.org/2000/svg" viewBox="0 0 136.75 155.99"><defs><style>.cls-1{fill:#98669b;fill-rule:evenodd;}</style></defs><title>style-title-left</title><g id="Layer_2" data-name="Layer 2"><g id="Слой_1" data-name="Слой 1"><path class="cls-1" d="M135.25,20c.83-.28,1.35-.72,1.47-1.24a1.83,1.83,0,0,0-.75-1.62A18.1,18.1,0,0,0,123.49,12a18.57,18.57,0,0,0-7.36,1.56,19.09,19.09,0,0,1-7.89,1.36h-.83l.4-.48.25-.32a2.77,2.77,0,0,1,.47-.52c3.26-2.57,5.12-6.1,6.93-9.52l.81-1.52a1.86,1.86,0,0,0,.16-1.83A2.08,2.08,0,0,0,114.34,0c-3.72.34-8.5,1.07-12.45,3.69a18.83,18.83,0,0,0-7.34,9.66,7.06,7.06,0,0,0-.27,2.14c0,.41,0,.84-.07,1.29l0,.23-.92.16-2.05.37c-1.14.21-2.28.44-3.41.68-2.51.52-5.11,1-7.71,1.32a38.49,38.49,0,0,0-6.34,1.4c-1.12.32-2.27.64-3.43.9A35.11,35.11,0,0,0,64,24.21c-.87.39-1.74.78-2.62,1.13-.44.18-.86.4-1.36.66l-.8.41-.6.3.18-.64c.2-.72.4-1.41.59-2.09.43-1.52.84-3,1.2-4.4A25.73,25.73,0,0,0,61,16.93c0-.27.07-.54.12-.81C61.59,13.07,60,10.51,58.44,8l0-.08c-.52-.83-1.29-1-1.76-.4C56,8.41,55.27,9.22,54.58,10c-1.72,1.93-3.5,3.93-4.15,6.47a19.69,19.69,0,0,0-.66,5.92,60.65,60.65,0,0,0,.78,6.19c.14.9.29,1.8.42,2.72l0,.17-.13.11c-1.43,1.15-2.93,2.29-4.37,3.4C41,39.13,35.41,43.44,31.22,49.48l-.38.55-.15-.65c-.12-.52-.23-1-.34-1.38-.2-.79-.35-1.42-.47-2.06-.84-4.71-3.59-7.46-8.39-8.41a9.19,9.19,0,0,1-1.71-.58c-.37-.15-.75-.31-1.12-.43a1.63,1.63,0,0,0-1.71.21,1.49,1.49,0,0,0-.26,1.19c.46,3.84,1,7.68,1.46,10.94.41,2.84,2,5,3.68,7.18a7.69,7.69,0,0,1,1,6.68,14.65,14.65,0,0,1-.87,1.92c-.19.37-.38.74-.55,1.12a46,46,0,0,0-2.47,8l0,.15c-.22.91-.42,1.84-.58,2.78L18,78.09l-.33-1.42c-.76-3.24-1.89-5.78-4.92-7.66l-1.67-1.07c-.73-.47-1.46-.95-2.21-1.4l-.32-.2c-.42-.27-.92-.59-1.2-.52a1.92,1.92,0,0,0-1.46,1.82c0,.43-.06.87-.1,1.3a25.26,25.26,0,0,0-.12,3.72c.38,5.55,2.84,9.1,7.51,10.86,1,.37,2.1,4.16,3.79,10.34,1,3.59,2,7.31,2.58,8l.54.6-.8-.11a17.67,17.67,0,0,0-2.26-.15c-3.58,0-6.88,1.09-10.07,2.15l-1.81.59a19.13,19.13,0,0,1-2.64.6c-1.93.32-2,.33-2.55,2.29l.09.07a2.29,2.29,0,0,0,.55.37l1.63.65c1.87.75,3.81,1.53,5.75,2.17a26.84,26.84,0,0,0,5.41,1.27,6.73,6.73,0,0,0,3.31-.57c1.75-.77,3.46-1.64,5.25-2.57l2.3-1.18.2-.1,11.57,12.15-1.09.12-1,.11c-3.92.32-6.6,1.2-8.94,2.95a33.56,33.56,0,0,1-3.85,2.36c-.61.34-1.22.67-1.82,1l-.13.08a4.59,4.59,0,0,0-.82.56,1.52,1.52,0,0,0-.59,1.46,1.3,1.3,0,0,0,1.09.82c1.54.31,3.1.59,4.65.87,2.13.38,4.34.78,6.49,1.26a8.07,8.07,0,0,0,1.74.19c4.16,0,8.38-3.15,9.9-6.07a10.14,10.14,0,0,1,.53-.87l.34-.53.17-.26.25.17c5.17,3.52,11.05,5.35,17.28,7.28l2.08.65.58.18-.49.35-.62.46a5.92,5.92,0,0,1-1,.64,20.3,20.3,0,0,0-6.51,5.57l-1.13,1.32c-.76.88-1.54,1.79-2.25,2.71a6,6,0,0,0-.7,1.35l-.25.57a9.68,9.68,0,0,0,4.5,1,21.31,21.31,0,0,0,3.71-.4c2.5-.45,4.4-1.87,6.4-3.37l1.07-.79c2.3-1.67,3-4.05,3.8-6.58l.27-.87.07-.21h.9a7.69,7.69,0,0,1,1.17.06c2.76.43,5.59.89,8.66,1.41l1.21.23,1.14.22a8,8,0,0,0,.92.08,6.55,6.55,0,0,1,1.3.15c.44.12.89.19,1.36.26l.59.1c2.29.41,4.56.85,7,1.31l3.79.73-8.68,5.41-.39.22a3.91,3.91,0,0,0-.62.39,2.14,2.14,0,0,0-.91,1.8,1.47,1.47,0,0,0,.94,1.13c2.63,1.22,5.22,2.31,8,2.31a10.56,10.56,0,0,0,4.06-.82c.56-.23,1.13-.41,1.69-.59a18.43,18.43,0,0,0,2-.71c2.6-1.17,4.7-2.26,6-4.64l.14-.26,4.24,2.3,4.4,3c1.33,1.59,2.89,3.49,4.4,5.47a9.81,9.81,0,0,1,1,1.65l.27.53c2.82-.64,3.87-1.85,4.6-5.26a21.77,21.77,0,0,0-.77-11.4c-.61-1.92-1.32-3.85-2-5.72l-.64-1.76a7.56,7.56,0,0,0-.43-.91l-.15-.29h0c-1,0-1.46.56-2,1.52-.27.5-.55,1-.83,1.5-.71,1.28-1.45,2.59-2.07,3.93a12.78,12.78,0,0,0-.69,2.4,9.54,9.54,0,0,1-1.08,3.17,1.43,1.43,0,0,1-1.22.66,4,4,0,0,1-2-.84,11.29,11.29,0,0,0-2.56-1.29l-1.59-.6c-1.62-.62-3.15-1.2-4.82-1.68-.92-.27-1.87-.51-2.82-.76-1.73-.45-3.52-.91-5.17-1.5a10.65,10.65,0,0,1-1.1-.49,6.47,6.47,0,0,0-1.63-.62,9.21,9.21,0,0,0-1.67-.12,11.21,11.21,0,0,1-1.48-.08l-1-.11c-1-.11-1.8-.19-2.24-.76a2.42,2.42,0,0,1-.27-1.88c.33-2.31.26-4-1.06-5.84a20.37,20.37,0,0,0-5.52-5.52l-.59-.38a20,20,0,0,1-5.83-4.9,1.14,1.14,0,0,0-.84-.55,1.28,1.28,0,0,0-1,.71,3.83,3.83,0,0,0-.5,1.81,52.16,52.16,0,0,0,0,5.48c.08,1.36.3,2.74.51,4.07l.17,1.1a5,5,0,0,0,.41,1c.46,1,1,2.19.32,2.81a1,1,0,0,1-.7.27,2.36,2.36,0,0,1-1-.32,2.63,2.63,0,0,0-.6-.24c-.12,0-12-2.52-12.4-3.16l-.07-.11,0-.15c0-.19.09-.36.12-.5a3.13,3.13,0,0,1,.21-.69c1.92-4,1.08-7.22-2.56-9.92-1-.75-2.09-1.49-3.13-2.19-.78-.53-1.56-1.07-2.33-1.62a9.91,9.91,0,0,1-1.57-1.41l-.21-.24c-.34-.41-.66-.78-1.11-.52a2.67,2.67,0,0,0-1.2,1.57,30.86,30.86,0,0,0-.31,5.23c0,1.2.16,2.41.3,3.58.06.53.12,1.06.17,1.59l0,.37-.37,0c-2.95-.36-12-6.61-14.25-9.85l-.19-.27.29-.16.52-.29c.37-.21.75-.43,1.15-.62a8.85,8.85,0,0,0,4.59-10.38l-.14-.4a7.4,7.4,0,0,0-.51-1.24l-.26-.47c-1.23-2.2-2.51-4.48-2.55-7.19a2,2,0,0,0-2.38,1.27c-.53,1-1.07,1.93-1.6,2.89s-.94,1.68-1.41,2.53-.8,1.54-1.19,2.32a31.86,31.86,0,0,1-2.67,4.71l-.21.29-.25-.26c-.35-.37-.73-.74-1.11-1.12-.63-.62-1.28-1.26-1.84-1.92a12.13,12.13,0,0,1-1.83-3c-.22-.48-.45-1-.69-1.46a27.15,27.15,0,0,1-1.73-4.15,21.39,21.39,0,0,1-.72-5.7v-.14l.11-.09c.57-.49.4-2.29.29-3.47a10,10,0,0,1-.07-1.27,33.93,33.93,0,0,1,.87-5.47l.16-.76c.29-1.36.5-2.76.71-4.11a52.76,52.76,0,0,1,1.08-5.71,33.47,33.47,0,0,1,2.55-6.6,79.48,79.48,0,0,1,6.57-10.2l.46-.64a45.3,45.3,0,0,1,9.45-10.15c.26-.2.54-.37.85-.57l.49-.32.28-.19.15.31c.17.35.33.7.48,1a15.89,15.89,0,0,0,1,2c2.07,3.27,4.56,4.61,7.91,4.24,1.24-.14,2.47-.31,3.7-.47l1.52-.2,1.66-.23c1.25-.17,2.55-.35,3.83-.49.18,0,.36,0,.55,0,.73,0,1.12-.05,1.25-.63.24-1.08.22-1.86-.66-2.45l-1.51-1C59,39.67,55.17,37,50.38,36.15a1.4,1.4,0,0,1-.53-.25l-.17-.11-.3-.17.21-.27c3.72-4.87,19.12-12.16,27-12.79l.21,0,.28.63c.18.38.36.79.54,1.19a11.07,11.07,0,0,0,6.15,5.94,28,28,0,0,0,9.93,2c2.43.08,4.86.19,7.29.31a1.82,1.82,0,0,0,1.5-.42,1.09,1.09,0,0,0,.12-.95,8.59,8.59,0,0,0-1.54-3.51c-1.38-1.69-2.92-3.3-4.42-4.87L95,21.17c-.23-.25-.5-.48-.83-.77l-.62-.56-.43-.4.57-.12.95-.2c.54-.12,1-.22,1.49-.28l3.06-.39c3.34-.43,6.78-.88,10.19-1.17a7.74,7.74,0,0,1,3.93,1,44.74,44.74,0,0,0,9.42,3.09c4.48,1.07,7.89.8,11.05-.83a6.16,6.16,0,0,1,1-.39ZM15.86,80.72l-.12,1.41-.46-1.34c-.15-.44-.27-.84-.38-1.21a8,8,0,0,0-.68-1.8,16.74,16.74,0,0,0-2.37-3.12.87.87,0,0,0-.45-.08,1.52,1.52,0,0,0-.8.19,1.65,1.65,0,0,0-.3,1.3,1.62,1.62,0,0,0,.5.67,4.79,4.79,0,0,1,.38.42c.31.39.61.79.91,1.18l1.17,1.54-1.14-.56A8.52,8.52,0,0,1,8,69.68L8,69.35l.31.13C14.17,71.82,16.34,75.08,15.86,80.72Zm2.9,25.06a18.59,18.59,0,0,1-3.15.25l-.87,0c-1.2,0-1.33.63-1.32,1.07a1,1,0,0,0,1.15,1.16l1.56.09,1.84.11-.77.49a7.39,7.39,0,0,1-4,1.06,9.32,9.32,0,0,1-6.88-2.89L6,106.8l1-.33a26.76,26.76,0,0,1,8.23-1.8,11.45,11.45,0,0,1,3.53.54l1.11.36Zm104.55,29.79.25-.31.22.33c3,4.51,4.19,11.84,2.4,15.09l-.41.74-.15-.83c-.09-.51-.17-1-.25-1.48-.18-1.1-.35-2.14-.61-3.14l0-.1c-.22-.85-.42-1.38-1.25-1.29-.59.06-.68.37-.79,1a3.26,3.26,0,0,1-.18.65c-.09.2-.29.23-.47.26l-.17,0-.23.05-.11-.21C119.7,142.77,120.28,139.26,123.31,135.58ZM102,140.84a3.7,3.7,0,0,1,1.45.25l.68.29-.69.26a5.12,5.12,0,0,1-1.28.26l-.62.08a2.1,2.1,0,0,0-1.45.71,1.08,1.08,0,0,0-.07.89c.22.85.93,1.11,2,.81l2.26-.58,1.27-.32.17,1-.16.11a21,21,0,0,1-8.25,3,7.42,7.42,0,0,1-1.15.09,7.26,7.26,0,0,1-4.9-1.9l-.26-.23.27-.22C94.42,142.82,99.13,140.84,102,140.84ZM75.25,122.52a2.26,2.26,0,0,1,.3-.9c0-.09.09-.18.12-.26l.13-.32.3.18c.62.38,1.25.74,1.88,1.09a22.54,22.54,0,0,1,3.93,2.57,26.78,26.78,0,0,1,3.81,4.52l.54.74a2.81,2.81,0,0,1,0,3.39l-.3.48L85,131.92c-.46-1-.87-2-1.26-2.91-.28-.68-.55-1-1.21-.92a1.05,1.05,0,0,0-.8.5,1.46,1.46,0,0,0,0,1.27c.3.74.66,1.46,1.07,2.3.2.4.41.82.63,1.29l.25.52-.57-.1c-2.37-.42-2.48-.53-4.38-2.32l-.33-.31C76.12,129.08,75.09,126.23,75.25,122.52ZM61.59,139.23c.52.52,1.09.16,1.71-.33s1.18-1,1.83-1.51L66.75,136l-.19.85c-.87,3.84-6.11,6.82-10,6.82a6.62,6.62,0,0,1-1.93-.27l-.31-.1.13-.3c1.47-3.55,5.28-6.86,8.3-7.23l.84-.1-1,1c-.23.24-.44.46-.66.67a1.69,1.69,0,0,0-.63,1.09A1,1,0,0,0,61.59,139.23Zm-11.4-22.68.12-.4.34.25,2.05,1.46c1.56,1.11,3,2.15,4.46,3.27A4.71,4.71,0,0,1,59,125.75l-.09.64-1.36-1.54c-.76-.86-1.47-1.66-2.2-2.45a1.26,1.26,0,0,0-.89-.46,1.11,1.11,0,0,0-.63.22c-.36.25-.77.7-.14,1.64a6.43,6.43,0,0,0,1,1l.24.22a3.15,3.15,0,0,1,1.31,2.56l0,.48-.42-.24C51.18,125.23,49,120.68,50.19,116.55Zm-12.58,7.34-2.7.49c-1.11.2-2.09.38-3.07.57-.8.16-1.13.59-1,1.35a1.12,1.12,0,0,0,1.26,1.1,3.16,3.16,0,0,0,.89-.19l.45-.13,5.64-1.4-.56.69a7.65,7.65,0,0,1-6.15,3.08h-.2a25.59,25.59,0,0,1-6.61-1.31l-2-.56-.54-.15.42-.37c4.31-3.72,8.79-4.93,13.07-3.54ZM30.13,106a28.9,28.9,0,0,1,4.4-7.59l.26-.33.44.7c1.47,2.31,2.74,4.31,2.94,6.87.22,2.83-.81,4.26-4.07,5.68l-1,.42,1.16-1.66,1-1.37c.13-.18.26-.35.4-.52a5.72,5.72,0,0,0,.68-1,2.32,2.32,0,0,0,.21-1.72.92.92,0,0,0-.46-.56,1,1,0,0,0-.4-.1c-.43,0-.87.45-1.47,1.51l-.25.44a8.76,8.76,0,0,1-2.91,3.53l-.26.16-.15-.27C29.72,108.56,29.5,107.68,30.13,106ZM28.81,52.07c0,.19-.06.4-.08.65l-.06.67-.46-.49A7.11,7.11,0,0,1,27,51c-.54-1.18-1-2.2-2.63-2.42-.31,1.55.33,2.9,1,4.34a12.23,12.23,0,0,1,1.22,3.52l.1.69-.57-.4c-6.32-4.5-6.88-10.34-6.92-16.42v-.31h.31c4.29.12,6.85,1.9,8.07,5.63a32.39,32.39,0,0,1,1,4.22c.08.44.16.89.25,1.33A2.84,2.84,0,0,1,28.81,52.07ZM52,40.74a2.57,2.57,0,0,0-.4-.25,3.51,3.51,0,0,1-.42-.25,3,3,0,0,1-.44-.43l-.43-.47-.68-.72,1,.22A21.75,21.75,0,0,1,60,43.41l.52.42-.66.11-2.76.48c-1.91.34-3.55.63-5.25.78l-.49,0c-2.37,0-4.29-1.55-5.25-4.25l-.17-.49.51.1.43.06a2.84,2.84,0,0,1,.9.21c.73.36,1.44.75,2.14,1.13l.92.5c.75.4,1.22.37,1.63-.13S52.89,41.44,52,40.74Zm5.38-18.19a2.68,2.68,0,0,1-.46.9c-.08.11-.15.22-.22.34l-.09.16-.81-.07,0-.24c0-.23,0-.46,0-.69a4,4,0,0,0-.22-1.42,1.87,1.87,0,0,0-1.17-.87,1.74,1.74,0,0,0-.8.78,3.31,3.31,0,0,0-.17,1.18c0,.19,0,.38,0,.56,0,.52-.09,1-.15,1.69L53,27.22l-.46-1.13a12.09,12.09,0,0,1,4.6-14.71l.17-.11.16.11A3.41,3.41,0,0,1,59,15c-.42,2.47-1,5-1.51,7.37Zm42.07,6.54.35.44-.56,0c-1.35.11-2.58.16-3.75.16A29.51,29.51,0,0,1,88.61,29a.7.7,0,0,1-.36-.25h0l-.11-.08c-4.18-.17-7.91-2.81-8.52-6.06L79.49,22l.53.25A27.55,27.55,0,0,1,88.35,28l.5-.15c.29-.09.9-.26,1-.4.12-.34-.32-1-.61-1.5l-.05-.08a2.45,2.45,0,0,0-.69-.61l-.35-.25-4.26-3.28-1.13-.87.76-.07,1-.1a28.94,28.94,0,0,1,2.9-.2,7.24,7.24,0,0,1,3.56.78A29,29,0,0,1,99.48,29.08Zm2.06-14.47L102,14l.21-.3a3.82,3.82,0,0,1,.42-.55,2.92,2.92,0,0,1,.4-.33,2.22,2.22,0,0,0,.35-.28,1.29,1.29,0,0,0,.42-1.08,1.36,1.36,0,0,0-.93-.83,1.63,1.63,0,0,0-1.92.52L98.6,13.55l-2.08,2.13L97,14.4c2.46-6.95,8.2-11.09,15.36-11.09h.53l-.1.37c-1,3.75-6.31,9.74-10.43,10.74Zm30.77,3.64A7.26,7.26,0,0,1,128,19.58c-.6,0-1.31,0-2.4-.13l-.42,0,.17-.38c.11-.25.26-.52.41-.78a2.88,2.88,0,0,0,.43-1,3.06,3.06,0,0,0-1.53-.7l-.39-.11a2.67,2.67,0,0,0-.73-.07,4,4,0,0,1-.74-.05c-.48-.09-1-.23-1.5-.39l-.87-.24-1-.26.94-.31a12.12,12.12,0,0,1,3.8-.61,11.93,11.93,0,0,1,8.18,3.21l.28.27Z"/></g></g></svg>